<svg xmlns="http://www.w3.org/2000/svg" width="557.278" height="744.756"><defs><clipPath id="b" clipPathUnits="userSpaceOnUse"><path d="M0 1872h1404V0H0Z"/></clipPath><clipPath id="c" clipPathUnits="userSpaceOnUse"><path d="M0 1872h1404V0H0Z"/></clipPath><clipPath id="d" clipPathUnits="userSpaceOnUse"><path d="M0 1872h1404V0H0Z"/></clipPath><clipPath id="a" clipPathUnits="userSpaceOnUse"><path d="M303.229-2257.232h628.482v805.534H303.229z" style="opacity:.27;fill:#024" transform="scale(1 -1)"/></clipPath></defs><path d="m10.92 170.82 116.22-7.41 151.71-11.31h179.4l-5.07 101.01-20.28 7.8-414.18-6.24L7.8 208.65Z" style="opacity:1;fill:#fff"/><g clip-path="url(#a)" transform="matrix(1 0 0 -1 -332.65 2224.515)"><path d="m398.95 694.264 1.95 61.62 57.33 1.95 5.07 42.51 2.73 9.36 135.33-3.9 14.43-136.5-156-7.8-5.07 27.69z" style="opacity:1;fill:#fff" transform="matrix(1 0 0 -1 0 2416.85)"/><path d="m343.536 2205.276 1.247-91.07c-1.103-5.79 410.9-4.963 410.9-4.963s6.195 108.318-2.63 104.733c-12.751 9.897-409.517-8.7-409.517-8.7" style="display:inline;opacity:1;fill:#fff"/><path d="M270.01 637.811c-2.299 14.998 2.02 85.767 13.054 115.436.392.685 1.025 1.326 1.702 1.699 57.342 4.39 147.123 3.071 176.273-8.288 8.657-24.212 3.287-74.6-.658-82.933-41.79-9.838-121.032 25.198-116.158-17.25 3.961-20.518-20.558-20.937-28.294-20.5m-65.92-190.868c.837 2.64 2.318 5.71 4.746 8.138 2.523 2.524 5.399 3.637 8.079 4.895 2.052.963 4.013 1.442 6.033 1.89l22.021 3.56 34.039 7.65c18.075 2.912 37.443 4.52 56.034 6.127l14.002.124c9.504.821 18.443 2.427 27.883 2.946 19.358 1.064 19.665-2.686 41.331-.01 12.84.395 26.176.728 39 .012 13.368-1.955 26.67-1.691 40.018-3.119 14.18-1.559 27.825-5.95 40.994-11.325 1.993-.839 4.243-2.232 5.741-3.886 4.038-4.316 4.663-10.807 2.703-16.268-.971-2.363-2.863-4.95-5.364-6.987-3.952-2.963-12.402-6.956-23.28-7.231-1.322-.034-256.938-14.744-285.86-11.708-7.155 1.652-14.419 3.722-21.409 7.003-2.042 1.458-3.549 3.906-4.737 5.85-1.307 2.138-2.36 4.035-2.442 6.16-.078 2.017-.166 4.177.469 6.18" clip-path="url(#b)" style="display:inline;fill:#c9c9c9;fill-opacity:1;fill-rule:nonzero;stroke:none" transform="matrix(1.33333 0 0 -1.33333 0 2496)"/><path d="M285.226 427.151c2.641 1.784 98.763 8.986 111.3 8.626 148 10 146.903 1.2 157.349 3.726 2.822-8.874 1.795-18.341 3.14-39.027-23.75.25-262.36-2.66-271.825-4.554m-5.568-67.513c9.27-.069 253.524-13.395 274.916-13.171-1.67-6.458-.805-18.766-3.295-18.706-15.66-.543-261.36-3.61-275.617-1.851" clip-path="url(#c)" style="display:inline;fill:#9d9d9d;fill-opacity:1;fill-rule:nonzero;stroke:none" transform="matrix(1.33333 0 0 -1.33333 0 2496)"/><path d="M295.712 575.31c-1.634 13.318.26 31.553 1.495 45.32-8.56 5.214-22.086 7.586-27.197 17.181-1.245 2.58-2.141 7.34-2.385 10.155-2.834 20.46 1.85 40.211 5.883 60.095 1.294 37.077-.958 49.627 1.95 52.565 53.374 3.558 158.24 1.084 193.755-8.196 2.82-17.712-2.279-44.769-2.279-63.146-3.436-32.46-10.04-24.23-10.512-32.477 1.457-35.685 7.915-97.367 7.699-99.713-9.493-1.084-20.078-1.773-29.942-2.53-32.344-1.332-45.891-1.227-68.044-.193-7.033.231-23.063-.695-24.5.38-2.058 3.852-.348 7.501-2.051 11.133-.924 2.457-1.422 5.62-3.892 7.271m-51.446 63.88c7.98-5.324 18.502-5.662 27.818-6.545a319 319 0 0 1 19.015-1.026c2.32-.054 7.692.358 11.452 4.833 1.083 1.289 1.367 2.488 1.653 3.775 1.08 7.449-3.237 32.839 2.782 35.236 6.881-2.657 27.633-3.87 41.213-3.87 16.51-3.06 33.21-1.194 49.876-1.127l9.866-1.618c1.633.134 3.895.855 6.63 5.509 6.268 24.157 4.715 49.506 6.488 74.456-19.025 1.657-40.969 2.433-61.557 4.92-38.964.848-77.375 2.858-116.418 1.669-.696-18.589-1.712-37.702-2.699-57.3-3.46-15.088-12.74-47.98 3.88-58.912m145.27-57.313c2.12 5.664 5.843 57.42 6.528 78.933-8.66 1.02-56.826 4.376-82.824 5.52-6.791-3.418.463-25.093-5.035-38.218-12.254-6.02-39.436-.26-44.379-6.206-.888-3.534-4.823-35.198-2.025-39.377m72.967 65.308c-1.014.075-1.901.404-1.836 1.315.042.59.405.835 1.09.9 2.708.253 6.476-.243 9.075-.657 1.517-.216 4.267-.867 3.674-2.002-.436-.702-10.077.3-12.003.444m35.2-3.049c-2.397 1.072-6.538 1.478-7.037 3.34.02.955.879 1.026 1.911.784l5.232-1.96 4.084.2c.536-.126.724-.453.46-1.061-.68-1.585-3.003-1.442-4.65-1.303m-23.96-16.126c2.217-.071 4.495 2.52 6.904 2.873 1.933.283 4.223.208 6.158-.115 4.191-1.078 11.823-2.677 13.678-5.049-.482-.748-2.526-.724-3.806-.375-4.823 2.378-9.35 3.217-13.875 3.697-2.888.703-5.93-4.391-9.017-3.439-4.421.854-9.049 3.1-13.208 4.583-.956.341-1.869 1.239-1.506 1.854 4.144 1.01 10.279-3.93 14.671-4.03m-21.055-25.267c1.995.353 4.138.305 6.113.134 2.568-.223 5.734-2.944 7.824-3.087l3.983 2.073c2.692.408 6.44.696 9.194.512 2.935-.197 6.277-1.325 9.146-2.513 1.25-.517 2.9-1.596 2.527-2.16l-9.758 2.187c-2.825.453-5.998.337-8.826.176-1.888-.107-3.937-2.77-6.128-2.777l-7.095 3.398c-2.968.75-4.614-.294-7.922-.524-1.129-.07-2.089.394-1.712 1.245.333.75 1.651 1.159 2.654 1.336m-37.854-.17c.755 1.28 2.49 2.094 3.819 2.307 3.562.572 11.085-.35 14.04-1.512.95-.806 1.855-1.664 3.138-1.878l4.923 1.426c1.076.155 2.36.017 2.737-.555.121-1.43-5.285-2.811-7.728-3.038-5.362.532-10.898 3.927-15.884 3.637-.927-.194-1.921-.79-2.671-1.738l-1.617-4.47c-.702-.38-1.088.55-1.196 1.603-.135 1.319-.206 3.125.439 4.217m28.822-42.631 8.92 1h46c15.528 1.335 31.977 1.673 46.738 3.342 0 46.564-5.6 79.233-5.6 86.313-.432 2.51-.07 5.309-1.586 7.518-1.242 1.51-6.083.952-6.651.233-2.255-2.85-3.084-17.714-4.104-22.906-2.12-16.53-2.907-32.678-4.212-49.03-1.165-4.307-.154-10.806-4.915-12.062-25.534.836-59.357-.126-84.192-.124-.562-2.159 1.375-9.435 2.422-13.326m164.198-58.528c.372 8.598-2.44 17.439-2.071 26.321.16 1.306 1.527 2.098 3.115 2.103 2.194.007 4.166-2.88 5.9-2.928 1.411.1 1.993 2.47 2.793 3.86 1.934 4.018 2.475 7.911 3.4 11.949 3.673 10.753 8.818 20.145 12.208 30.969 2.636 11.072 7.236 23.092 10.53 33.588-6.758 4.808-16.826 12.333-25.019 17.181-6.74 6.333-13.852 12.53-22.108 20.865-.902 1.062-1.43 2.039-1.742 3.138-.296 1.039-.45 2.173.123 3.255.36.682 1.084 1.41 1.827 1.758.752.352 1.493.316 1.92-.017 1.045-.817 2.024-4.594 3.718-6.623 3.508-4.202 8.452-8.413 11.95-11.561 9.71-7.246 20.553-16.488 30.33-21.573 5.996 8.773 8.798 21.655 15.288 32.08 2.421 3.532 4.428 7 7.625 10.013 4.43 4.175 9.427 7.16 14.102 10.132 3.085 1.96 6.046 2.369 9.145 2.872 3.698.6 8.443.635 12.14.027 6.054-1.35 12.097-4.288 18.14-7.861 3.608-2.376 7.934-5.486 11.006-8.287 3.853-3.515 7.229-8.436 10.925-12.872 5.512-7.362 9.298-14.719 13.432-22.08 1.28-2.883 2.677-6.088 3.428-9.055.95-3.759 2.28-8.23 2.4-12.1.097-3.123-.082-5.99-.87-9.103-1.223-3.67-2.576-7.331-4.266-11.153-1.607-2.063-4.102-4.363-6.038-5.69-2.323-1.594-4.813-2.554-7.157-3.141-3.82-.957-8.25-.52-12.105-.407-2.572.075-5.545.666-8.066 1.203-4.636.989-9.674 2.923-14.042 4.3-5.321 1.675-11.085 4.365-16.06 6.852-9.884 4.941-19.553 8.943-29.053 14.571-5.339 3.887-10.676 8.14-15.471 10.373-4.23-4.655-3.662-12.704-7.433-18.945-2.809-8.918-5.23-19.208-7.89-28-1.861-6.152-4.415-11.774-7.095-18.055-1.507-4.187-3.453-10.33-4.105-14.793-.143-.973.109-1.799.838-2.525l6.362-3.5c.722-1.216.08-3.613-.482-5.15-3.395-5.651-9.467-10.273-15.313-15.179-1.122-.834-2.15-1.16-3.272-.629-1.348.64-2.642 2.559-2.987 3.817m147.834 85.26c.786 1.916 1.281 3.962 1.59 5.915.614 4.948-1.458 9.918-2.442 14.833-2.704 7.632-6.752 15.266-10.65 22.898-3.55 5.811-9.612 13.637-14.721 18.712-5.517 3.739-11.86 8.132-17.694 10.854-4.294 2.088-8.615 3.901-12.872 4.177-4.266.198-8.52-.376-12.795-1.697-5.222-3.415-10.638-6.7-15.737-11.189-3.77-5.418-8.125-11.226-10.215-16.786-3.046-6.963-7.131-14.55-9.122-21.802-.394-1.437.056-2.289 1.31-3.375 7.06-4.81 14.56-10.753 21.794-14.232 12.672-5.412 25.285-12.866 37.918-17.57 4.282-1.319 9.515-3.363 13.982-4.245 2.85-.563 6.04-1.168 8.905-1.186 2.65-.016 5.247-.151 7.88.67 2.531.867 5.343 1.864 7.594 4.298 2.72 2.985 3.931 6.454 5.275 9.726M540.893 374.122c.437 1.458 1.796 3.045 3.026 2.644.606-.176 1.218-.84 1.645-1.521.672-1.072.994-2.32.758-3.339-.172-.745-.538-1.236-1.21-1.65-.95-.583-2.264-.704-3.098-.167-1.152.742-1.536 2.616-1.12 4.033m-12.832-5.364c-.96 1.637-1.485 4.595-1.386 6.295.09 1.536 1.239 3.88 2.447 5.193.78.847 1.742 1.267 2.933 1.042 1.202-.227 1.955-1.05 2.241-2.115.657-2.439.289-5.827.14-8.288-.063-1.044-.274-2.13-1.26-3.08-.679-.654-1.315-.99-2.176-.993-1.2-.004-2.318.888-2.939 1.946m-225.632-26.43c-6.222.285-7.463-1.055-10.2 4.363-1.152 2.28-1.963 4.991-1.603 7.4.245 1.644 1.503 3.776 3.188 5 2.68 1.626 5.563 1.59 8.318 1.057 2.305-.781 5.172-3.53 6.504-5.95 1.706-3.203.999-11.248-6.207-11.87m-1.904 9.368c-.98 1.197-2.126 1.588-2.799.862-.787-.85-1.04-2.138-.273-2.669.758-.524 2.423-.62 3.124-.145.625.425.612 1.14-.052 1.952m26.362-6.917c-1.24 1.882-1.66 4.4-1.248 6.31.925 3.308 2.085 6.994 5.163 8.87 2.812.882 5.513.536 8.303.07 4.166-.862 6.748-4.918 5.869-9.104-1.593-3.405-2.338-6.978-4.845-10.08-1.762-1.828-3.973-2.735-6.262-1.983-2.2.724-5.416 3.543-6.98 5.917m10.059 7.077c-.296 1.103-1.899 2.286-2.649 2.063-.803-.238-1.536-2.688-1.369-3.836.147-1.008 1.308-2.737 2.014-2.768.887-.04 2.333 3.316 2.004 4.541m232.131-148.242c-36.927.801-74.187.909-111.253.95-44.755 2.474-89.284 5.515-134.006 7.999-17.377.881-54.504-1.124-69.78 3.149-1.683 2.193-1.441 14.7-1.47 18.455 2.764 18.905 1.21 37.906.64 56.943.944 3.85 6.191 6.747 6.64 6.938 7.62 1.761 11.529-1.999 13.138 1.212l-.358 14.792 2.508 9.842c-.007.582-.225 1.06-.65 1.367-5.73 1.71-13.125 1.67-19.696 2.611-.99.338-2.32 1.124-3.04 2.046-.97 1.241-1.286 3.193-1.596 4.199l.521 29.063c1.178 7.077 2.085 14.936 4.013 22.032 1.098 4.043 9.07 6.814 8.874 2.395-2.675-1.967-6.4-40.572-5.011-50.29.21-.96.751-1.426 1.764-1.807 2.762-1.039 5.85-1.441 8.764-1.9 23.717-3.737 39.835-4.173 58.101-4.173 62.995-5.003 127.59-11.42 190.708-7.017 31.217.966 72.847-7.27 72.816 1.16-.164 44.736-6.78 67.317-9.007 67.948-9.412 2.666-18.499 3.404-29.871 4.036-45.955 1.34-91.637-1-137.646-1.001-10.125-.562-19.857-1.44-30.027-2.002-24.901.227-49.142-.114-73.973.002-13.464-.748-26.515-1.23-40.033-2.012-9.965-3.162-21.62-16.621-10.636 6.596 3.853 2.314 16.448 1.19 19.686 3.228 3.302 5.386-1.786 21.221 2.697 30.733.555 1.177 1.882 1.26 2.924 1.33 72.156 0 223.494 15.039 273.094 8.704 1.752-11.706-2.032-22.437 2.91-35.905.492-.961 1.358-1.502 2.36-1.705l24.03-2.592c1.688-.913 5.366-7.841 5.72-9.075 1.111-22.558 6.443-45.914 6.891-67.794-.103-2.374-1.594-7.976-2.58-8.298-4.61-1.507-11.08-1.935-16.115-2.21-5.23-.285-10.223.628-15.25 1-3.156-.151-8.026.85-9.84-.825.744-6.76-.684-10.965-.21-14.247.043-.302 1.845-1.917 8.1-1.76 2.747-.858 5.556-10.084 6.037-11.6 1.602-25.388.76-48.125 3.899-74.136-.3-2.337.199-4.906-1.686-7.21m-283.101 194.67c36.355 2.419 100.742 1.94 189.765 5.984 17.261-1.96 34.062-.203 72.953-1.921.994.186 1.468.63 1.49 1.58-.578 4.5.79 30.276-1.496 31.385-8.924.623-9.818.043-26.956 1.079-39.695-1.02-210.928-11.342-234.682-12.08-7.375-1.031-4.476-3.908-3.2-25.142m7.023-102.837c24.853 1.7 59.909 2.897 89.985 2.95 10.111 0 51.624-.06 76.209-.011 5.066.01 16.112-.132 38.012-1.005 16.403-.116 33.883.315 49.547-.396-1.165-.357 6.054 14.694 2.11 15.449-46.756 2.738-96.572.24-129.144 2.35-68.716 5.718-120.193 10.615-137.532 8.605-.979-.158-1.45-.66-1.642-1.65l-.144-5.939-1.848-4.997c-.549-3.734-1.091-11.649-.386-14.662 3.16-1.614 10.114-.538 14.833-.694m271.578-17.534c-.037.957-.156 1.863-.677 2.786-20.074 3.541-43.763 2.54-65.046 3.807-50.638 2.818-70.397 2.774-92.854 1.995-43.674-1.306-50.236 1.622-86.819-.996-25.906.58-38.23-.392-57.159-3.516-4.521-.746-2.984-9.165-3.504-39.071-.61-7.059-.406-14.738-.056-21.813.09-1.826.687-3.215 2.757-3.627 7.612-1.516 17.09-1.657 24.972-2.096 11.454-.217 32.489.111 45.71.223 37.898-3.665 87.723-3.884 128.304-6.224h66.964c12.081-.915 24.425-.175 36.645.081m-34.033 53.414c-.185 1.052.134 2.325.614 3.252.51.982 1.384 1.746 2.52 1.99.735.158 1.577.08 2.177-.28.725-.434 1.033-1.037 1.24-1.79.36-1.316.308-3.217-.389-4.166-.578-.786-1.755-1.224-2.852-1.289-.725-.043-1.558.073-2.153.463-.708.464-1.023 1.062-1.157 1.82m-10.906-5.111c-.998.932-1.255 2.075-1.29 3.124-.065 1.891.427 4.496 1.102 6.26.358.937 1.08 1.778 2.287 1.843 1.205.065 2.33-.711 2.964-1.808.948-1.64 1.25-4.586 1.409-6.356.1-1.117-.154-1.969-1.122-2.757-.849-.692-2.17-1.273-3.203-1.24-.84.026-1.448.281-2.147.934m-178.905-28.255c-3.614.166-7.088-.216-11.143 2.25-2.308 2.313-1.308 8.686.935 11.455 1.882 2.602 4.194 3.285 7.258 3.174 3.476-.102 6.933-1.782 10.378-3.523 2.002-6.593.442-12.284-7.428-13.356m-3.9 4.752c.74-.011 5.355 1.687 4.863 3.48-.17.626-3.832 4.041-6.201.795-1.7-2.33.093-4.257 1.338-4.275m-33.044-3.256c-3.695-1.368-7.518-1.37-11.932 1.712-2.128 2.03-2.658 4.466-2.524 7.297.11 2.003 1.756 5.526 3.248 6.865 2.76 2.475 9.268 1.605 10.337 1.442 6.24-4.288 4.638-13.04.871-17.316m-6.03 6.838c1.011.101 2.732.823 2.766 1.422.032.553-.9 1.492-1.774 1.65-1.025.184-2.68-.966-2.731-1.986-.041-.805.867-1.173 1.739-1.086" clip-path="url(#d)" style="display:inline;fill:#000;fill-opacity:1;fill-rule:nonzero;stroke:none" transform="matrix(1.33333 0 0 -1.33333 0 2496)"/></g></svg>