<svg width="400" height="400" version="1.1" viewBox="0 0 400 400" xmlns="http://www.w3.org/2000/svg" xmlns:xlink="http://www.w3.org/1999/xlink"><desc>Produced by GNUPLOT 4.4 patchlevel 0</desc><g fill="none" stroke="currentColor"><g color="gray"><path d="m81.5 336h301" stroke="#efefef"/></g><g color="black"><path d="m81.5 336h7.5m293 0h-7.5"/><g transform="translate(74.5 339)" fill="#000" font-family="Georgia" font-size="10pt" stroke="none" text-anchor="end"><text><tspan>0</tspan></text></g></g><g color="gray"><path d="m81.5 299h301" stroke="#efefef"/></g><g color="black"><path d="m81.5 299h7.5m293 0h-7.5"/><g transform="translate(74.5 303)" fill="#000" font-family="Georgia" font-size="10pt" stroke="none" text-anchor="end"><text><tspan>5000</tspan></text></g></g><g color="gray"><path d="m81.5 263h301" stroke="#efefef"/></g><g color="black"><path d="m81.5 263h7.5m293 0h-7.5"/><g transform="translate(74.5 267)" fill="#000" font-family="Georgia" font-size="10pt" stroke="none" text-anchor="end"><text><tspan>10000</tspan></text></g></g><g color="gray"><path d="m81.5 227h301" stroke="#efefef"/></g><g color="black"><path d="m81.5 227h7.5m293 0h-7.5"/><g transform="translate(74.5 230)" fill="#000" font-family="Georgia" font-size="10pt" stroke="none" text-anchor="end"><text><tspan>15000</tspan></text></g></g><g color="gray"><path d="m81.5 191h301" stroke="#efefef"/></g><g color="black"><path d="m81.5 191h7.5m293 0h-7.5"/><g transform="translate(74.5 194)" fill="#000" font-family="Georgia" font-size="10pt" stroke="none" text-anchor="end"><text><tspan>20000</tspan></text></g></g><g color="gray"><path d="m81.5 154h301" stroke="#efefef"/></g><g color="black"><path d="m81.5 154h7.5m293 0h-7.5"/><g transform="translate(74.5 158)" fill="#000" font-family="Georgia" font-size="10pt" stroke="none" text-anchor="end"><text><tspan>25000</tspan></text></g></g><g color="gray"><path d="m81.5 118h301" stroke="#efefef"/></g><g color="black"><path d="m81.5 118h7.5m293 0h-7.5"/><g transform="translate(74.5 122)" fill="#000" font-family="Georgia" font-size="10pt" stroke="none" text-anchor="end"><text><tspan>30000</tspan></text></g></g><g color="gray"><path d="m81.5 81.8h301" stroke="#efefef"/></g><g color="black"><path d="m81.5 81.8h7.5m293 0h-7.5"/><g transform="translate(74.5,85.5)" fill="#000" font-family="Georgia" font-size="10pt" stroke="none" text-anchor="end"><text><tspan>35000</tspan></text></g></g><g color="gray"><path d="m81.5 336v-275" stroke="#efefef"/></g><g color="black"><path d="m81.5 336v7.5"/><g transform="translate(85.2 388) rotate(-90)" fill="#000" font-family="Georgia" font-size="10pt" stroke="none"><text><tspan>Aug 28</tspan></text></g></g><g color="gray"><path d="m157 336v-275" stroke="#efefef"/></g><g color="black"><path d="m157 336v7.5"/><g transform="translate(160 388) rotate(-90)" fill="#000" font-family="Georgia" font-size="10pt" stroke="none"><text><tspan>Sep 04</tspan></text></g></g><g color="gray"><path d="m232 336v-275" stroke="#efefef"/></g><g color="black"><path d="m232 336v7.5"/><g transform="translate(236 388) rotate(-90)" fill="#000" font-family="Georgia" font-size="10pt" stroke="none"><text><tspan>Sep 11</tspan></text></g></g><g color="gray"><path d="m307 336v-275" stroke="#efefef"/></g><g color="black"><path d="m307 336v7.5"/><g transform="translate(311 388) rotate(-90)" fill="#000" font-family="Georgia" font-size="10pt" stroke="none"><text><tspan>Sep 18</tspan></text></g></g><g color="gray"><path d="m382 336v-275" stroke="#efefef"/></g><g color="black"><path d="m382 336v7.5"/><g transform="translate(386 388) rotate(-90)" fill="#000" font-family="Georgia" font-size="10pt" stroke="none"><text><tspan>Sep 25</tspan></text></g><path d="m81.5 60.1v275h301v-275h-301z"/><g fill="#000" font-family="Georgia" stroke="none" text-anchor="middle"><g transform="translate(21.7 198) rotate(-90)" font-size="10pt"><text><tspan>Donations in $</tspan></text></g><g transform="translate(232 26.3)" font-size="12pt"><text><tspan>“Rails 3: Appreciate with Charity”</tspan></text></g><g transform="translate(232 41.3)" font-size="12pt"><text><tspan>cumulative donations</tspan></text></g></g></g></g><a xlink:title="Plot #1"><g color="red" fill="none" stroke="currentColor"><g fill="#449fd8" shape-rendering="crispEdges" stroke="none"><polygon points="97.6 336 108 336 108 212 97.6 212"/><polygon points="108 336 119 336 119 152 108 152"/><polygon points="119 336 130 336 130 142 119 142"/><polygon points="130 336 141 336 141 132 130 132"/><polygon points="141 336 152 336 152 123 141 123"/><polygon points="151 336 162 336 162 122 151 122"/><polygon points="162 336 173 336 173 121 162 121"/><polygon points="173 336 184 336 184 119 173 119"/><polygon points="184 336 194 336 194 96.2 184 96.2"/><polygon points="194 336 205 336 205 94.7 194 94.7"/><polygon points="205 336 216 336 216 88.3 205 88.3"/><polygon points="216 336 227 336 227 87.5 216 87.5"/><polygon points="227 336 248 336 248 83.6 227 83.6"/><polygon points="248 336 270 336 270 83.1 248 83.1"/><polygon points="270 336 280 336 280 75.6 270 75.6"/><polygon points="280 336 296 336 296 74.2 280 74.2"/><polygon points="296 336 323 336 323 73.5 296 73.5"/><polygon points="323 336 356 336 356 69 323 69"/></g></g></a><g color="black" fill="none" stroke="currentColor"><path d="m81.5 60.1v275h301v-275h-301z"/></g></svg>
