<svg width="475" height="450" version="1.1" viewBox="0 0 475 450" xmlns="http://www.w3.org/2000/svg"><desc>Produced by GNUPLOT 4.2 patchlevel 5</desc><g transform="translate(-71.7 -16.6)" color="#000000" fill="none" stroke="currentColor"><path d="m119 370h9m418 0h-9"/><g transform="translate(111 374)" fill="#000" font-family="Arial" font-size="16px" stroke="none" text-anchor="end"><text>50.7</text></g><path d="m119 277h9m418 0h-9"/><g transform="translate(111 281)" fill="#000" font-family="Arial" font-size="16px" stroke="none" text-anchor="end"><text>50.75</text></g><path d="m119 184h9m418 0h-9"/><g transform="translate(111 188)" fill="#000" font-family="Arial" font-size="16px" stroke="none" text-anchor="end"><text>50.8</text></g><path d="m119 90.9h9m418 0h-9"/><g transform="translate(111 95.4)" fill="#000" font-family="Arial" font-size="16px" stroke="none" text-anchor="end"><text>50.85</text></g><path d="m126 444v-9m0-418v9"/><g transform="translate(126 466)" fill="#000" font-family="Arial" font-size="16px" stroke="none" text-anchor="middle"><text>4.5</text></g><path d="m193 444v-9m0-418v9"/><g transform="translate(193 466)" fill="#000" font-family="Arial" font-size="16px" stroke="none" text-anchor="middle"><text>4.55</text></g><path d="m260 444v-9m0-418v9"/><g transform="translate(260 466)" fill="#000" font-family="Arial" font-size="16px" stroke="none" text-anchor="middle"><text>4.6</text></g><path d="m326 444v-9m0-418v9"/><g transform="translate(326 466)" fill="#000" font-family="Arial" font-size="16px" stroke="none" text-anchor="middle"><text>4.65</text></g><path d="m393 444v-9m0-418v9"/><g transform="translate(393 466)" fill="#000" font-family="Arial" font-size="16px" stroke="none" text-anchor="middle"><text>4.7</text></g><path d="m460 444v-9m0-418v9"/><g transform="translate(460 466)" fill="#000" font-family="Arial" font-size="16px" stroke="none" text-anchor="middle"><text>4.75</text></g><path d="m527 444v-9m0-418v9"/><g transform="translate(527 466)" fill="#000" font-family="Arial" font-size="16px" stroke="none" text-anchor="middle"><text>4.8</text></g></g><g transform="translate(-71.7 -16.6)" color="#ff0000" fill="none" stroke="currentColor"><path d="m276 414h0.1l0.4-0.2h0.1l0.2-0.2h0.1l0.2-0.1h0.1l0.2-0.1h0.9l0.1-0.1h0.2l0.1-0.1v-0.2l0.2-0.2h0.2l0.1-0.1h0.1l0.2-0.1 0.1-0.1h0.1l0.2-0.1h0.1l0.1-0.1v-0.4l-0.1-0.1v-0.3l0.6-0.6 0.2-0.1 0.3-0.3v-0.3h-0.1v-0.1h-0.1l-0.3-0.3v-0.1h-0.1v-0.1l-0.1-0.1h-0.1v-0.1l-0.2-0.2h-0.1v-0.1l-0.2-0.2v-0.1l-0.1-0.1v-0.6l0.1-0.1v-0.1l0.1-0.1v-0.3l0.1-0.1v-0.1l0.1-0.1v-0.1l0.1-0.1v-0.3l0.1-0.1v-0.1l0.1-0.1v-0.5l0.1-0.1v-0.4l-0.1-0.1h-0.1l-0.1-0.1v-0.1l-0.1-0.1-0.1-0.2-0.9-0.9-0.1-0.2v-0.1l-0.1-0.2-0.1-0.1-0.1-0.2-0.1-0.1v-0.1l-0.1-0.2-0.1-0.1-0.1-0.2-0.1-0.1-0.1-0.2v-0.1l-0.1-0.1-0.1-0.2-0.1-0.1v-0.1l-0.1-0.2-0.1-0.1v-0.1l-0.3-0.3v-0.1l-0.2-0.2v-0.2l-0.1-0.1v-0.1h-0.1v-0.3h-0.1v-0.3l-0.1-0.1v-0.3l0.1-0.1v-0.9l0.1-0.1v-0.8l0.1-0.1v-0.9l0.1-0.1v-0.6l0.1-0.2v-0.4l0.1-0.1v-0.3l0.1-0.1v-0.1l0.1-0.1v-0.5l0.2-0.2v-0.1l0.1-0.1v-0.2l0.2-0.2v-0.2l0.1-0.1v-0.1l0.1-0.2 0.1-0.1v-0.2l0.1-0.1v-0.2l0.1-0.1v-0.2l0.1-0.1v-0.2l0.1-0.1 0.1-0.2v-0.1l0.1-0.2 0.1-0.1v-0.1l0.1-0.2 0.1-0.1v-0.1l0.1-0.2 0.3-0.3 0.1-0.2 0.2-0.2 0.2-0.1 0.2-0.2h0.1l0.1-0.1v-0.1h0.2v1l-0.1 0.1v0.1l-0.3 0.3v0.1l0.1 0.1h0.1l0.1 0.1h0.3l0.3-0.1h0.2v-0.1h0.1v-0.1l0.3-0.3h1.2l0.2-0.1h1.3l0.2-0.1h1.1l0.2-0.1h1.7l0.4 0.2 0.4 0.4v0.1l0.2 0.2h0.1l0.2-0.1h0.2l0.2-0.1h0.3l0.1-0.1h0.2l0.1-0.1h0.2l0.1-0.1h0.2l0.1-0.1h0.3l0.2-0.1h0.5l0.2-0.2h0.3l0.2-0.1h0.7l0.1 0.1h0.2l0.1 0.1h0.2l0.2 0.1 0.1 0.1h0.1l0.2 0.1 0.1 0.1h0.2l0.2 0.1h0.1l0.2 0.1h0.2l0.2 0.1h0.2l0.1 0.1h0.4l0.2 0.1h1.7l0.2-0.1h0.7l0.2-0.1h0.4l0.2-0.1h0.9l0.2-0.1h0.6l0.2-0.1h0.3l0.4-0.2h0.1l0.4-0.2 0.1-0.1h0.2l0.8-0.4h0.2l0.6-0.3 0.1-0.1 0.2-0.1 0.1-0.1 0.1-0.2 0.2-0.2 0.1-0.2 0.3-0.3 0.2-0.1h0.1l0.1-0.1h0.2l0.2-0.2v-0.1l0.1-0.1v-0.3l0.1-0.1v-0.3l0.1-0.2v-0.3l0.1-0.1v-0.1l0.1-0.2v-0.1l0.1-0.1 0.1-0.2 0.1-0.1v-0.1l0.1-0.2 0.2-0.2 0.1-0.2 0.1-0.1 0.2-0.1 0.2-0.2 0.2-0.1 0.2-0.2 0.2-0.1 0.1-0.1 0.2-0.1 0.1-0.1 0.2-0.1 0.2-0.2h0.2l0.2-0.2 0.2-0.1 0.4-0.4 0.2-0.1 0.1-0.2 0.2-0.2v-0.1l0.2-0.2 0.1-0.2 0.2-0.2v-0.1l0.1-0.2 0.1-0.1v-0.1l0.1-0.2 0.1-0.1v-0.1l0.2-0.2v-0.2l0.2-0.2v-0.1l0.1-0.1v-0.1l0.1-0.2 0.1-0.1v-0.1l0.2-0.2v-0.1l0.1-0.2 0.1-0.1v-0.1l0.3-0.3 0.1-0.2 0.6-0.6 0.1-0.2 0.4-0.4 0.1-0.2 0.2-0.2 0.1-0.2 0.2-0.2v-0.2l0.2-0.2 0.1-0.2 0.1-0.1 0.1-0.2 0.2-0.2 0.1-0.2v-0.1l0.1-0.2 0.2-0.2 0.1-0.2 0.1-0.1 0.1-0.2 0.1-0.1 0.1-0.2 0.1-0.1 0.1-0.2 0.1-0.1 0.1-0.2 0.1-0.1v-0.2l0.1-0.1 0.1-0.2 0.1-0.1 0.1-0.2 0.2-0.2 0.1-0.2 0.1-0.1 0.1-0.2v-0.1l0.1-0.1 0.1-0.2v-0.1l0.1-0.2v-0.1l0.1-0.1 0.1-0.2v-0.1l0.1-0.1v-0.2l0.1-0.1 0.1-0.2v-0.1l0.1-0.2 0.1-0.1v-0.1l0.1-0.2 0.2-0.2 0.1-0.2 0.2-0.2 0.1-0.2 0.2-0.2 0.1-0.2 0.2-0.2 0.1-0.2 0.3-0.3 0.1-0.2 0.3-0.3 0.1-0.2 0.1-0.1v-0.1l0.1-0.1 0.1-0.2 0.3-0.3 0.1-0.2 0.7-0.7 0.2-0.1 0.1-0.1 0.2-0.1 0.1-0.1h0.2l0.1-0.1h0.2l0.2-0.1h0.4l0.2-0.1h0.4l0.2-0.1h0.2l0.1-0.1h0.2l0.1-0.1h0.1l0.1-0.1h0.1l0.1-0.1h0.1v-0.1h0.1l0.1-0.1h0.1v-0.1l0.2-0.2v-0.1h0.1v-0.2l0.2-0.2v-0.1l0.1-0.1v-0.1l0.1-0.1v-0.1l0.1-0.1h0.1v-0.1h0.6l0.1-0.1h0.1l0.2-0.2 0.1-0.2v-0.1l0.2-0.2v-0.1l0.2-0.2v-0.1l0.2-0.2v-0.1l0.1-0.1v-0.1l0.2-0.2v-0.1l0.1-0.2 0.1-0.1v-0.1l0.1-0.1v-0.1l0.2-0.2v-0.1l0.2-0.2 0.1-0.2 0.1-0.1v-0.1l0.1-0.1 0.1-0.2 0.1-0.1v-0.1l0.1-0.1 0.1-0.2 0.1-0.1v-0.2l0.2-0.2 0.1-0.2 0.2-0.2 0.1-0.2 0.1-0.1 0.1-0.2 0.1-0.1 0.1-0.2 0.1-0.1 0.1-0.2 0.2-0.1 0.2-0.4 0.2-0.1 0.1-0.2 0.2-0.1 0.1-0.2 0.2-0.1 0.2-0.2 0.4-0.2 0.2-0.2 0.4-0.2 0.7-0.7 0.2-0.1 0.1-0.2 0.2-0.2 0.3-0.6 0.1-0.1 0.2-0.4v-0.2l0.3-0.6v-0.2l0.1-0.1 0.1-0.2v-0.2l0.1-0.2 0.1-0.1v-0.2l0.1-0.2v-0.2l0.1-0.1v-0.2l0.1-0.2v-0.1l0.1-0.2v-0.2l0.1-0.2v-0.3l0.1-0.2v-0.3l0.1-0.1v-0.2l0.1-0.2v-0.1l0.1-0.2v-0.1l0.1-0.2v-0.1l0.1-0.2v-0.1l0.1-0.2 0.1-0.1v-0.1l0.1-0.2 0.1-0.1v-0.1l0.1-0.2 0.3-0.3v-0.1l0.1-0.2 0.4-0.4 0.1-0.2 0.1-0.1v-0.1l0.2-0.2 0.1-0.2 0.4-0.4 0.1-0.2 0.1-0.1v-0.1l0.4-0.4 0.1-0.2 0.1-0.1v-0.1l0.3-0.3 0.1-0.2 0.3-0.3v-0.1l0.3-0.3 0.1-0.2v-0.1l0.4-0.4v-0.1l0.3-0.3v-0.1l0.1-0.2 0.2-0.2v-0.1l0.2-0.2v-0.1l0.1-0.2 0.1-0.1v-0.1l0.2-0.2v-0.1l0.1-0.1v-0.2l0.2-0.2v-0.1l0.1-0.1v-0.1l0.1-0.1v-0.1l0.1-0.1v-0.1l0.1-0.1v-0.1l0.1-0.1v-0.2l0.1-0.1v-2.7l-0.1-0.1v-0.7l-0.1-0.1v-0.2l-0.1-0.1v-0.1l-0.1-0.1v-0.1l-0.1-0.1v-0.2l-0.4-0.4v-0.2l-0.2-0.2v-0.2l-0.2-0.2-0.1-0.2-0.1-0.1-0.1-0.2v-0.1l-0.1-0.2-0.1-0.1v-0.2l-0.1-0.1v-0.5l-0.1-0.2v-0.3l0.1-0.2v-0.4l0.1-0.2 0.1-0.1v-0.2l0.1-0.1v-0.2l0.1-0.1v-0.3l0.1-0.1v-0.2l0.2-0.2v-0.2l0.1-0.1v-0.2l0.1-0.1v-0.1l0.1-0.2v-0.1l0.1-0.2v-0.1l0.1-0.1 0.1-0.2v-0.2l0.1-0.1v-0.2l0.1-0.1v-0.2l0.1-0.1v-0.3l0.1-0.1v-0.2l0.1-0.1v-0.1l0.1-0.1v-0.1l0.1-0.1v-0.3l0.1-0.1v-0.1l0.1-0.1v-0.3l0.1-0.1v-0.2l0.1-0.1v-1.4l-0.1-0.2v-0.2l-0.1-0.1v-0.2l-0.1-0.1v-0.1l-0.1-0.1v-0.1l-0.1-0.2v-0.1l-0.3-0.3v-0.1l-0.1-0.2-0.4-0.4v-0.1l-0.1-0.1-0.1-0.2v-0.1l-0.2-0.2v-0.2l-0.2-0.2v-0.1l-0.1-0.2v-0.2l-0.1-0.1v-0.2l-0.1-0.1v-0.8l-0.1-0.1v-0.1l0.1-0.2v-0.7l0.1-0.2v-0.6l0.1-0.2v-0.6l0.1-0.2v-0.5l0.1-0.1v-0.2l0.1-0.1v-0.1l0.1-0.1v-0.1l0.1-0.2v-0.1l0.1-0.1v-0.1l0.2-0.2v-0.1l0.3-0.3 0.1-0.2 0.1-0.1v-0.1l0.3-0.3v-0.1l0.3-0.3v-0.1l0.2-0.2v-0.1l0.1-0.1v-1l-0.1-0.2v-0.1l-0.1-0.1v-0.1l-0.1-0.2v-0.8l-0.1-0.1v-0.2l-0.1-0.2v-0.3l-0.1-0.1v-0.6l0.3-0.3v-0.1l-0.1-0.1v-0.2l-0.1-0.1h-0.1l-0.2-0.2v-0.2l-0.1-0.1v-0.6l-0.1-0.1v-1l-0.1-0.1v-0.5l-0.1-0.1v-0.2l-0.1-0.1v-0.2h-0.1v-0.2l-0.1-0.1v-0.3h-0.1v-0.3l-0.1-0.1v-0.4l-0.1-0.1v-0.3l-0.1-0.1v-0.3l0.1-0.1v-0.3l0.1-0.1v-0.2l0.1-0.1v-0.1l0.2-0.2v-0.1h0.1l0.3-0.3v-0.1h0.1l0.3-0.3h0.1v-0.1l0.2-0.2h0.1v-0.1l0.4-0.4h0.2l0.2-0.1h0.3l0.1-0.1h0.1l0.2-0.1h0.3l0.1-0.1h1.4l0.1 0.1h0.6l0.1-0.1h0.2l0.2-0.2 0.2-0.1h0.1l0.2-0.1 0.2-0.2 0.2-0.1 0.3-0.3 0.2-0.1 0.2-0.2 0.2-0.1 0.1-0.1h0.1l0.2-0.2 0.2-0.1 0.4-0.4-0.1-0.1v-0.1h-0.1l-0.1-0.1h-0.1l-0.1-0.1h-0.1l-0.2-0.2h-0.1l-0.2-0.2h-0.1v-0.1l-0.6-0.6v-0.1l-0.3-0.3v-0.1l-0.1-0.1v-0.1l-0.1-0.1v-0.1l-0.1-0.1h-0.1l-0.2-0.2h-0.1l-0.3-0.3h-0.1l-0.2-0.2h-0.1l-0.2-0.2h-0.1l-0.2-0.2h-0.1v-0.1h-0.1l-0.2-0.2h-0.1v-0.1l-0.1-0.1h-0.1l-0.4-0.4v-0.4h0.1v-0.2l0.1-0.1v-0.1l0.1-0.1v-0.1l0.2-0.2v-0.1h0.1v-0.1h0.1v-0.1h0.1v-0.1h0.1v-0.1h0.1v-0.1h0.1l0.1-0.1h0.1v-0.1h0.1v-0.1h0.1l0.5-0.5h0.1v-0.1h0.1l0.2-0.2h0.1v-0.1l0.2-0.2h0.1l0.3-0.3h0.1l0.1-0.1h0.3l0.2-0.2h0.1l0.1-0.1v-0.1l0.5-0.5h0.3l0.1-0.1h0.4l0.1-0.1h2.2l0.4-0.2 0.1-0.2 0.1-0.1 0.3-0.6v-0.1l0.2-0.4 0.1-0.1 0.1-0.2 0.1-0.1 0.2-0.1 0.3-0.3v-0.2l-0.4-0.4-0.1-0.2-0.2-0.2-0.1-0.2-0.2-0.2-0.1-0.2-0.2-0.2v-0.2l-0.2-0.2v-1.9l0.1-0.1v-0.6l-0.2-0.2h-0.2l-0.1-0.1h-0.1l-0.2-0.1h-0.1l-0.2-0.2h-0.1l-0.2-0.2-0.1-0.2-0.4-0.4-0.2-0.1-0.4-0.4-0.2-0.1-0.1-0.1h-0.2l-0.1-0.1h-0.3l-0.2-0.1h-0.1l-0.2-0.1h-0.2l-0.1-0.1h-0.2l-0.1-0.1h-0.2l-0.1-0.1h-0.1l-0.1-0.1-0.2-0.1h-0.1l-0.2-0.2h-0.1l-0.1-0.1h-0.1l-0.1-0.1h-0.1l-0.2-0.1h-0.1l-0.1-0.1h-0.1l-0.2-0.1-0.1-0.1h-0.2l-0.1-0.1h-0.1l-0.2-0.1-0.1-0.1h-0.2l-0.1-0.1h-0.2l-0.2-0.2h-0.2l-0.1-0.1h-0.1l-0.1-0.1h-0.3l-0.1-0.1h-0.3l-0.2-0.1h-0.3l-0.2-0.1h-0.2l-0.2-0.1h-0.1l-0.1-0.1h-0.2l-0.1-0.1h-0.3l-0.1-0.1h-0.1l-0.2-0.1h-0.1l-0.1-0.1h-0.3l-0.1-0.1h-0.2l-0.1-0.1h-0.1l-0.1-0.1-0.2-0.1-0.1-0.1v-0.1l-0.1-0.1v-0.1l-0.2-0.2v-0.1l-0.1-0.1v-0.1l-0.1-0.1v-0.1l-0.1-0.1v-0.1l-0.1-0.1v-0.1l-0.1-0.1v-0.1l-0.1-0.1v-0.1l-0.1-0.1v-0.1l-0.1-0.1v-0.1l-0.1-0.2v-0.1l-0.1-0.1v-0.1l-0.1-0.1v-0.1l-0.2-0.2v-0.1l-0.1-0.1v-0.1l-0.1-0.2-0.1-0.1v-0.1l-0.1-0.1v-0.1l-0.1-0.2-0.1-0.1v-0.1l-0.2-0.2v-0.1l-0.3-0.3v-0.2l-0.3-0.3v-0.1l-0.4-0.4v-0.1l-1.2-1.2h-0.1l-0.2-0.2-0.2-0.1h-0.1l-0.1-0.1h-0.1l-0.1-0.1-0.2-0.1h-0.1l-0.1-0.1h-0.1l-0.3-0.3h-0.1l-0.6-0.6h-0.1l-1.4-1.4h-0.1v-0.1l-1.2-1.2-0.2-0.1-0.5-0.5-0.2-0.1h-0.7l-0.2 0.1-0.1 0.1-0.6 0.3-0.3 0.1-1.2 0.6h-0.2l-0.6 0.3-0.1 0.1-0.2 0.1h-0.2l-0.2 0.1-0.1 0.1-0.2 0.1h-0.2l-0.1 0.1-0.2 0.1-0.1 0.1h-0.2l-0.1 0.1h-0.2l-0.2 0.2h-0.3l-0.1 0.1h-0.2l-0.1 0.1h-0.4l-0.1 0.1h-2l-0.2 0.1h-2.9l-0.1 0.1h-0.3l-0.2 0.1h-0.2l-0.2 0.1h-0.1l-0.1 0.1h-0.2l-0.1 0.1h-0.1l-0.1 0.1h-0.2l-0.2 0.2h-0.1l-0.2 0.2h-0.1l-0.2 0.1h-0.2l-0.1 0.1h-1.3l-0.1-0.1h-1l-0.1-0.1h-0.5l-0.1-0.1h-0.1l-0.1-0.1h-0.1l-0.2-0.2v-1l-0.1-0.1v-0.4l-0.1-0.1v-0.1l-0.1-0.1v-0.1l-0.1-0.2v-0.1l-0.1-0.1v-0.4l-0.1-0.1 0.1-0.2v-0.5l0.1-0.1v-0.2l0.1-0.1v-0.1l0.1-0.1v-0.2l0.1-0.1v-0.1l0.1-0.1v-0.2l0.1-0.1v-0.1l0.1-0.1v-0.1l0.1-0.2v-0.1l0.1-0.1v-0.1l0.1-0.1v-0.3l0.1-0.1v-0.8l-0.1-0.1v-0.1l-0.1-0.2v-0.1l-0.2-0.2v-0.1l-0.1-0.1h-0.1v-0.1l-0.2-0.2v-0.1l-0.2-0.2v-0.1l-0.2-0.2v-0.1l-0.4-0.4v-0.1l-0.1-0.1h-0.1l-0.3-0.3v-0.1l-0.5-0.5v-0.1l-0.2-0.2v-0.1l-0.1-0.2-0.1-0.1v-0.1l-0.1-0.1v-0.1l-0.1-0.1v-0.1l-0.1-0.2v-0.1l-0.1-0.1v-0.1l-0.1-0.1v-0.2l-0.1-0.1v-0.2l-0.1-0.1v-0.1l-0.1-0.1v-0.1l-0.1-0.1v-0.1l-0.1-0.1v-0.2l-0.1-0.1v-0.1l-0.2-0.2v-0.1l-0.2-0.2v-0.1l-0.4-0.4v-0.1l-0.2-0.2v-0.1l-0.2-0.2v-0.1l-0.2-0.2v-0.1l-0.2-0.2v-0.1h-0.1v-0.1l-0.1-0.1v-0.1l-0.2-0.2v-0.1l-0.1-0.1v-0.1l-0.1-0.1v-0.2l-0.1-0.1v-0.1l-0.2-0.2v-0.2l-0.1-0.1v-0.3l-0.1-0.1v-1.3l0.1-0.1v-0.3l0.1-0.1v-0.3l0.1-0.1v-0.3l0.1-0.1v-0.3l0.1-0.1v-0.4l0.1-0.1v-0.5l0.1-0.1v-1.1l-0.1-0.1v-0.6l-0.1-0.1v-1.9l0.1-0.2v-1.2l-0.1-0.1v-0.4l-0.1-0.1v-0.2l-0.1-0.2v-0.1l-0.1-0.1v-0.3l-0.1-0.1v-0.1l-0.1-0.1v-0.1l-0.1-0.2v-0.2l-0.1-0.1v-0.3l-0.1-0.1v-0.3l-0.1-0.1v-0.3l-0.1-0.1v-0.3l-0.1-0.1v-0.2l-0.1-0.1v-0.3l-0.1-0.1v-0.2l-0.1-0.1v-0.2l-0.1-0.1v-0.2l-0.1-0.1v-0.3l-0.1-0.1v-0.2l-0.1-0.1v-0.2l-0.1-0.1v-0.2l-0.1-0.1v-0.3l-0.1-0.1v-0.1l-0.1-0.1v-0.1l-0.4-0.4h-0.1v-0.1h-0.2l-0.1-0.1h-0.1l-0.2-0.2v-0.4l0.1-0.1v-1.5l0.1-0.2v-0.6l0.1-0.1v-0.3l0.1-0.2v-0.3l0.1-0.1v-0.5l0.1-0.1v-0.4l0.1-0.1v-0.5l0.1-0.1v-0.7l0.1-0.1v-1.2l0.1-0.2v-0.2l0.1-0.1v-0.2l0.1-0.1v-0.2l0.1-0.1v-0.2l0.1-0.1v-0.3l0.1-0.1v-0.3l0.1-0.1v-1.3l0.1-0.1v-1.2l-0.1-0.1v-0.6l-0.1-0.1v-0.3l-0.1-0.1v-0.3l-0.1-0.2v-0.9l0.1-0.2v-0.1l0.7-0.7 0.2-0.1 0.1-0.1 0.2-0.1 0.1-0.1h0.1l0.2-0.1 0.2-0.2h0.2l0.8-0.8 0.1-0.2 0.4-0.4v-0.1l0.2-0.2 0.1-0.2 0.4-0.4v-0.1l0.6-0.6v-0.1l0.1-0.2 0.3-0.3v-0.1l0.1-0.1v-0.1l0.1-0.2v-0.1l0.1-0.1v-0.1l0.1-0.2v-0.5l0.1-0.1v-0.7l0.1-0.2v-0.7l0.1-0.1v-0.6l0.1-0.1v-0.6l0.1-0.1v-0.5l0.1-0.2v-0.3l0.1-0.2v-0.1l0.1-0.1v-0.1l0.1-0.1v-0.2l0.1-0.1v-0.1l0.1-0.1v-0.1l0.1-0.1 0.1-0.2v-0.1l0.3-0.3v-0.1l0.5-0.5v-0.1l0.6-0.6h0.1l0.7-0.7v-0.1l0.5-0.5v-0.1l0.1-0.1 0.1-0.2 0.2-0.2v-0.1l0.2-0.2v-0.1l0.2-0.2 0.1-0.2v-0.1l0.3-0.3v-0.1l0.1-0.1 0.1-0.2 0.1-0.1v-0.1l0.3-0.3v-0.2l0.3-0.3v-0.1l0.2-0.2v-0.2l0.2-0.2v-0.1l0.1-0.1v-0.1l0.2-0.2v-0.1l0.2-0.2v-0.1l0.3-0.3h0.1l0.1-0.1 0.2-0.1h0.1l0.1-0.1h0.1l0.2-0.1 0.1-0.1h0.1l0.1-0.1h0.2l0.1-0.1h0.7l0.2 0.1h1.4l0.2 0.1h0.5l0.2 0.1h0.4l0.2 0.1h0.4l0.1 0.1h0.5l0.1 0.1h0.4l0.2 0.1h0.5l0.2 0.1h0.1l0.2 0.2v0.1l0.4 0.4h0.3l0.1-0.1v-0.5l0.1-0.1v-0.3l0.1-0.1v-0.3l0.1-0.1v-0.4l0.1-0.1v-0.5l0.1-0.1v-0.5l0.1-0.1v-0.5l-0.1-0.1v-0.2l-0.1-0.1v-0.4l-0.1-0.1v-0.4l-0.1-0.1v-0.1l-0.1-0.1v-0.2l-0.1-0.1v-0.1l-0.1-0.1v-0.1l-0.1-0.1v-0.1l-0.1-0.1v-0.1l-0.1-0.1v-0.1l-0.1-0.1v-0.1l-0.1-0.1v-0.2l-0.1-0.1v-0.1l-0.1-0.1v-0.1l-0.2-0.2v-0.1l-0.2-0.2v-0.1l-0.3-0.3h-0.1l-0.5-0.5v-1.3h0.5l0.1-0.1v-5.5l0.1-0.1v-1.3l0.1-0.1v-0.5l0.1-0.1v-0.5l0.1-0.1v-0.5l0.1-0.1v-0.5l0.1-0.1v-0.6l0.1-0.1v-0.3h0.1v-0.1l0.1-0.1v-0.1h0.1l0.1-0.1v-0.1h0.1v-0.1h0.1v-0.1h0.1l0.2-0.2h0.1l0.3-0.3h0.1v-0.1h0.1v-0.1h0.1v-0.2h0.1v-0.5l-0.1-0.1v-0.3h-0.1v-0.4h-0.1v-0.4h-0.1v-0.3l-0.1-0.1v-0.3l-0.1-0.1v-0.3l-0.1-0.1v-0.3l-0.1-0.1v-0.4h-0.1v-0.5h-0.1v-0.7l-0.1-0.1v-0.2l0.1-0.1v-0.7l0.1-0.1v-0.6l0.1-0.1v-0.5l0.1-0.2v-0.3l0.1-0.1v-0.2l0.1-0.2v-0.1l0.1-0.2 0.1-0.1v-0.2l0.1-0.1 0.1-0.2 0.1-0.1 0.1-0.2 0.1-0.1v-0.2l0.1-0.1 0.1-0.2v-0.2l0.1-0.2v-0.1l0.2-0.2v-0.1l0.1-0.1v-0.2l0.1-0.2v-0.2l0.1-0.1v-0.1l0.1-0.1v-0.2l0.1-0.1v-0.2l0.1-0.1v-0.4l0.1-0.1v-1.3l0.1-0.1v-1.6h0.1v-0.3l-0.1-0.1v-0.6l-0.1-0.1v-0.5l-0.1-0.1v-0.1l-0.1-0.2v-0.1l-0.1-0.1v-0.2l-0.1-0.1v-0.1l-0.1-0.2v-0.1l-0.1-0.1v-0.2l-0.1-0.1v-0.2l-0.1-0.1v-1.1l0.1-0.2v-0.1l0.1-0.2v-0.1l0.1-0.2v-0.1l0.1-0.1 0.1-0.2 0.2-0.2v-0.2l0.2-0.2 0.1-0.2 0.1-0.1v-0.1l0.1-0.2 0.2-0.2v-0.2l0.2-0.2v-0.1l0.1-0.2v-0.1l0.1-0.1v-0.2l0.1-0.1v-0.4l0.1-0.1v-0.6l0.1-0.1v-0.4l0.1-0.1v-0.4l0.1-0.1v-0.2l0.1-0.1v-0.2l0.1-0.1v-0.3h0.1v-0.3l0.1-0.1v-0.3h0.1v-0.4h0.1v-0.3l0.1-0.1v-0.1l0.1-0.1v-0.2h0.1v-0.2h0.1v-0.2l0.1-0.1v-0.1l0.1-0.1v-0.1h0.1v-0.1l0.1-0.1v-0.1l0.1-0.1v-0.1h0.1v-0.1l0.2-0.2v-0.1l0.3-0.3v-0.1h0.1v-0.1h0.1v-0.1l0.1-0.1v-0.1l0.1-0.1h0.1v-0.1l0.1-0.1v-0.1l0.1-0.1v-0.1h0.1v-0.1l0.1-0.1v-0.1h0.1v-0.1h0.1v-0.1l0.1-0.1v-0.1h0.1v-0.2h0.1v-0.1l0.2-0.2v-0.1h0.1v-0.1l0.1-0.1v-0.1h0.1v-0.1h0.1v-0.1l0.1-0.1v-0.1h0.1v-0.1l0.1-0.1v-0.1h0.1v-0.1l0.1-0.1v-0.1h0.1v-0.1h0.1v-0.2h0.1v-0.1h0.1v-0.1l0.1-0.1v-0.1h0.1v-0.1l0.2-0.2v-0.1l0.2-0.2v-0.1l0.2-0.2v-0.1l0.2-0.2v-0.1l0.2-0.2v-0.1l0.2-0.2v-0.1h0.1v-0.1h0.1v-0.2h0.1v-0.1l0.1-0.1v-0.1h0.1v-0.1h0.1v-0.1l0.1-0.1v-0.1l0.1-0.1v-0.1h0.1v-0.1l0.1-0.1v-0.1h0.1v-0.1h0.1v-0.2h0.1v-0.1l0.2-0.2v-0.1l0.1-0.1v-0.1h0.1v-0.2h0.1v-0.1l0.1-0.1v-0.1l0.1-0.1v-0.1l0.1-0.1v-0.1h0.1v-0.2h0.1v-0.2h0.1v-0.2h0.1v-0.2l0.2-0.2v-0.2l0.1-0.1v-0.1h0.1v-0.1l0.2-0.2v-0.1l0.3-0.3v-0.1l0.2-0.2v-0.1l0.2-0.2h0.1v-0.1l0.3-0.3v-0.1l0.5-0.5v-0.1l0.5-0.5v-0.1l0.1-0.1 0.1-0.2 0.2-0.2v-0.1l0.1-0.1h0.1l0.2-0.2v-0.1l0.5-0.5h0.1l0.6-0.6 0.2-0.1 0.1-0.1h0.1l0.1-0.1 0.2-0.1 0.6-0.6h0.2l0.9-0.9 0.1-0.2 0.3-0.3v-0.1l0.6-0.6h0.1v-0.1l0.4-0.4v-0.1l0.3-0.3v-0.1l0.1-0.1v-0.1l0.1-0.1v-0.1l0.1-0.1v-0.2l0.1-0.1v-3.1l0.1-0.1v-0.3l0.1-0.1v-0.1l0.2-0.2v-0.1l0.1-0.1 0.1-0.2 0.1-0.1h0.1l0.7-0.7h0.1l0.1-0.1 0.2-0.1 0.4-0.4h0.1l0.5-0.5 0.2-0.1 0.6-0.6v-0.1l0.2-0.2v-0.1l0.1-0.1v-0.3l0.1-0.1v-0.3l0.1-0.2v-0.9l0.1-0.1v-0.9l0.1-0.1v-0.9l0.1-0.1v-1.1l0.1-0.1v-0.8l0.1-0.1v-0.5l0.1-0.1v-0.4l0.1-0.1v-0.2l0.1-0.1v-0.2l0.1-0.1v-0.1l0.1-0.2v-0.1l0.1-0.1v-0.1l0.1-0.1v-0.1l0.1-0.1v-0.1l0.1-0.2v-0.1l0.2-0.2v-0.1l0.2-0.2v-0.1l0.3-0.3v-0.2l0.3-0.3v-0.1l0.4-0.4v-0.1l0.5-0.5v-0.1l0.3-0.3v-0.1l0.3-0.3v-0.1l0.2-0.2v-0.1l0.1-0.1h0.1l0.1-0.1v-0.1l0.3-0.3v-0.1l0.1-0.1 0.1-0.2 0.3-0.3v-0.1l0.1-0.1h0.1l0.1-0.1v-0.3l0.1-0.1 0.2-0.1 0.1-0.1v-0.1l0.6-0.6v-0.1l0.8-0.8v-0.1l0.2-0.2v-0.1l0.1-0.1v-0.1l0.1-0.1v-0.3l0.1-0.2v-0.4l0.1-0.1v-0.4l0.1-0.1v-0.5l0.1-0.1v-0.2l0.1-0.1v-0.1l0.1-0.1v-0.1l0.3-0.3v-0.1l0.4-0.4v-0.1l0.3-0.3v-0.1h0.1l0.1-0.1v-0.1l0.5-0.5v-0.1h0.1l0.1-0.1v-0.1l0.3-0.3v-0.1h0.1l0.1-0.1v-0.1h0.1l1.5-1.5h0.1v-0.1l0.1-0.1h0.1l0.1-0.1v-0.1h0.1l0.3-0.3h0.1v-0.1h0.1l0.1-0.1h0.1v-0.1l0.1-0.1h0.1l0.2-0.2h0.1l0.2-0.2h0.1l0.3-0.3h0.1l0.1-0.1h0.1l0.2-0.2h0.1l0.1-0.1h0.1l0.2-0.2h0.1l0.1-0.1h0.1l0.1-0.1h0.1l0.1-0.1v-0.1h0.1l0.1-0.1h0.1l0.1-0.1h0.1l0.1-0.1h0.1l0.2-0.2h0.1l0.1-0.1h0.1l0.2-0.2h0.1l0.1-0.1h0.1l0.1-0.1h0.1v-0.1l0.1-0.1h0.1l0.1-0.1h0.1l0.2-0.2h0.1l0.1-0.1h0.1l0.1-0.1h0.1l0.3-0.3h0.1l0.1-0.1h0.1l0.1-0.1h0.1l0.1-0.1h0.1l0.2-0.2h0.1l0.2-0.2h0.1l0.1-0.1h0.1v-0.1h0.1l0.1-0.1h0.1l0.1-0.1h0.1l0.2-0.2h0.1l0.1-0.1h0.1v-0.1h0.1l0.1-0.1h0.1l0.2-0.2h0.1l0.2-0.2h0.1l0.1-0.1h0.1l0.1-0.1h0.1l0.2-0.2h0.1l0.1-0.1v-0.1l0.1-0.1h0.1l0.3-0.3h0.1l0.4-0.4h0.1l0.3-0.3h0.1l0.7-0.7h0.1l0.1-0.1v-0.1l0.1-0.1h0.1l0.1-0.1v-0.1l0.5-0.5v-0.1l0.5-0.5v-0.1l0.1-0.1v-0.1l0.2-0.2v-0.1l0.1-0.1v-0.1l0.1-0.2v-0.1l0.1-0.1v-0.1l0.2-0.2v-0.1l0.1-0.1v-0.1l0.2-0.2v-0.2l0.1-0.1v-0.1l0.1-0.1v-0.2l0.1-0.1v-0.1l0.1-0.2v-0.1l0.1-0.1v-0.1l0.9-0.9v-0.1l1-1h0.1v-0.1l0.3-0.3 0.1-0.2 0.2-0.2v-0.1l0.3-0.3v-0.1l1.6-1.6 0.2-0.1 0.1-0.2 0.2-0.2 0.2-0.1 0.2-0.2v-0.2l0.3-0.3h0.1l0.1-0.1v-0.1h0.1v-0.2h0.1l0.1-0.1v-0.1h0.1v-0.1h0.2l0.1 0.1h0.1l0.8 0.8 0.1 0.2 0.3 0.3h0.4l0.2-0.1h0.1l0.1-0.1 0.2-0.1h0.1l0.2-0.1 0.1-0.1 0.2-0.1h0.2l0.2-0.1 0.1-0.1 0.2-0.1h0.1l0.2-0.1h0.1l0.2-0.1h0.1l0.1-0.1h0.3l0.1-0.1h0.1l0.1 0.1h0.1l0.1 0.1v0.3l-0.1 0.1v0.4l0.1 0.1v0.1h0.5v0.1l0.2 0.2"/></g></svg>
