<svg width="400" height="400" version="1.1" viewBox="0 0 400 400" xmlns="http://www.w3.org/2000/svg" xmlns:xlink="http://www.w3.org/1999/xlink"><desc>Produced by GNUPLOT 4.4 patchlevel 0</desc><g fill="none" stroke="currentColor"><g color="gray"><path d="m81.5 336h301" stroke="#efefef"/></g><g color="black"><path d="m81.5 336h7.5m293 0h-7.5"/><g transform="translate(74.5 339)" fill="#000" font-family="Georgia" font-size="10pt" stroke="none" text-anchor="end"><text><tspan>0</tspan></text></g></g><g color="gray"><path d="m81.5 305h301" stroke="#efefef"/></g><g color="black"><path d="m81.5 305h7.5m293 0h-7.5"/><g transform="translate(74.5 309)" fill="#000" font-family="Georgia" font-size="10pt" stroke="none" text-anchor="end"><text><tspan>2000</tspan></text></g></g><g color="gray"><path d="m81.5 274h301" stroke="#efefef"/></g><g color="black"><path d="m81.5 274h7.5m293 0h-7.5"/><g transform="translate(74.5 278)" fill="#000" font-family="Georgia" font-size="10pt" stroke="none" text-anchor="end"><text><tspan>4000</tspan></text></g></g><g color="gray"><path d="m81.5 244h301" stroke="#efefef"/></g><g color="black"><path d="m81.5 244h7.5m293 0h-7.5"/><g transform="translate(74.5 247)" fill="#000" font-family="Georgia" font-size="10pt" stroke="none" text-anchor="end"><text><tspan>6000</tspan></text></g></g><g color="gray"><path d="m81.5 213h301" stroke="#efefef"/></g><g color="black"><path d="m81.5 213h7.5m293 0h-7.5"/><g transform="translate(74.5 217)" fill="#000" font-family="Georgia" font-size="10pt" stroke="none" text-anchor="end"><text><tspan>8000</tspan></text></g></g><g color="gray"><path d="m81.5 182h301" stroke="#efefef"/></g><g color="black"><path d="m81.5 182h7.5m293 0h-7.5"/><g transform="translate(74.5 186)" fill="#000" font-family="Georgia" font-size="10pt" stroke="none" text-anchor="end"><text><tspan>10000</tspan></text></g></g><g color="gray"><path d="m81.5 152h301" stroke="#efefef"/></g><g color="black"><path d="m81.5 152h7.5m293 0h-7.5"/><g transform="translate(74.5 156)" fill="#000" font-family="Georgia" font-size="10pt" stroke="none" text-anchor="end"><text><tspan>12000</tspan></text></g></g><g color="gray"><path d="m81.5 121h301" stroke="#efefef"/></g><g color="black"><path d="m81.5 121h7.5m293 0h-7.5"/><g transform="translate(74.5 125)" fill="#000" font-family="Georgia" font-size="10pt" stroke="none" text-anchor="end"><text><tspan>14000</tspan></text></g></g><g color="gray"><path d="m81.5 90.7h301" stroke="#efefef"/></g><g color="black"><path d="m81.5 90.7h7.5m293 0h-7.5"/><g transform="translate(74.5,94.4)" fill="#000" font-family="Georgia" font-size="10pt" stroke="none" text-anchor="end"><text><tspan>16000</tspan></text></g></g><g color="gray"><path d="m81.5 60.1h301" stroke="#efefef"/></g><g color="black"><path d="m81.5 60.1h7.5m293 0h-7.5"/><g transform="translate(74.5,63.8)" fill="#000" font-family="Georgia" font-size="10pt" stroke="none" text-anchor="end"><text><tspan>18000</tspan></text></g></g><g color="gray"><path d="m81.5 336v-275" stroke="#efefef"/></g><g color="black"><path d="m81.5 336v7.5"/><g transform="translate(85.2 388) rotate(-90)" fill="#000" font-family="Georgia" font-size="10pt" stroke="none"><text><tspan>Aug 28</tspan></text></g></g><g color="gray"><path d="m157 336v-275" stroke="#efefef"/></g><g color="black"><path d="m157 336v7.5"/><g transform="translate(160 388) rotate(-90)" fill="#000" font-family="Georgia" font-size="10pt" stroke="none"><text><tspan>Sep 04</tspan></text></g></g><g color="gray"><path d="m232 336v-275" stroke="#efefef"/></g><g color="black"><path d="m232 336v7.5"/><g transform="translate(236 388) rotate(-90)" fill="#000" font-family="Georgia" font-size="10pt" stroke="none"><text><tspan>Sep 11</tspan></text></g></g><g color="gray"><path d="m307 336v-275" stroke="#efefef"/></g><g color="black"><path d="m307 336v7.5"/><g transform="translate(311 388) rotate(-90)" fill="#000" font-family="Georgia" font-size="10pt" stroke="none"><text><tspan>Sep 18</tspan></text></g></g><g color="gray"><path d="m382 336v-275" stroke="#efefef"/></g><g color="black"><path d="m382 336v7.5"/><g transform="translate(386 388) rotate(-90)" fill="#000" font-family="Georgia" font-size="10pt" stroke="none"><text><tspan>Sep 25</tspan></text></g><path d="m81.5 60.1v275h301v-275h-301z"/><g fill="#000" font-family="Georgia" stroke="none" text-anchor="middle"><g transform="translate(21.7 198) rotate(-90)" font-size="10pt"><text><tspan>Donations in $</tspan></text></g><g transform="translate(232 26.3)" font-size="12pt"><text><tspan>“Rails 3: Appreciate with Charity”</tspan></text></g><g transform="translate(232 41.3)" font-size="12pt"><text><tspan>dontations per day</tspan></text></g></g></g></g><a xlink:title="Plot #1"><g color="red" fill="none" stroke="currentColor"><g fill="#449fd8" shape-rendering="crispEdges" stroke="none"><polygon points="97.6 336 108 336 108 74.8 97.6 74.8"/><polygon points="108 336 119 336 119 208 108 208"/><polygon points="119 336 130 336 130 315 119 315"/><polygon points="130 336 141 336 141 315 130 315"/><polygon points="141 336 152 336 152 316 141 316"/><polygon points="151 336 162 336 162 332 151 332"/><polygon points="162 336 173 336 173 334 162 334"/><polygon points="173 336 184 336 184 330 173 330"/><polygon points="184 336 194 336 194 288 184 288"/><polygon points="194 336 205 336 205 332 194 332"/><polygon points="205 336 216 336 216 322 205 322"/><polygon points="216 336 227 336 227 334 216 334"/><polygon points="227 336 248 336 248 327 227 327"/><polygon points="248 336 270 336 270 334 248 334"/><polygon points="270 336 280 336 280 320 270 320"/><polygon points="280 336 296 336 296 332 280 332"/><polygon points="296 336 323 336 323 334 296 334"/><polygon points="323 336 356 336 356 326 323 326"/></g></g></a><g color="black" fill="none" stroke="currentColor"><path d="m81.5 60.1v275h301v-275h-301z"/></g></svg>
