<svg xmlns="http://www.w3.org/2000/svg" width="327.922" height="435.153"><defs><clipPath id="b" clipPathUnits="userSpaceOnUse"><path d="M0 1872h1404V0H0Z"/></clipPath><clipPath id="c" clipPathUnits="userSpaceOnUse"><path d="M0 1872h1404V0H0Z"/></clipPath><clipPath id="d" clipPathUnits="userSpaceOnUse"><path d="M0 1872h1404V0H0Z"/></clipPath><clipPath id="a" clipPathUnits="userSpaceOnUse"><rect width="332.328" height="439.894" x="220.74" y="-1345.613" ry="0" style="display:inline;opacity:.27;fill:#024" transform="scale(1 -1)"/></clipPath></defs><g clip-path="url(#a)" style="display:inline" transform="matrix(1 0 0 -1 -222.42 1342.975)"><path d="M276 1148.5c-.26 0-.5.24-.5.5s.24.5.5.5.5-.24.5-.5-.24-.5-.5-.5m-4-2c-.26 0-.5.24-.5.5s.24.5.5.5.5-.24.5-.5-.24-.5-.5-.5m97-75.5 1-2-1 1zm-72-183.5c-.26 0-.5.24-.5.5s.24.5.5.5.5-.24.5-.5-.24-.5-.5-.5m1-2c-.26 0-.5.24-.5.5s.24.5.5.5.5-.24.5-.5-.24-.5-.5-.5m1-1.5 2-1h-1zm4.407-8.169c-.776 1.242-2.18 4.48-1.857 4.769.376.337 1.441-.494 2.045-1.447.762-1.204 2.19-4.467 1.859-4.784-.379-.361-1.439.489-2.047 1.462m7.368-3.948c-.513.26-.591.45-.345 1.13 9.168 30.098 15.986 52.32 22.867 78.255 45.336 133.444 23.495 72.273 43.136 120.645-.383 1.998-3.094 4.94-4.803 6.397-34.259 21.565-60.392 43.748-93.03 71.64 6.471 5.192 16.98 16.176 25.396 22.266 12.86-8.876 22.477-18.751 35.226-28.276 6.824-5.809 16.142-15.783 24.06-22.43 14.02-11.769 27.774-21.361 42.036-33.396 2.339-2.052 4.802-4.62 5.05-6.995.238-1.609.272-3.638-.198-5.228-2.688-9.089-5.67-17.512-8.788-26.07l-4.943-9.006c-2.606-5.863-4.85-11.896-7.023-17.963-6.565-18.336-11.488-37.767-17.673-55.985l-10.898-27.99c-7.356-24.356-16.343-48.59-24.527-73.15-.31-.616-.548-.849-1.21-.958z" clip-path="url(#b)" style="display:inline;fill:#c9c9c9;fill-opacity:1;fill-rule:nonzero;stroke:none" transform="matrix(1.33333 0 0 -1.33333 0 2496)"/><path d="m273 1147 1-2-1 1zm-5.928-193.218c-17.64 26.648-33.956 53.297-50.635 80.032-3.727 5.866-6.211 12.843-8.108 17.967 10.717 1.609 24.002 3.378 35.67 6.482 1.335.221 2.985.41 4.023-.293 6.984-12.133 9.628-25.262 16.947-37.826l1.864-8.9c.623-1.287 2.105-2.596 3.168-2.601 1.066 0 2.539 1.297 3.155 2.553.732 1.49.655 4.131.296 5.68-6.456 13.736-12.222 28.318-17.55 42.24 1.936 3.037 8.993 1.247 12.97 4.05l16.907 2.674c.927.449 1.96 1.423 2.375 2.299.265.56.287 1.154.024 1.7-.59 1.228-2.007 1.702-3.216 1.658-8.124-2.37-16.414-3.824-25.117-5.692-1.47-.215-3.967-.451-4.742.337-1.19 2.815 1.332 7.67 2.355 11.016l7.79 12.938c.403 1.173.469 2.608-.082 3.7-.612 1.214-1.947 1.873-3.076 1.659-.892-.17-1.68-.865-2.392-1.84-2.898-3.96-5.53-8.574-7.917-12.814l-3.481-10.07-3.468-2.98-.88-4.605c-8.597-2.28-18.874-3.782-27.888-5.51-2.785-.242-6.146-.731-9.058-.593-1.03.049-1.868.727-1.943 1.777 2.023 3.448 5.656 8.207 8.785 12.449l26.638 28.01c9.266 12.061 18.708 23.897 28.545 35.27 6.322-11.053 9.338-26.203 14.901-38.296.805-1.37 1.913-2.432 3.169-2.718 1.452-.35 3.154.135 4.382 1.696.706.924.77 1.728.363 2.6-1.058 2.26-3.712 4.098-4.86 7-1.595 4.025-11.936 38.674-12.535 38.659l92.802-71.453c.88-.886 1.57-1.838 1.659-2.977.124-1.595-.712-3.051-1.763-3.267-13.42 1.17-26.984 2.253-40.295 3.77-5.461.308-11.245.271-16.707 0-1.284-.064-2.708-.472-3.322-1.72a1.93 1.93 0 0 1 0-1.685c.434-.881 1.394-1.43 2.37-1.624 9.961.456 20.04-1.106 29.869-1.155 7.078-.63 15.148-1.05 22.233-2.245 1.799-.624 4.917-.413 4.428-1.986-18.418-55.722-37.108-113.946-55.858-168.704-.823.056-2.23 8.748-2.285 10.505-.686 12.96 1.646 25.92.98 38.88l-.999 4.99c-.022 22.363 1.08 44.62-.831 67.035-.567 7.247.745 16.314 1.167 23.198l1.598 6.91c.037.945-.166 1.886-.91 2.634-.538.54-.997.725-1.682.871-1.419.316-3.287-.08-4.084-1.71-2.282-11.105-.9-22.422-2.362-33.61l.977-4.966c-.727-35.375 1.149-70.75 1.021-106.124l1.262-9.57c.695.465-33.063 58.182-36.647 64.295m64.827 130.265c-.37 1.643-2.705 4.275-3.72 5.786-2.946 4.386-7.329 9.692-11.459 13.788-1.762 1.748-3.189 2.385-4.825 2.908-1.53.468-3.312 1.261-4.493.057-.698-.68-.794-1.623-.568-2.526.232-.927.773-1.794 1.638-2.629 7.71-6.524 14.663-13.287 20.775-19.557.724-.443 1.543-.259 2.184.508.386.462.608 1.045.468 1.666m-86.807-63.895c.363.881.089 1.787-.386 2.729-2.423 3.446-6.746 10.123-9.51 11.08-1.016-.232-1.04-3.351-.32-4.828 1.347-2.77 5.082-8.185 6.525-9.714.72-.764 1.599-1.005 2.43-.606.49.235 1.055.838 1.261 1.339m42.153-66.09c.01 1.177-.754 2.591-1.462 3.783-4.722 7.943-9.083 16.226-14.332 22.974-5.626 5.224-7.2 10.95-11.143 13.126-1.115-.828.258-4.525 1.123-6.804 2.922-6.227 7.412-12.997 10.926-18.99 2.876-4.903 6.02-10.147 10.08-14.772 1.163-1.323 2.243-2.118 3.398-1.57.859.408 1.402 1.337 1.41 2.254" clip-path="url(#c)" style="display:inline;fill:#9d9d9d;fill-opacity:1;fill-rule:nonzero;stroke:none" transform="matrix(1.33333 0 0 -1.33333 0 2496)"/><path d="M389.835 1167.216c-.657.425-.925.872-1.047 1.584-1 5.852-1.288 13.266-1.296 19.383-.092 1.362.127 2.97 1.483 2.95.966.017 1.85-.84 2.517-1.892 1.148-1.815 2.378-5.009 2.834-7.06.827-3.722 1.385-8.283 1.111-12.282.057-1.4-.814-2.993-2.385-3.212-1.065-.236-2.378-.015-3.217.529m20.259-11.665c-2.834-.199-7.678.384-10.31 1.16-.65.193-1.173.5-1.537 1.198a2.68 2.68 0 0 0-.114 2.201c.469 1.202 1.665 1.94 2.738 2.198 1.265.303 3 .282 4.243.018 1.708-.363 4.793-1.612 6.089-2.402.991-.605 1.798-1.842 1.485-2.912-.329-1.124-1.556-1.388-2.594-1.461m-44.82 2.577c.421.691.819.937 1.544 1.135 2.52.687 5.814-.31 8.465-.831 1.076-.213 2.206-.483 2.456-1.499s-.59-1.898-1.573-2.364c-2.52-1.194-5.38-1.233-8.111-1.605-.766-.105-1.536-.063-2.168.298-.692.396-1.002.952-1.154 1.666-.207.968.028 2.356.542 3.2m-171.425-12.912c-.957.61-1.159 1.486-1.23 2.58-.432 6.624-.47 12.778.074 19.485.086 1.053.29 1.8 1.364 1.74 1.039-.058 1.905-.858 2.346-1.776 1.004-2.094 2.64-5.802 2.98-8.149.483-3.345.883-8.973-.065-12.284-.31-1.08-1.086-1.864-2.263-2.121-1.063-.233-2.367-.01-3.206.525m-26.03-7.028c.97.992 2.047 1.177 3.101 1.073a35.8 35.8 0 0 0 7.313-1.54c1.083-.351 2.291-.833 2.514-1.785.305-1.289-1.249-3.05-2.57-3.223-2.127-.556-5.095-.273-7.278-.146-1.051.06-2.143.27-3.093 1.255-.655.678-.995 1.316-.993 2.18.002.858.344 1.509 1.006 2.186m34.987-1.004c.954.973 2.044 1.19 3.103 1.253 1.79.107 4.535.496 6.318-.512 1.106-.625 1.887-1.766 1.823-2.973-.065-1.217-.908-1.92-1.845-2.21-1.773-.548-4.3-.942-6.228-1.114-.983-.088-2.215-.129-3.098.474-.644.439-1.03 1.07-1.175 1.822-.218 1.131.19 2.33 1.102 3.26m185.32-9.335c-1.253 7.082-.479 14.3-.47 21.44.076 1.038.282 1.734 1.354 1.944 1.364.29 2.837-.556 3.087-1.943.808-2.646 1.243-6.592 1.338-9.307.115-3.296.835-8.09-.109-11.203-.26-1.248-1.783-2.164-3.346-2-.782.093-1.38.407-1.854 1.07m-193.37-21.11q-.9 6.055-1.802 12.11c-.38 2.011.093 7.651.782 9.343.25.616.63.93 1.261.92 1.18-.019 2.952-3.244 3.333-4.946 1.07-4.796 2.45-10.202 2.936-15.26.1-1.05-.097-2.127-1.1-3.1-.678-.658-1.328-.968-2.16-1.06-1.536-.155-3.05.747-3.25 1.993m53.138-179.023c-1.164.28-1.897.994-2.192 2.073-.567 2.07-1.817 6.621-1.863 9.247-.025 1.37.956 3.388 2.08 3.723 1.936.129 3.496-2.991 5.045-4.72.742-1.252 1.677-4.11 2.202-6 .29-1.043.197-2.285-.385-3.185-.44-.682-.876-.927-1.627-1.12-.924-.238-2.246-.262-3.26-.018m-10.8-13.166c-2.644-.174-5.6.577-8.242 1.472-1.295.438-3.02 1.12-4.098 2.11-.841.773-1.253 1.81-1.038 2.923.218 1.13 1 1.762 2.095 2.096a5.67 5.67 0 0 0 3.245.008c3.173-.968 7.511-2.156 10.016-4.27.78-.658 1.254-1.86.748-2.928-.52-1.095-1.675-1.342-2.726-1.411m29.963-1.685c-2.786.141-7.807 1.736-10.3 3.195-.617.36-1.393 1.086-1.7 1.782-.334.756-.298 1.622.04 2.232.601 1.079 1.762 1.292 2.824 1.362 1.624.106 3.661.239 5.257-.322 1.686-.594 3.623-2.291 5.142-4.02.945-1.076 1.702-2.155 1.403-3.018-.31-.893-1.57-1.266-2.666-1.21m-26.285-31.025.788 11.027-.957 5.076c.052 1.945.483 5.672 1.131 7.247.256.62.608.927 1.286.933.999.008 1.605-.811 1.932-1.803.793-2.403 2.335-7.441 2.484-10.19.196-3.61.833-8.772-.144-12.317-.234-1.45-1.871-2.384-3.374-2.216-1.592.076-2.91.858-3.146 2.243m65.667-8.1c-5.436 10.403-11.38 20.72-18.431 31.044l-8.394 17.99c-4.792 7.418-10.86 14.71-16.524 22.976-7.76 11.325-16.36 24.268-24.072 37.018-10.096 16.69-20.73 33.847-31.012 51.02-3.57 6.415-5.171 12.435-9.74 19.16 1.079 5.063 5.308 6.719 5.89 11.101 7.124 10.471 12.417 18.105 19.694 28.221 8.032 9.645 14.335 16.693 22.367 26.032l4.325 3.156c4.572 5.75 9.266 10.579 14.055 15.873l4.312 7.008c4.271 1.879 3.974 3.447 8.083 4.713 1.716.073 3.616-1.002 5.231-2.122 31.066-24.55 59.79-45.348 89.898-69.011 1.457-1.354 3.843-3.872 4.2-5.834-19.377-64.43-41.475-128.2-62.591-192.255-.558-1.644-1.256-3.412-2.357-5.155-.661-1.048-1.27-1.776-2.37-1.97-1.094-.192-1.963.223-2.564 1.034M274 1143.473l.527.527-.527.527-.527-.527zm91.928-83.93c-.379 1.19-3.466 1.612-5.013 1.85-6.954 1.07-14.73 1.488-21.973 2.121-10.048.109-20.197 1.586-30.18 1.236-.626.177-1.16.47-1.514 1.163-.32.628-.385 1.468-.08 2.122.51 1.094 1.644 1.328 2.686 1.402 5.603.4 11.682.308 17.292 0 13.258-1.556 26.654-2.566 39.564-3.808.677.069 1.003.252 1.424.79.644.822 1.219 2.518 1.137 3.502-28.696 23.628-63.77 48.993-93.995 72.835-1.63-.494.105-4.482.574-6.652 3.432-10.205 7.07-21.23 10.933-30.935 1.082-2.716 3.834-4.537 4.912-7.087.44-1.04.368-2.225-.53-3.227-1.145-1.282-2.932-1.484-4.263-1.17-1.124.265-1.973.971-2.664 2.055-5.068 11.235-7.56 22.089-12.01 33.07-.992 2-1.78 5.475-3.262 5.873-9.422-11.322-19.4-23.53-28.822-35.96L214.4 1071.73c-3.794-4.594-7.239-9.794-9.428-12.76-.016-1.101 1.12-2.018 2.092-1.987 2.507.08 5.982.278 8.857.518 9.286 1.67 18.85 3.3 27.684 5.285 1.627.907.388 3.773 1.418 5.246l3.126 2.416c1.68 2.521 1.687 6.902 3.159 9.704 2.36 4.491 5.486 8.975 8.272 13.247.667 1.022 1.31 1.742 2.432 1.844 1.063.097 2.29-.386 2.866-1.186.728-1.012.663-2.868.272-4.144l-8.397-14.052c-.618-1.878-1.772-4.903-2.163-6.887-.22-1.112.147-2.629.954-3.192.976-.683 3.081-.41 4.458-.173 7.908 2.065 15.791 2.823 24.053 5.804 1.33.116 3.16-.117 3.853-1.374.321-.581.345-1.419.015-2.17-.537-1.222-1.712-1.932-2.738-2.18-8.113-1.958-16.844-2.635-24.877-4.4-1.765-.507-4.613-.789-4.714-2.412 5.77-13.41 10.968-27.893 17.733-41.752.322-1.508.343-3.74-.014-5.264-.246-1.046-.96-2.251-2.155-2.798a2.82 2.82 0 0 0-2.311-.01c-.695.312-1.426 1.074-1.771 1.684l-1.943 9.113c-7.31 12.542-10.254 26.782-17.445 38.292-1.072.634-2.488.44-3.686.239-11.585-3.508-25.863-4.282-35.868-6.826 1.917-5.345 4.385-11.65 8.06-17.372 16.656-26.601 32.94-53.283 50.623-79.969 11.144-21.214 25.73-44.238 36.184-63.967-1.222 38.85-.772 83.144-2.437 124.85 2.265 9.548-.187 18.665 2.148 28.118.304 1.06 1.052 1.835 2.236 2.094 1.425.31 3.223-.154 3.954-1.232-.773-10.943-1.173-21.6-2.274-31.936 1.862-22.25.79-44.648.81-66.964l1.002-5.005c.626-13.333-1.688-26.667-1-40 .556-3.358.461-8.463 2.587-9.819 18.917 54.538 37.938 113.576 55.902 169.186M304 888.473l.527.527-.527.527-.527-.527z" clip-path="url(#d)" style="display:inline;fill:#000;fill-opacity:1;fill-rule:nonzero;stroke:none" transform="matrix(1.33333 0 0 -1.33333 0 2496)"/></g></svg>