<svg fill-rule="evenodd" height="8.47mm" preserveAspectRatio="xMidYMid" stroke-linejoin="round" stroke-width="28.222" viewBox="0 0 847 847" width="8.47mm" xmlns="http://www.w3.org/2000/svg" xmlns:xlink="http://www.w3.org/1999/xlink"><clipPath id="a"><path d="m0 0h847v847h-847z"/></clipPath><g clip-path="url(#a)" fill="none"><path d="m176 70h73v496h-73z"/><path d="m212 106v423" stroke="#676767" stroke-linejoin="round" stroke-width="71"/><path d="m493 70h286v286h-286z"/><path d="m742 212c0 20-5 37-15 53-9 17-22 30-39 39-16 10-33 15-53 15-19 0-36-5-53-15-17-9-29-22-39-39-10-16-14-33-14-53 0-19 4-36 14-53s22-29 39-39 34-14 53-14c20 0 37 4 53 14 17 10 30 22 39 39 10 17 15 34 15 53z" stroke="#676767" stroke-linejoin="round" stroke-width="71"/><path d="m70 493h286v286h-286z"/><path d="m319 635c0 20-5 37-15 53-9 17-22 30-39 39-16 10-33 15-53 15-19 0-36-5-53-15-17-9-29-22-39-39-10-16-14-33-14-53 0-19 4-36 14-53s22-29 39-39 34-14 53-14c20 0 37 4 53 14 17 10 30 22 39 39 10 17 15 34 15 53z" stroke="#676767" stroke-linejoin="round" stroke-width="71"/><path d="m282 282h391v391h-391z"/><path d="m636 318c0 59-13 108-42 159s-66 88-117 117-100 42-159 42" stroke="#676767" stroke-linejoin="round" stroke-width="71"/></g></svg>