<svg xmlns="http://www.w3.org/2000/svg" width="209.121" height="127.205" xmlns:v="https://vecta.io/nano"><path d="M25.45 74.102c5.464-2.2 10.06-2.84 13.804-1.917 3.76.906 6.466 3.398 8.126 7.488.897 2.253 1.276 4.33 1.136 6.245-.143 1.9-.78 3.647-1.917 5.253-1.117 1.587-2.662 3.043-4.65 4.365-1.987 1.33-4.347 2.546-7.06 3.654l-4.33 1.74 5.784 14.37-5.43 2.164-15.4-38.254c1.374-.992 2.98-1.926 4.826-2.803a87.09 87.09 0 0 1 5.11-2.307zm2.378 4.613c-2.344.95-4.1 1.72-5.3 2.307l6.14 15.26 4.08-1.67c1.892-.754 3.532-1.56 4.933-2.412 1.394-.852 2.485-1.758 3.266-2.732.797-.995 1.276-2.103 1.42-3.336.16-1.224-.07-2.625-.7-4.188-.62-1.508-1.4-2.634-2.378-3.37a7.27 7.27 0 0 0-3.3-1.385c-1.233-.186-2.546-.114-3.938.213a28.75 28.75 0 0 0-4.222 1.313zM88.03 94.472l-3.795-4.224-3.727-4.256-17.565 7.06.46 11.355-5.644 2.27-.425-13.06-.143-11.498c-.018-3.663.018-7.168.107-10.504a234.26 234.26 0 0 1 .427-10.04l5.003-2.024a265.37 265.37 0 0 1 7.238 6.954 303.54 303.54 0 0 1 7.347 7.488 376.35 376.35 0 0 1 7.842 8.41l8.8 9.688zM77.17 82.158l-7.415-8.02a169.13 169.13 0 0 0-7.17-7.274c-.168 3.318-.23 6.73-.177 10.254l.284 10.858zm6.335-31.014l5.43-2.164 15.648 38.82-5.428 2.167zm54.762.513c1.367 3.363 2.033 6.486 2 9.368-.055 2.893-.702 5.537-1.953 7.95-1.26 2.396-3.043 4.526-5.357 6.4-2.326 1.844-5.067 3.407-8.233 4.683l-5.287 1.917c-1.944.622-3.754 1.047-5.43 1.28l-15.154-37.62c1.376-.992 2.982-1.926 4.826-2.803l5.1-2.307c3.168-1.276 6.227-2.04 9.2-2.307 2.982-.257 5.748.036 8.303.888s4.844 2.323 6.884 4.4c2.06 2.085 3.763 4.808 5.1 8.16zm-15 23.492c5.155-2.076 8.464-4.942 9.936-8.587 1.465-3.663 1.242-7.86-.675-12.598-1.9-4.756-4.64-7.93-8.233-9.545-3.602-1.606-7.974-1.367-13.13.7l-3.55 1.492-1.737.815 11.957 29.7 1.8-.604c.87-.3 2.076-.76 3.62-1.383z" fill="#31572c"/><path d="M165.76 4.896c-10.442 3.266-18.028 11.498-21.24 21.07-4.283 12.757-.94 28.3 12.36 37.64 13.297 9.332 29.063 7.204 39.6-1.154C207.04 54.1 212.7 39.22 206.63 24.14l-1.01-2.5c-.763-1.88-2.902-2.796-4.792-2.033-1.88.754-2.793 2.9-2.04 4.783l1.02 2.52c4.87 12.11.41 23.2-7.894 29.78-8.305 6.593-20.122 8.4-30.803.906-10.68-7.506-12.988-19.243-9.616-29.286 3.38-10.043 12.296-18 25.345-17.53 2.024.073 3.734-1.517 3.806-3.547.07-2.024-1.517-3.736-3.54-3.806-4.063-.15-7.87.39-11.346 1.48z" fill="#4f772d"/><path d="M193.154.222c-.956.345-1.728 1.08-2.128 2.02l-14.84 34.936-8.1-3.44c-1.87-.8-4.036.07-4.835 1.942s.082 4.03 1.944 4.826l11.496 4.887c1.874.8 4.03-.08 4.826-1.95L197.803 5.11c.8-1.862-.08-4.027-1.95-4.817a3.68 3.68 0 0 0-2.698-.07z" fill="#31572c"/><path d="M20.678 63.254C3.76 70.076-4.41 89.29 2.402 106.21l.134.318c6.813 16.92 26.03 25.09 42.946 18.275l127.81-51.515c-3.21 0-6.457-.452-9.686-1.394l-119.96 48.342c-14.478 5.837-30.72-1.074-36.548-15.552l-.125-.31a27.97 27.97 0 0 1 15.543-36.558L142.42 19.5c1.578-2.766 3.53-5.348 5.81-7.638z" fill="#4f772d"/></svg>