<?xml version="1.0" encoding="UTF-8" standalone="no"?>
<!-- Created with Inkscape (http://www.inkscape.org/) -->

<svg
   version="1.1"
   id="svg1"
   width="663.90125"
   height="479.05078"
   viewBox="0 0 663.90125 479.05078"
   xmlns="http://www.w3.org/2000/svg"
   xmlns:svg="http://www.w3.org/2000/svg">
  <defs
     id="defs1">
    <clipPath
       clipPathUnits="userSpaceOnUse"
       id="clipPath2">
      <path
         d="M 0,0 H 1404 V 1872 H 0 Z"
         transform="matrix(1,0,0,-1,0,1872)"
         id="path2" />
    </clipPath>
    <clipPath
       clipPathUnits="userSpaceOnUse"
       id="clipPath3">
      <path
         d="M 0,0 H 1404 V 1872 H 0 Z"
         transform="matrix(1,0,0,-1,0,1872)"
         id="path3" />
    </clipPath>
    <clipPath
       clipPathUnits="userSpaceOnUse"
       id="clipPath4">
      <path
         d="M 0,0 H 1404 V 1872 H 0 Z"
         transform="matrix(1,0,0,-1,0,1872)"
         id="path4" />
    </clipPath>
  </defs>
  <g
     id="1 - Annotations"
     transform="matrix(1,0,0,-1,-661.98822,1851.2493)">
    <g
       id="g7"
       style="display:inline">
      <path
         d="m 541.63817,697.17386 c 86.3263,-0.38029 243.4438,10.76857 243.7463,7.3697 -0.82432,-4.4861 -3.3504,-11.80603 -2.48353,-16.44152 1.39599,-5.49098 4.88713,-11.42212 7.73153,-16.56348 3.8872,-4.9943 8.86826,-11.6088 13.81259,-16.0513 6.57911,-5.5779 16.43131,-11.2759 23.98511,-17.0276 1.0281,-0.78292 1.37504,-1.34568 1.17059,-2.458 -2.04995,-11.1529 -22.45121,-35.05659 -36.62551,-41.23404 -30.68093,29.67396 -49.63222,56.97026 -56.9039,71.12394 -3.31772,3.26306 -8.24114,13.03011 -11.32138,7.4485 -8.00628,-14.50793 -10.08752,-22.30241 -13.58591,-35.4839 -2.36799,-7.7435 -6.33889,-16.0856 -10.04352,-23.0642 -6.9364,-11.8419 -11.59618,-25.3885 -17.22387,-37.07233 -5.26519,-3.99027 -9.24957,-13.62093 -17.0957,-26.57309 -1.41782,-6.23121 -6.14478,-17.72014 -11.86604,-14.47828 -7.87816,7.46879 -19.88206,22.053 -28.19776,28.7825 -7.1834,7.86308 -17.5356,19.3379 -23.9622,27.6128 -21.76399,20.81068 -35.38415,38.43318 -54.3302,63.2667 -5.5613,6.6246 -16.5657,17.3239 -18.2502,36.31357"
         style="display:inline;fill:#c9c9c9;fill-opacity:1;fill-rule:nonzero;stroke:none"
         transform="matrix(1.3333333,0,0,-1.3333333,0,2496)"
         clip-path="url(#clipPath2)"
         id="path5" />
      <path
         d="m 959.31848,832.9106 c 4.22714,4.37993 19.82382,4.57395 22.39071,1.35627 0.42024,-0.52675 7.67246,-8.41243 7.35687,-14.18878 -0.0215,-8.30238 -40.90737,-42.18722 -59.08216,-58.04299 -6.5067,-8.5575 -22.57491,-21.5271 -29.2965,-28.3489 -0.90353,-0.7065 -16.6189,7.7452 -20.6212,14.1347"
         style="display:inline;fill:#9d9d9d;fill-opacity:1;fill-rule:nonzero;stroke:none"
         transform="matrix(1.3333333,0,0,-1.3333333,0,2496)"
         clip-path="url(#clipPath3)"
         id="path6" />
      <path
         d="m 854.90927,725.0288 c 4.6629,-0.1924 9.32573,-0.385 13.98863,-0.5774 1.9991,0.64299 3.9982,1.2859 5.9973,1.929 3.4485,-0.0982 6.8004,0.6274 10.338,-0.44312 1.0991,-0.62578 1.89909,-1.76518 2.02409,-2.93188 0.15259,-1.54053 -0.75429,-3.05494 -2.02362,-3.2554 -5.18341,-1.4038 -14.89588,-2.41062 -20.27467,-2.1189 -2.5874,0.1404 -7.8931,1.125 -10.2126,2.4419 -1.04191,0.59158 -1.9507,1.7803 -1.923,2.896 0.0282,1.13417 0.97967,1.8733 2.08587,2.0598 m -19.81557,-7.17013 c -2.3514,0.74182 -4.7027,1.48363 -7.0541,2.22533 -1.6754,-0.2527 -3.33944,-0.9005 -5.24392,-0.3142 -1.06418,0.3276 -1.93402,1.06067 -1.95288,2.18286 -0.0184,1.09664 0.82226,1.94884 1.8714,2.76484 1.49389,1.16216 2.78357,1.65838 4.2182,1.73248 3.5752,0.18442 6.8181,-0.96388 10.2393,-2.13501 0.9858,-0.33741 1.77297,-1.0564 1.62148,-2.30767 -0.46488,-1.84101 -2.2367,-4.1977 -3.69948,-4.14863 m -23.23912,-7.56201 c 3.26599,0.67174 6.18582,-1.25537 9.10562,-1.54956 1.9781,0.82519 3.9562,1.6506 5.9343,2.4758 2.19397,0.5498 4.9645,0.3734 7.2183,0.2434 1.6815,-0.6377 3.36299,-1.2754 5.0445,-1.9131 2.96736,0.10539 5.93477,0.2107 8.9021,0.31597 2.9899,-0.77259 5.9799,-1.54517 8.96986,-2.31787 2.86744,-0.2337 8.07014,-0.31714 10.82824,0.0652 1.71418,0.60692 3.4283,1.21362 5.1425,1.82052 5.50338,-0.002 10.9768,-0.6006 16.0798,-1.05734 2.0421,-0.18286 5.15649,-0.70536 7.14306,-1.77587 0.96772,-0.52149 1.7887,-1.4917 1.46664,-2.58692 -0.3358,-1.14237 -1.5025,-1.38187 -2.5176,-1.45757 -6.6667,0.3333 -13.33331,0.66668 -20,1 -6.6416,-1.10383 -13.50433,-2.26863 -20.1899,-2.228 -8.27622,2.12637 -16.9447,1.7009 -24.8291,3.8816 -1.90971,0.1931 -2.45842,-3.2075 -4.1165,-4.1868 -0.81384,-0.4878 -1.9662,-0.49373 -3.012,-0.46602 -3.90334,0.21619 -7.5236,3.42062 -11.2853,4.01562 -1.2075,0.55836 -2.1823,1.8136 -1.9679,3.45826 0.155,1.18921 0.9866,1.96984 2.08338,2.2627 M 880.76217,689.627 c 1.09273,0.65282 2.11871,0.78562 3.15381,0.82832 2.75872,0.1138 6.54592,0.6316 9.26402,-0.1384 1.03237,-0.2925 1.9786,-1.1598 1.9846,-2.24144 0.006,-1.10746 -0.9037,-1.34887 -1.96291,-1.61547 -3.58973,-0.90369 -6.46821,-1.32959 -10.17243,-1.79669 -1.05276,-0.1328 -2.3064,-0.0263 -3.18127,0.5767 -0.65339,0.4504 -0.98639,0.96559 -0.99709,1.72609 -0.0152,1.08667 0.85359,2.02901 1.91127,2.66089 m -21.62147,-8.9566 c -4.4647,-0.7588 -8.9671,0.5657 -13.1412,1.59989 -3.04611,-0.8938 -5.70504,-1.92449 -8.96603,-1.64282 -6.29367,0.54353 -13.00197,0.11303 -19.10557,1.12939 -2.6797,0.44624 -7.7983,0.98604 -10.16811,2.3125 -1.04989,0.58764 -1.95859,1.78854 -1.93719,2.89964 0.0218,1.1328 0.96356,1.8718 2.046,2.06228 4.2339,-0.2721 8.3214,-0.89288 12.1795,-2.42898 9.04439,1.4199 17.9657,0.3729 26.9523,1.8535 4.20977,-0.1299 11.3123,-0.9856 15.223,-2.16134 0.9358,-0.28126 1.7973,-1.13616 1.84328,-2.20096 -0.006,-1.62692 -3.16878,-2.61203 -4.92598,-3.4231 m -38.2293,-12.64694 c 0.873,0.14331 2.142,-0.30326 3.1597,-0.6355 2.64346,-1.39379 5.2869,-2.78747 7.9303,-4.18116 1.6382,0.41627 3.2764,0.83229 4.91458,1.2485 3.7049,-0.0727 7.40972,-0.1457 11.11462,-0.2185 1.44019,1.0078 2.99768,2.1007 4.89179,2.2002 2.75111,-0.30953 5.50221,-0.6191 8.25341,-0.9287 4.43598,0.5066 8.5783,1.32107 13.0493,0.9619 0.6239,-0.0501 1.3509,-0.1589 1.8588,-0.59542 0.4955,-0.42578 0.7956,-1.12358 0.6337,-1.7749 -0.25554,-1.02798 -1.48192,-1.81921 -2.5303,-2.20828 -2.5204,-0.9352 -7.285,-1.2549 -10.0243,-1.33982 -3.563,0.50072 -7.126,1.00122 -10.68904,1.50192 -1.30196,-0.6672 -0.85278,-3.3037 -2.37256,-3.29171 -3.6807,0.59961 -7.3614,1.19921 -11.0421,1.79881 -2.3085,0.0134 -4.4196,-1.78221 -7.058,-1.77562 -4.358,2.5813 -9.657,6.61841 -12.7959,8.31372 -0.2031,0.55396 0.14008,0.83179 0.706,0.92456 M 499.54737,498.9132 c -2.68137,15.45773 -3.28949,47.72599 -2.98447,72.19547 0.1896,15.20987 0.86141,28.71473 1.0625,42.93723 2.83878,27.74785 -10.30431,76.59548 25.00409,85.3263 13.49177,2.17059 24.93857,0.18379 80.18951,4.06477 23.11708,-1.31289 45.99742,1.54433 69,3 24.12641,1.17403 51.87916,1.19822 77.99346,2.9978 11.3252,-0.65584 22.66712,1.375 33.98164,1.1057 4.11724,1.70404 6.04589,7.11071 8.303,10.7166 2.0293,2.9072 5.5578,6.63587 7.78378,8.8635 2.45062,2.4524 6.88971,6.48319 9.09012,7.8865 4.93357,3.149 9.867,6.29798 14.80057,9.447 7.27362,2.99197 14.82782,4.8977 22.18283,5.9158 4.8383,0.4176 10.24716,0.41626 15.0856,0 3.9527,-0.8113 7.90546,-1.62232 11.85816,-2.4336 0.79974,-0.0151 1.16504,0.0994 1.96514,0.6555 3.1591,2.1959 6.12568,4.8286 8.79438,7.73708 16.45782,17.93689 30.80162,35.92892 48.41552,54.78512 8.102,7.3745 16.2988,17.01859 25.74738,24.3948 1.94702,1.2031 7.41872,3.3447 10.05352,3.8418 3.81086,0.71876 9.4386,0.60646 13.2746,0.0242 1.3905,-0.21108 2.68256,-0.98488 4.0983,-2.16898 2.99357,-2.50363 5.8211,-6.10311 6.9076,-9.0427 0.929,-3.6885 2.6579,-7.36644 2.18087,-11.2581 -1.78857,-3.7851 -5.43657,-7.7181 -8.20537,-11.2019 -18.18122,-15.8667 -34.24024,-32.25141 -52.8389,-48.082 -5.00132,-5.2936 -10.0027,-10.58714 -15.004,-15.88084 -4.3859,-3.63928 -8.7717,-7.27856 -13.15754,-10.91797 -0.0608,-2.85522 5.08654,-5.31079 6.77724,-7.63843 3.2317,-5.19486 7.74236,-10.69409 9.36217,-16.03247 2.29916,-7.10259 3.10357,-14.34168 0.29933,-21.3645 -0.642,-1.5354 -1.72084,-3.95729 -3.5035,-4.74121 -1.14111,-0.50198 -2.0142,-0.0906 -2.24584,0.88599 0.86164,3.3601 1.91724,14.11792 1.32061,15.93432 -1.18371,3.60371 -2.50397,7.8645 -4.32687,10.90231 -1.79904,2.99808 -4.247,5.7157 -7.1932,8.9407 -2.41254,2.64088 -5.30311,5.5599 -7.89551,7.5764 -3.95063,3.07278 -7.89349,5.9309 -11.93842,8.2781 -4.61107,2.67578 -9.99817,4.92188 -14.91727,6.5937 -3.21341,1.09209 -6.6188,1.69866 -9.9007,2.2249 -4.0366,0.6472 -8.8657,0.4731 -12.92501,0.12256 -2.56061,-0.22136 -5.47223,-0.71289 -7.9541,-1.32568 -6.62839,-1.87098 -13.25639,-3.73638 -19.88449,-7.36478 -5.4346,-3.24191 -11.6944,-7.7793 -16.5127,-12.3037 -2.48672,-2.6853 -5.33292,-6.42063 -7.3328,-9.67722 -1.3965,-2.27418 -3.59032,-6.15552 -4.625,-8.98368 -0.93853,-2.5654 -2.0027,-6.17453 -2.2373,-8.88644 -0.1932,-2.23296 -0.2221,-4.65808 0.3281,-6.88599 0.6443,-2.60867 1.4925,-5.33447 2.9593,-7.88769 3.20119,-5.57228 6.0902,-10.25708 9.7293,-14.91068 1.50387,-1.9231 2.9799,-4.2395 4.77236,-5.7617 6.35553,-5.3972 15.13672,-11.2543 21.86434,-15.1609 5.83409,-1.65842 9.43748,-5.54551 14.92796,-6.7422 9.14205,-1.89364 16.87289,-1.1589 24.80224,3.7752 4.8881,2.31347 9.5909,4.76867 13.8727,8.09931 5.0115,3.89849 7.2306,6.43096 11.5296,11.8063 3.87469,4.8447 6.893,9.1511 9.5216,13.8668 3.95405,5.78287 6.29335,5.87693 10.5486,4.48657 -1.82677,-7.07876 -8.94278,-12.97323 -12.43801,-17.51197 -3.21879,-3.7489 -6.4375,-7.4978 -9.65629,-11.24653 -8.3618,-7.80447 -16.1801,-11.90117 -24.35823,-18.13797 1.85353,-17.86804 0.12715,-53.77942 0.13233,-71.4656 0.008,-28.22729 -6.18904,-52.34347 -16.1734,-61.14465 -3.43741,-3.40735 -5.7929,-7.35079 -9.56562,-9.94247 -5.03938,-3.17578 -10.20378,-4.84179 -15.20108,-6.22718 -6.7665,-1.71923 -13.9609,-2.0243 -20.9425,-2.4088 -202.96927,3.14816 -239.5957,-0.012 -299.38046,4.42859 -1.10291,0.0819 -1.83361,0.81274 -2.5238,1.78551 M 900.0598,737.03738 c 1.195,-0.35571 2.4356,0.47312 3.5167,1.52368 6.7982,6.60664 16.63648,17.6272 24.195,24.57174 18.7807,16.1746 35.0026,31.94486 54.71827,50.1514 1.84443,2.64197 4.63563,5.1982 4.91669,7.781 0.12364,1.99867 -0.73586,4.7982 -1.6698,6.7578 -0.98066,2.0574 -2.76428,5.1145 -4.26356,6.60769 -1.75518,1.74772 -5.75994,2.54318 -9.4484,1.95141 -2.2186,-0.3557 -4.71462,-0.64204 -6.8457,-1.64204 -1.9607,-0.91996 -3.94564,-2.34619 -5.9093,-4.14066 -10.44601,-9.5464 -18.8901,-17.9443 -28.89272,-28.89303 -6.41308,-7.65967 -12.82608,-15.31937 -19.23908,-22.97901 -3.2408,-2.97756 -6.4816,-5.95486 -9.7224,-8.93237 -1.3347,-2 -2.66944,-4.00012 -4.0042,-6.00029 -5.4839,-5.4232 -9.43654,-11.1162 -14.73922,-14.8064 -0.43938,-0.6511 -0.43182,-0.9885 0.004,-1.5478 5.3381,-3.15161 11.9211,-6.5617 17.3836,-10.40332 M 851.1177,515.7239 c -1.7402,2.71778 -6.0182,5.7722 -8.457,9.1069 -2.09279,2.86216 -0.627,5.10007 -0.5374,5.2134 0.4205,0.5317 1.11556,0.8364 1.82137,0.73878 3.18343,-1.31628 5.99029,-4.59838 8.99063,-6.92041 4.79205,-4.13246 7.98818,25.88276 8.6277,29.2732 -0.0207,22.52107 0.60736,49.15736 -1.0665,73.78271 -0.1497,1.7688 -0.89882,5.4989 -1.8549,5.85912 -2.8814,-0.0522 -5.7628,-0.1045 -8.6442,-0.15672 -3.2878,0.53942 -6.5755,1.07882 -9.8633,1.61812 -0.75621,-0.0393 -1.1798,-0.21163 -1.88774,-0.7883 -4.58197,-5.29931 -6.90346,-8.9187 -13.03026,-14.8555 -1.55592,-1.0437 -3.11183,-2.0874 -4.6678,-3.1311 -6.2869,-6.3174 -12.34082,-13.0471 -19.0387,-18.75021 -2.21014,-2.4375 -1.4066,-5.57129 -2.63482,-7.83081 -0.6449,-0.79908 -1.82782,-1.19398 -2.7857,-0.80859 -6.74848,7.58471 -15.13538,17.75757 -22.02638,23.82221 -3.92321,4.8782 -7.8465,9.7566 -11.76971,14.6348 -6.10992,6.6477 -13.74493,13.969 -20.43729,21.2522 -2.9243,3.1826 -13.8765,18.8872 -14.88711,18.88869 -1.47381,-0.844 -2.1593,-4.61329 -3.13039,-6.81519 -2.2338,-7.6751 -2.5803,-16.584 -4.86143,-23.9727 -2.36767,-7.6688 -6.02447,-16.2441 -9.44128,-23.07612 -3.00809,-6.01468 -7.13581,-12.5542 -10.57159,-18.05888 -2.38343,-3.8186 -5.5725,-6.6074 -8.0206,-10.9647 -3.1235,-6.547 -6.18894,-13.2201 -10.3838,-20.0182 -2.92623,-3.9923 -5.85244,-7.9846 -8.77871,-11.9768 -4.50189,-7.04173 -5.22309,-15.1399 -10.79979,-21.74681 -0.7759,-0.47719 -2.0112,-0.56889 -3.05684,-0.3457 -0.82786,0.17651 -1.26956,0.39061 -1.91016,1.0293 -2.1224,3.24091 -4.2447,6.48201 -6.3671,9.72311 -3.3268,4.13468 -7.48483,8.7151 -11.3701,13.0818 -5.63322,5.9619 -11.3535,9.88576 -18.5346,16.1897 -8.44467,12.72822 -17.67487,22.12138 -28.83904,32.22609 -4.67046,5.39649 -13.13086,13.26231 -19.38406,20.34981 -6.4737,7.33769 -14.43234,19.939 -21.04233,28.4353 -7.9104,8.9036 -13.45917,15.1768 -21.41467,25.2305 -0.3785,1.13136 0.0187,2.2966 0.90228,2.916 1.14331,0.8015 2.96462,0.51566 4.21672,-0.68332 14.35988,-18.39551 28.9158,-37.51958 41.52846,-55.729 7.96594,-9.25928 22.26084,-21.89578 30.55322,-30.24439 5.41229,-6.91349 10.82452,-13.8269 16.23682,-20.74023 4.4749,-3.84986 8.9498,-7.69946 13.4247,-11.54936 5.3981,-5.62361 14.9141,-17.4679 21.7813,-23.5984 3.691,3.7283 3.77099,11.24908 6.71947,16.87457 4.7649,6.6875 9.7873,13.4458 13.71289,19.96411 2.43044,5.01462 4.86094,10.02929 7.29144,15.04402 5.66987,10.094 12.0307,18.6808 16.91737,28.9606 3.05873,6.43459 6.69769,13.76308 8.91793,20.9646 1.5448,5.0105 1.43918,11.4446 2.93479,17.04689 1.58148,5.92407 4.19739,12.62671 6.31961,18.04731 0.50687,1.2946 1.75009,2.97027 3.30496,3.7315 1.03924,0.50879 2.27753,0.571 3.22454,0.3636 1.04096,-0.2281 1.622,-0.81844 2.30128,-1.6473 2.86342,-3.49462 6.90619,-10.115 9.52342,-14.4143 7.5202,-8.79541 16.7929,-22.3938 24.27388,-30.1336 0.86658,-1.5671 1.73312,-3.1341 2.59972,-4.70112 9.0269,-10.30388 18.87196,-21.99682 27.4626,-29.95288 7.2571,6.7296 18.7488,21.1158 31.24389,31.7024 1.34111,1.7219 4.23938,5.6064 5.12151,7.8591 0.2816,0.71926 0.2478,1.0663 -0.2382,1.71048 -7.9503,4.93562 -17.7735,11.50878 -24.41742,17.3247 -5.02808,4.40892 -10.12458,11.0011 -13.97568,15.82832 -2.936,5.2178 -6.5483,11.36907 -7.93521,16.9949 -1.58369,5.04238 0.82507,11.8762 -0.54401,15.3364 -9.91258,1.18938 -20.95118,-1.6164 -31.30378,-0.6694 -9.6868,-0.56053 -19.2379,-2.4629 -28.97961,-3.0061 -16,0 -31.99999,-1.1e-4 -47.99999,-2.3e-4 -12.41303,-0.68701 -24.58594,-2.30859 -37,-2.99977 -39.32284,-3.89033 -122.57146,5.98449 -126.5685,-16.287 -6.52612,-7.8939 -9.76438,-180.36046 -0.1123,-185.45385 8.32696,-6.69741 191.30268,-7.08771 288.0034,-6.08925 -0.72508,4.06962 -8.57934,9.14598 -11.83463,12.18337 -1.51413,1.89315 -0.81057,3.08768 0.34053,3.2323 4.06889,-1.94497 8.13768,-3.88977 12.2065,-5.83472 3.973,-2.82727 7.94607,-5.65466 11.9191,-8.48205 4.79505,-1.98733 21.56977,1.29678 20.78,4.03393 -0.52964,1.44312 -5.6009,6.01673 -7.26572,7.43577 -4.96112,3.85647 -9.92218,7.7129 -14.8833,11.56938 -8.13288,7.42139 -11.0795,10.45511 -9.58648,11.92662 0.4113,0.40528 1.19427,0.43666 1.88689,0.1722 4.75272,-4.14424 11.30308,-6.74722 16.12181,-9.9349 7.0754,-4.33166 14.0863,-12.46472 20.5775,-16.6947 0.301,-0.001 11.53116,13.25268 12.4168,14.9348 0.4133,0.7848 0.4394,1.6614 -0.0649,2.449 M 700.82986,665.07229 c -0.71836,0.36521 -1.38866,1.02281 -1.76556,1.68981 -0.6452,2.27369 -1.7081,4.8292 -2.9457,7.0569 -1.3819,1.6966 -2.7638,3.3934 -4.1457,5.08996 -0.5173,1.11072 -0.49772,2.41284 0.1712,2.76024 2.31369,-0.1079 6.49997,-3.60912 8.77286,-6.3828 1.60584,-2.0901 3.52134,-4.9063 4.09204,-7.2842 0.2738,-1.1409 -0.0557,-2.26072 -0.96692,-2.8884 -0.84248,-0.58033 -2.1037,-0.60523 -3.21222,-0.0415 m -6.83526,-15.3694 c -4.14495,6.85035 -19.42931,20.16155 -15.75843,28.9939 0.83789,0.3501 2.22809,-1.1779 3.22093,-2.43774 4.2092,-7.72168 11.2454,-15.44936 16.903,-23.24048 0.4363,-0.79398 0.603,-1.30288 0.3081,-2.15678 -0.2339,-0.67733 -0.861,-1.4106 -1.5694,-1.7695 -1.1134,-0.564 -2.18721,-0.2229 -3.1042,0.6106 m 37.8758,-73.82592 c 1.1048,0.77991 2.9532,0.63292 4.1899,0.56002 1.0737,-0.0632 2.1734,-0.27902 3.13168,-1.25411 1.37803,-1.40196 2.04945,-4.06523 -0.96298,-5.81031 -1.0694,-0.61968 -2.2206,-0.90649 -3.305,-0.70218 -1.9272,0.2565 -3.6332,2.5271 -4.00521,4.26676 -0.24459,1.14814 -0.0235,2.25154 0.95161,2.93982 M 555.8007,556.9419 c 1.02037,0.53469 6.81877,1.6172 8.25737,1.374 1.57566,-0.26646 4.5164,-2.31332 4.33313,-5.38472 -0.28987,-5.03835 -11.85056,-3.07851 -13.62231,-1.18701 -1.61407,1.84581 -0.89451,3.92372 1.03181,5.19773 m 173.0702,-40.906 c -1.4029,0.5881 -3.19174,2.4873 -3.835,3.80836 -0.5216,1.07104 -0.55602,2.23924 0.0284,3.34004 0.37567,0.7078 1.0436,1.37578 1.7514,1.7515 1.10077,0.5842 2.26807,0.551 3.34967,0.0188 1.11603,-0.54893 2.24013,-1.6748 2.78931,-2.7759 0.51792,-1.0383 0.59722,-2.22042 0.35702,-3.2734 -0.2473,-1.0844 -0.9588,-2.28723 -2.1542,-2.8411 -0.7449,-0.34494 -1.5607,-0.3325 -2.2866,-0.0283 m -104.8455,-2.4307 c -1.3629,0.0208 -2.89134,0.4003 -4.25023,1.29668 -1.08407,0.71492 -2.19847,1.81982 -2.73858,2.91821 -0.63249,1.28611 -0.70229,3.13501 0.0755,4.29981 0.6847,1.02527 1.739,1.24219 2.8731,1.1396 1.312,-0.11861 3.0207,-0.51301 4.1957,-1.26362 1.2787,-0.8169 2.48648,-2.47022 2.95316,-3.86698 0.34942,-1.0459 0.37744,-2.3042 -0.2395,-3.2402 -0.67656,-1.0264 -1.75246,-1.30054 -2.86916,-1.2835"
         style="display:inline;fill:#000000;fill-opacity:1;fill-rule:nonzero;stroke:none"
         transform="matrix(1.3333333,0,0,-1.3333333,0,2496)"
         clip-path="url(#clipPath4)"
         id="path7" />
    </g>
  </g>
</svg>
