<svg xmlns="http://www.w3.org/2000/svg" width="223.5" height="177.1"><g fill="none" stroke="#222831" stroke-miterlimit="10"><path stroke-linecap="square" stroke-width=".2" d="M119.8 168.5H109M94.8 29.6V29l-.3-.6v-1.2l-.3-.6V26l-.3-.6-.2-.5-.2-.6-.2-.6-.3-.5-.2-.6-.3-.5-.3-.5-.3-.6-.4-.4-.3-.5-.4-.5-.3-.5-.5-.5-.4-.4-.3-.4-.5-.5-.5-.3-.5-.4-.5-.4-.5-.3-.5-.4-.5-.3-.5-.3-.5-.3-.5-.3-.5-.2-.7-.2-.5-.2-.6-.2-.5-.2-.7-.2h-.5l-.7-.2H78l-.6-.2h-2.4l-.6.1-.6.1-.6.1-.6.1-.6.2-.6.2-.6.2-.6.2-.5.2-.6.2-.5.3-.6.3-.5.3-.5.3-.5.4-.5.3-.5.4-.5.4-.4.3-.4.5-.5.4-.4.4-.4.5-.4.5-.3.5-.4.5-.3.4-.3.6-.4.5-.2.5-.3.6-.2.5-.2.6-.3.6-.2.5-.1.6-.2.6v.6l-.2.6-.1.6v.6l-.1.6v4.2l.3.6v.6l.3.6v.6l.3.6.3.6.2.6.2.5.3.6.2.5.4.6.3.5.3.5.4.5.3.4.4.5.4.5.4.4.5.4.4.5.4.4.5.2.5.4.5.4.5.3.5.3.5.3.6.3.5.3.6.2.5.3.6.1.6.3.6.1.6.2.6.1.6.1h.6l.6.2H79.6l.6-.3h.6l.6-.3h.5l.6-.4h.6l.6-.4.5-.2.6-.3.5-.3.5-.3.5-.3.5-.3.5-.4.5-.4.5-.3.4-.4.5-.5.4-.4.4-.3.4-.5.4-.5.4-.4.3-.5.4-.5.3-.5.3-.6.3-.5.2-.6.3-.5.2-.5.2-.6.2-.6.2-.7.1-.6.2-.6V34l.1-.6.1-.6v-.6l.1-.6v-1.2z"/><path stroke-linecap="square" stroke-width=".2" d="M71 12.3l-.6.1-.6.2-.5.3-.6.2-.6.3-.5.3-.6.4-.5.3-.6.3-.5.4-.5.4-.5.4-.5.4-.5.4-.4.5-.5.4-.4.4-.4.6-.4.4-.4.6-.3.4-.4.6-.3.5-.3.6-.3.6-.3.6-.2.5-.3.6-.2.6-.2.6-.2.6-.1.7-.2.6v.6l-.2.6v1.3l-.1.7v3.1l.2.6v.7l.3.6v.6l.3.6.2.6.2.6.2.6.3.6.3.6.2.5.4.6.3.6.3.5.4.5.4.5.4.5.4.5.4.5.4.4.5.5.5.4.4.4.5.4.6.4.5.4.5.3.6.3.5.3.6.3.6.3.6.3.5.2.6.2.6.2.7.2h.6l.6.2.5.2H74.7l.6.2h3.2l.6-.1.6-.1.7-.2h.6l.6-.2.6-.2.6-.2.6-.2.6-.2.6-.3.6-.3.5-.3.6-.3.5-.3.6-.3.5-.4.5-.4.5-.4.5-.4.4-.4.5-.5.5-.4.4-.5.4-.5.4-.5.3-.5.4-.5.4-.5.3-.6.3-.6.3-.5.3-.6.2-.6.2-.6.3-.6.1-.6.2-.6.2-.6.1-.6.1-.7.1-.6v-.6l.1-.6v-4l-.2-.5V27l-.2-.6-.2-.7-.2-.6-.1-.6-.3-.6-.2-.6-.3-.5-.2-.6-.3-.6-.3-.5-.4-.6-.3-.5-.4-.5-.3-.5-.5-.5-.4-.5-.3-.5-.5-.4-.5-.5-.5-.4-.3-.4-.5-.4-.7-.4-.5-.4-.5-.3-.5-.3-.5-.3-.7-.3-.5-.3-.6-.2-.7-.3-.5-.2-.7-.2"/><path stroke-linecap="square" stroke-width=".2" d="M69.8 10.4l-.6.3-.6.3-.7.2-.6.3-.6.2-.5.4-.6.4-.5.3-.6.4-.5.4-.6.4-.5.4-.5.4-.5.5-.4.4-.5.5-.5.5-.4.5-.4.5-.4.6-.4.5-.3.5-.4.6-.3.6-.3.6-.3.5-.3.6-.3.7-.2.6-.2.6-.2.6-.2.7-.2.6-.1.7-.1.6-.1.7v.6l-.2.7v4.6l.3.7v.6l.3.7v.6l.3.6.2.7.2.6.3.6.2.6.3.6.3.6.3.6.3.6.4.5.3.6.4.5.4.6.4.5.5.5.4.5.5.4.5.5.4.5.6.4.5.4.5.4.6.4.5.3.6.4.5.3.6.3.6.3.6.3.6.3.6.2.6.2.6.2.6.2.7.2h.6l.7.2h.6l.7.2h5.3l.6-.2.7-.1.6-.1.6-.2.7-.2.6-.2.7-.2.6-.3.6-.2.6-.3.6-.3.6-.3.5-.4.6-.3.5-.4.6-.3.5-.4.5-.5.5-.4.5-.4.5-.5.4-.5.5-.5.4-.4.4-.6.4-.5.4-.5.4-.6.3-.6.3-.5.4-.6.2-.6.3-.6.3-.6.2-.6.3-.7.1-.6.2-.6.2-.7.1-.6.1-.7.2-.6v-1.4l.1-.6v-4.1l-.3-.5v-.7l-.2-.6-.2-.7-.2-.6-.1-.6-.3-.8-.2-.5-.3-.6-.3-.6-.2-.6-.4-.6-.3-.5-.3-.6-.4-.6-.3-.5-.5-.5-.4-.5-.3-.5-.5-.5-.5-.5-.5-.4-.5-.5-.5-.4-.5-.5-.5-.3-.5-.4-.5-.4-.7-.3-.5-.4-.5-.3-.6-.3-.7-.3-.5-.2-.8-.3-.5-.2M112 12H93.3V2h18.8z"/><path stroke-linecap="square" stroke-width=".2" d="M101.3 6.9v-.7l-.2-.2v-.3l-.1-.2-.3-.3V5l-.3-.1-.2-.3h-.2l-.2-.2-.2-.3h-.3l-.2-.1h-.3l-.2-.1h-.3l-.3-.1h-1.3l-.3.2h-.2l-.2.2-.3.2-.2.1-.2.2-.2.2V5l-.3.3-.2.3v.2l-.2.3v.8l-.2.1v1.1l.1.3v.2l.2.3.1.2.2.3.2.1.1.3.2.1.2.2.2.2.3.1.2.1.2.1.3.1.3.1h1.8l.3-.2h.2l.3-.2h.2l.2-.3.2-.2h.2l.2-.4.2-.2.2-.2V9l.1-.3.1-.2V8l.1-.2V7zm9.7 0v-.7l-.2-.2v-.3l-.2-.2-.1-.3-.2-.2-.2-.1-.1-.3h-.3l-.2-.2-.2-.3h-.3l-.2-.1h-.3l-.2-.1h-.3l-.3-.1h-1.2l-.3.2h-.2l-.2.1-.3.2-.2.2-.2.1-.2.2-.3.2v.2l-.2.3v.2l-.3.3v.5l-.1.3v1.5l.2.3V9l.1.2.2.3.1.1.2.3.2.1.2.2.2.2.3.1.2.1.2.1.4.1.2.1h1.9l.3-.2h.2l.3-.2h.2l.2-.3.2-.2h.2l.2-.4v-.2l.3-.2V9l.2-.3v-.5l.1-.2V7z"/><path stroke-linecap="square" stroke-width=".3" d="M118.8 9.5h75.7v1.7h-75.8z"/><path stroke-linecap="square" stroke-width=".2" d="M142.3 11.3v2m0 0H160m-17 0v4.8m17-6.8v2m-.6 0v4.8m0 0H143m-8.4 26.2h-14V25h14zm14.4 0h-14V25h14zm14.4 0h-14.1V25h14zm14.4 0h-14.2V25h14z"/><path stroke-linecap="square" stroke-width=".3" d="M195.5 29.6v-.4h-.2V29h-.5m.7.7v10m-.7.6h.3l.2-.2v-.4h.2m-.7.7H185m-.7-.8v.5h.2v.1h.2l.2.1m-.8-.6v-10m.9-.7h-.4l-.1.2-.1.2h-.1v.4m.8-.8h9.7M193 34v-.5l-.1-.2-.1-.3-.1-.2-.2-.2-.1-.2-.2-.2h-.2l-.2-.3-.2-.2h-.3l-.3-.2H190.5l-.3-.2h-1l-.2.1-.3.1-.2.1-.2.1-.2.3-.3.1-.1.1-.2.2-.2.3-.1.2-.1.2-.1.3-.1.2-.1.3v1.8l.2.2v.2l.2.3v.2l.3.2.2.2.4.3h.2l.2.3h.5l.2.2h1.5l.3-.1h.2l.2-.1.2-.2.3-.1.1-.2.2-.1.2-.2.1-.2.2-.2v-.5l.2-.2.1-.2v-.3l.1-.2v-.8zm-6.2-3.8V30h-.2l-.1-.2h-1.2l-.1.1-.1.1v.2h-.1V31l.2.1.2.1.1.2h.8v-.2h.2v-.3l.1-.2.1-.3zm7.8 0v-.3h-.2l-.1-.2h-1l-.2.1-.1.1v.2h-.1V31l.2.1v.1l.2.1.1.2h.8v-.2h.3v-.5h.1v-.3zm-7.8 8.2v-.2l-.2-.2-.1-.2h-1l-.2.2-.1.1v.1l-.1.2V39.2l.2.1.2.2h.9l.2-.2v-.4h.1v-.2l.1-.2zm7.8 0v-.2l-.1-.2h-.1l-.1-.2h-1l-.1.2-.2.1v.1l-.1.2v.7l.2.1v.1l.2.2h1l.1-.2.1-.2.1-.3v-.2zm.9 7.8V46h-.2l-.1-.3h-.4m.7.7v10m-.7.6h.5v-.5l.2-.2m-.7.7H185m-.7-.7v.4l.2.1v.1h.4v.1m-.7-.7v-10m.8-.7h-.2v.1h-.2l-.1.1-.1.2-.1.1v.2m.8-.6h9.7m-1.7 5.1v-.5l-.2-.2-.1-.3-.1-.2-.2-.2-.1-.2-.2-.2-.2-.2h-.2l-.2-.3h-.3l-.2-.2h-.2l-.3-.2H189l-.2.1h-.3l-.2.2-.2.1-.2.2-.3.1-.1.2-.2.2-.2.2-.1.2-.1.2-.1.3-.1.2-.1.2v1.9l.2.3v.1l.2.2v.3l.3.2.2.3.4.3h.2l.2.3h.5l.2.2h1.8l.2-.1.2-.1.2-.2.3-.1.1-.2.2-.1.2-.4.1-.1.2-.3v-.2l.2-.2.1-.3V52l.2-.3V51zm-6.3-3.8v-.2l-.2-.2h-.1l-.2-.2h-1l-.1.1v.1l-.1.1v.1l-.1.2V47.8l.2.2h.2l.2.2h.8v-.3h.2v-.4l.2-.3zm7.8 0v-.2l-.1-.2h-.2l-.1-.2h-1v.2l-.2.1v.1l-.1.2V47.7l.2.1v.1l.2.1.2.1h.8V48h.2v-.4h.2zm-7.8 8.2V55l-.2-.2-.1-.2h-1l-.2.1v.1l-.1.1v.1l-.1.2V56l.2.1.2.1.2.1h.7l.2-.2v-.3h.1v-.2l.1-.2z"/><path stroke-linecap="square" stroke-width=".2" d="M45.4 7.3V1.8m.3 5.5V1.8m0 5.8l-4.9 2.7m4.6-3L40.7 10m5-2.5l4.7 2.7m-4.7-3l4.8 2.8M71 6h11.1m0 0v6.3m-.3-1.2H71.3m-.3 1.3V5.8m-1.3 4.6V4.7m0 0h13.7m0 0v5.8m-1.8 1.2h-10m-.2-.6v2l.2.3m10 0l.2-.3v-2m-10.3.5v1l.1.2.1.2v.3m9.7 0V13l.1-.2v-.3l.1-.3v-.6m56-.3v1h-2.5v-1zm-6.5 0h2.5v.5H131zm-5.7 0h3.3v1h-3.3zm-5.4 0h4.5v.6H120zm18.6 0h2.9v1h-3zm36.4 0v1h-2.3v-1zm11.2 0h2.6v.5H186zm-5.6 0h3.3v1h-3.3zm-4.5 0h2.9v1h-3zm-14.4 0h3.3v1h-3.3zm6.9 1H166v-1h2.5zm0-.9v-.2h3v1h-2.7M56.6 21.6h-4.1v-16h4.2zM56.6 4.5h-.4l-.2.2-.3.2V5l-.2.2V5.5m1.1-1V4m0 0h-.3l-.1.2h-.3l-.1.3h-.1l-.3.2v.2h-.1l-.1.3-.2.2v.2m-1.3 0V5h-.3v-.2l-.1-.2H53l-.2-.2h-.3m.1-.4h-.2v.4m1.7 1v-.1l-.2-.2V5l-.1-.1-.1-.2-.3-.1v-.1l-.3-.2-.4-.1V4"/><path stroke-linecap="square" stroke-width=".2" d="M53.3 5.5h.2l.1-.2m1.8 0l.2.2h.1m-1.6 16v1.2m.1 0v.4h.7v-.4m.2 0v-1.2"/><path stroke-linecap="square" stroke-width=".2" d="M53.8 21.4h-.1l-.3.3-.1.3-.1.2v.4H53v.6l.1.2h.1l.1.3h.2l.2.2.3.2.2.1h1l.1-.3h.2l.1-.1.1-.2.1-.2.3-.1V22h-.2v-.2l-.1-.1-.1-.2h-.2l-.2-.2M53.8 5h.3V3.6H54v-.3l-.3-.3h-.3v-.2H51.9l-.3.2-.2.2v.1l-.1.2v.1L51 4v.7l.1.2V5l.2.2.2.1v.1l.2.1.2.1.3.2h.3m4.2 0h.7v-.3h.2v-.2h.2v-.3h.3V3.5l-.2-.2h-.1V3h-.3v-.2H57v-.2h-1V3h-.2l-.1.1-.2.1v.2h-.2v.4L55 4v1M20.3 43.3v-.3l.3-.2V40.8l-.2-.1v-.3l-.2-.1V40l-.2-.3-.2-.1-.2-.1-.2-.3-.3-.1-.3-.1h-.2l-.2-.3H17M8 39l-.2-.1H6.3l-.3.3h-.2l-.2.1-.2.3-.3.3v.2l-.3.1v.2l-.2.3v2l.1.3.1.2M17 52.5h1.5l.2-.1.3-.1.2-.1.1-.2.2-.2.2-.2h.2l.1-.3.1-.2.2-.2v-.2l.1-.3v-.2l.2-.2v-1.2l-.2-.2v-.2l-.2-.2m-15.4 0v.2l-.2.2v2.1l.1.2.1.2.2.2.1.2.2.1.1.2.2.2h.2l.2.3h.3l.2.2H8m32.1-9.3l.1-.3v-.2l.2-.2v-1.8l-.1-.1-.1-.3-.3-.1v-.3l-.3-.1v-.1l-.3-.3h-.1l-.3-.1-.1-.1h-.4l-.1-.3H37m-9 0H26.2l-.3.3h-.2v.2l-.3.2h-.2l-.2.3v.2l-.2.2v.2l-.2.2v.5l-.2.2v.9l.1.2v.2l.1.3.1.2M37 52.5h1.5l.3-.1.2-.1.2-.1.2-.1.2-.2.1-.2.2-.1.2-.2.2-.2v-.3l.2-.1v-2.2l-.3-.3m-15.4 0v.4l-.2.2v1.9l.2.2v.2l.2.2.1.2h.2l.2.3.2.2h.1l.2.2h.3l.2.2H28m20.5-4h1.3m1.3 1v-.3h-.2v-.3h-.3v-.1h-.2l-.2-.2h-.4m1.2 1v3.6m-1.2 1.1H50.4l.1-.1h.1l.1-.3h.1v-.3h.1v-.4m-1 1.2h-4.2m-1-1.2V53.8h.1l.1.2h.1l.2.2.3.1h.3m-1.2-1v-3.7m1.2-1.3h-.3l-.2.1v.1H45v.2h-.2v.5l-.2.3m1.1-1h1.4m33 120H69.5"/><path stroke-linecap="square" stroke-width=".5" d="M49.8 168.5H.3V.2h206.3v168.4H149"/><path stroke-linecap="square" stroke-width=".2" d="M94.3 7h7.2m-7.2.7h7.2M107 11l1.5-7m-2.1 6.8l1.5-7M157 53v22.5l1.5 1.3h9V51.5h-9z"/><path stroke-linecap="square" stroke-width=".3" d="M167.5 47.2V56l.8.8v15l-.8.7v8.7l3.5-2v-30z"/><path stroke-linecap="square" stroke-width=".2" d="M94 29.6v-1.2l-.2-.4v-.7l-.3-.6v-.6l-.3-.6-.2-.4-.2-.7-.2-.6-.3-.5-.2-.5-.3-.6-.3-.4-.3-.6-.4-.4-.3-.5-.4-.5-.3-.5-.5-.4-.3-.3-.5-.6-.5-.3-.4-.4-.5-.4-.5-.3-.5-.4-.5-.3-.5-.3-.5-.3-.5-.3-.5-.2-.5-.2-.6-.3H82l-.7-.3-.5-.2H80l-.5-.2h-1.1l-.6-.2h-3.6l-.6.2-.6.1-.6.1-.5.2-.6.2-.6.1-.5.3-.6.2-.5.2-.5.3-.7.3-.5.3-.5.3-.5.4-.5.3-.4.5-.5.3-.4.3-.5.5-.4.4-.4.4-.4.5-.3.5-.4.4-.3.5-.3.6-.3.4-.2.6-.3.5-.3.5-.2.6-.2.6-.2.5-.1.6-.2.6-.2.7v.6l-.2.5v4.8l.1.6v.6l.2.6.2.5.2.6.2.5.2.6.2.6.3.5.3.5.3.6.3.5.3.5.2.5.4.5.3.4.4.5.4.5.4.4.5.4.4.4.5.4.4.3.5.4.5.3.5.4.5.2.6.3.5.3.5.1.6.4.5.1.6.2.6.2.5.2h.6l.6.2h1.2l.6.2H79l.5-.2h.6l.6-.2.6-.2.6-.2.5-.1.6-.2.5-.4.6-.1.5-.4.5-.2.5-.2.5-.4.5-.3.5-.4.5-.3.4-.4.5-.4.4-.4.4-.4.4-.5.4-.5.4-.4.3-.5.4-.5.3-.5.3-.5.3-.6.2-.5.3-.5.2-.6.2-.6.2-.5.2-.6.1-.5.2-.6v-.6l.2-.6v-.6l.1-.6v-1.8z"/><path stroke-linecap="square" stroke-width=".3" d="M194.7 55.2v-.3h-.1l-.1-.1h-.1l-.1-.2h-.3l-.1-.2h-.4l-.2.1-.1.1v.1l-.2.1v.2l-.1.2v.7l.2.2.2.2h1l.1-.2.1-.2v-.1l.1-.1v-.4zm.8 7.5v-.5h-.3V62l-.1-.1h-.3m.6.7v9.9m-.7.7h.4l.2-.2v-.4l.1-.1m-.7.7H185m-.8-.7v.3h.2v.1l.1.1h.3m-.7-.6v-10m.9-.6h-.4l-.1.1v.1l-.1.1-.1.1v.4m.8-.8h9.7m-1.8 5.2v-.5l-.1-.2-.1-.4-.1-.2-.2-.2-.1-.2-.2-.2-.2-.2h-.2l-.2-.3h-.3l-.2-.2h-.5l-.2-.1h-1.8l-.2.2-.2.2-.2.2h-.3l-.1.2-.2.2-.2.2-.1.3-.1.2-.1.3-.1.2-.1.3v1.7l.2.3v.2l.2.2v.2l.3.2.2.2v.2l.4.2h.2l.2.2h.2l.3.2h2l.2-.2h.2l.2-.2h.3l.1-.2.2-.2.2-.3.1-.2.2-.2V69l.2-.2.1-.3v-.2l.1-.3v-.8zm-6.2-3.8V63l-.2-.2-.1-.1-.2-.2h-1l-.1.1v.1l-.1.1v.2l-.1.2v.8h.2l.2.1.1.1h.8V64h.2l.1-.2v-.2h.1v-.3zm7.8 0V63l-.1-.2h-.1l-.1-.1-.1-.2h-1v.2l-.2.1v.2l-.1.2v.6l.2.2.2.2h1V64h.2v-.2l.2-.2v-.2zm-7.8 8v-.2h-.2V71h-.1l-.2-.1h-1.1v.1l-.1.1v.1l-.1.1V72.2l.2.1.2.1.2.1h.8v-.2h.1v-.2l.1-.2v-.2h.1v-.2zm7.8 0v-.2h-.1l-.1-.1h-.1l-.1-.1h-1v.1l-.2.1v.1l-.1.1V72.1l.2.1v.1l.2.1.2.1h.8v-.2h.1v-.2h.1V72l.1-.2v-.2z"/><path stroke-linecap="square" stroke-width=".2" d="M167.5 75.3h-4v.4h-2.6v-1.5h2.6v.5h4m0-2.1h-4v.4h-2.6v-1.5h2.6v.4h4m0-2h-4v.4h-2.6v-1.5h2.6v.5h4m0-2.1h-4v.4h-2.6V66h2.6v.4h4m0-2h-4v.4h-2.6v-1.5h2.6v.5h4m0-2.1h-4v.4h-2.6v-1.5h2.6v.5h4m0-2.2h-4v.5h-2.6V58h2.6v.5h4m0-2.1h-4v.4h-2.6v-1.5h2.6v.5h4m0-2.1h-4v.3h-2.6v-1.5h2.6v.5h4m-33.8 29h-11m0-6.6H121.8l-.2.1-.3.1-.2.2-.2.1-.2.2-.2.1-.2.2-.1.2-.2.2v.3l-.2.2-.1.3v.2l-.1.2v1.8l.3.3v.2l.2.2.2.2.2.2.2.1.2.2.2.2h.2l.3.2h.2l.3.3h.7m0-6.5h11m-.2 6.6h.4l.2-.1h.3l.2-.1.2-.1.2-.1.3-.1.1-.2.2-.2.2-.1.2-.2.2-.2.1-.2.1-.2.1-.3.1-.2v-.3l.2-.2v-1.7l-.3-.3V77l-.2-.3v-.2l-.3-.2-.2-.2h-.2l-.2-.2-.2-.2-.2-.2h-.2l-.3-.2H133.8m0 7.7h-11"/><path stroke-linecap="square" stroke-width=".2" d="M122.8 74.3h-1.2l-.2.2h-.4l-.3.2-.3.2-.2.1-.2.2-.2.2-.2.2-.2.3-.2.3-.2.2v.3l-.3.2v.3l-.2.3v2.2l.1.3.2.3v.3l.2.2.2.2.2.3.2.2.2.2.2.2.2.2.2.2.3.2h.3l.3.1.2.1.3.1h1m0-8.5h11m-.2 8.6h1l.3-.2h.3l.2-.2h.3l.3-.3h.2l.2-.3.3-.2.2-.2.2-.2V81l.3-.2.1-.2v-.3l.2-.3v-.3l.1-.2v-.4l.1-.2v-1.5l-.2-.3v-.3l-.2-.2-.2-.3-.2-.2v-.3l-.2-.2-.2-.2-.3-.2-.2-.2h-.2l-.3-.3h-.3l-.2-.2h-.6l-.3-.2h-.7"/><path stroke-linecap="square" stroke-width=".3" d="M145.9 90.3h2.5V88h9.7v23.3h-9.7V109h-2.5"/><path stroke-linecap="square" stroke-width=".3" d="M145.9 90.3v-4.8h14.6v28.2h-14.6v-4.8"/><path stroke-linecap="square" stroke-width=".2" d="M148.4 90.3V109m5-16.2h-1v-1.5h1zm-1-1.4l1 1.4m0-1.5l-1 1.5m1 5h-1v-1.4h1zm-1-1.4l1 1.4m0-1.5l-1 1.5m1 5h-1v-1.5h1zm-1-1.5l1 1.5m0-1.5l-1 1.5m1 5h-1v-1.4h1zm-1-1.4l1 1.4m0-1.5l-1 1.5"/><path stroke-linecap="square" stroke-width=".3" d="M160.5 89.3H158m9.5 16v-.2l-.1-.3v-.2l-.2-.2-.1-.2-.2-.2h-.1l-.2-.3-.2-.2h-.2l-.1-.2-.3-.2h-.9l-.2-.1h-1l-.2.1-.2.2h-.2l-.2.2-.2.2-.1.2-.2.1-.1.2-.2.2v.2l-.1.3-.1.3v.4l-.1.3v.7l.2.2v.5h.3v.4h.3v.2l.3.2h.2l.2.3h.2l.2.1h.3l.2.1h1.4l.2-.2h.3v-.2h.3l.2-.2.2-.2v-.1l.3-.3v-.1l.2-.2v-.3l.2-.2v-1z"/><path stroke-linecap="square" stroke-width=".2" d="M168 105.3v-.7l-.2-.3v-.2l-.2-.3-.2-.2-.2-.1-.2-.3-.2-.1-.2-.2h-.3l-.2-.2h-.3l-.2-.2H163.7l-.2.1-.3.1-.2.1-.2.2-.3.1-.2.3-.1.1-.2.2-.2.3-.1.2-.1.3-.1.2v.3l-.1.2v1.7l.2.2v.2l.2.3.2.2.2.2v.2l.3.2.3.2.2.1.2.2h.3l.2.2h.5l.3.1h1.3l.3-.2h.2l.3-.2.2-.1.2-.2.2-.2.2-.2.2-.2v-.3l.2-.3.2-.2v-.7l.2-.3v-.5z"/><path stroke-linecap="square" stroke-width=".3" d="M146.9 90.3v-2.8m.6-.6h-.4v.2h-.1v.3m.5-.5h11.4m.5.6v-.3l-.1-.1h-.1l-.1-.1h-.1l-.1-.1m.5.6v1.8m1 20.7h-2.3m-11.2-1v2.8m0 0v.4h.5m0 0h11.4m0 0h.4v-.2h.2v-.2m0 0V110m22.1-19.7h2.4V88h9.7v23.3h-9.5V109h-2.4"/><path stroke-linecap="square" stroke-width=".3" d="M181.6 90.3v-4.8H196v28.2h-14.6v-4.8"/><path stroke-linecap="square" stroke-width=".2" d="M184 90.3V109m5-16.2h-1v-1.5h1zm-1-1.4l1 1.4m0-1.5l-1 1.5m1 5h-1v-1.4h1zm-1-1.4l1 1.4m0-1.5l-1 1.5m1 5h-1v-1.5h1zm-1-1.5l1 1.5m0-1.5l-1 1.5m1 5h-1v-1.4h1zm-1-1.4l1 1.4m0-1.5l-1 1.5"/><path stroke-linecap="square" stroke-width=".3" d="M196.2 89.3h-2.5m9.6 16v-.2l-.3-.3v-.2l-.1-.2v-.2l-.2-.2h-.2l-.1-.3-.2-.2h-.2l-.2-.2-.2-.2h-1l-.2-.1H199.5l-.2.1-.2.2h-.3l-.1.2-.2.2-.2.2-.2.1-.1.2-.1.2-.1.2v.3l-.2.3v1.9l.3.2.2.4h.2l.2.2.2.2.4.3h.2l.2.1h.2l.2.1h1.4l.3-.2h.2l.2-.2h.2l.2-.2v-.2l.3-.1v-.3l.2-.1v-.2l.2-.3v-1.2z"/><path stroke-linecap="square" stroke-width=".2" d="M203.8 105.3v-.2l-.2-.3v-.2l-.1-.3-.1-.2-.2-.3-.2-.2-.1-.1-.2-.3-.3-.1-.2-.2h-.2l-.3-.2h-.2l-.3-.2H199.3l-.2.1-.3.1-.2.1-.2.2-.2.1-.2.3-.2.1-.2.2-.1.3-.1.2-.2.3v.2l-.1.3v.2l-.1.3V107l.2.2.2.2v.3l.2.2.2.2.2.2.2.2.2.2.2.1.2.2h.3l.2.2h.6l.2.1h1.4l.2-.2h.3l.2-.3h.2l.3-.3.2-.2v-.2l.3-.2.2-.2v-.3l.1-.2v-.1l.2-.3v-1.1z"/><path stroke-linecap="square" stroke-width=".3" d="M182.6 90.3v-2.8m.5-.6h-.4v.2h-.1v.3m.5-.5h11.4m.6.6v-.2l-.1-.1v-.3h-.4m.5.6v1.8m1 20.7h-2.4m-11.1-1v2.8m0 0v.2l.2.1h.3m0 .1h11.4m0 0h.3v-.2h.2v-.3m0 0V110m-84.7-19.7h2.4V88h9.8v23.3h-9.8V109h-2.4"/><path stroke-linecap="square" stroke-width=".3" d="M110.3 90.3v-4.8h14.6v28.2h-14.7v-4.8"/><path stroke-linecap="square" stroke-width=".2" d="M112.6 90.3V109m5.1-16.2h-1v-1.5h1zm-1-1.4l1 1.4m0-1.5l-1 1.5m1 5h-1v-1.4h1zm-1-1.4l1 1.4m0-1.5l-1 1.5m1 5h-1v-1.5h1zm-1-1.5l1 1.5m0-1.5l-1 1.5m1 5h-1v-1.4h1zm-1-1.4l1 1.4m0-1.5l-1 1.5"/><path stroke-linecap="square" stroke-width=".3" d="M124.8 89.3h-2.5m9.6 16v-.2l-.2-.3v-.4l-.2-.2-.1-.2h-.2l-.1-.3-.2-.2h-.2l-.2-.2-.2-.2h-1l-.3-.2h-.4l-.3.1h-.2l-.2.1-.3.2-.3.2-.2.2-.2.2v.1l-.3.2v.2l-.2.2v.2l-.2.3v1.4l.1.2.1.3.1.2.1.1.2.3.1.1.2.2.2.2h.2l.1.2.3.1.2.1h.2l.3.1h1.4l.2-.2h.2l.2-.2h.2l.2-.3.1-.2h.2l.1-.4h.2v-.2l.1-.3.1-.2v-.5l.1-.2v-.4z"/><path stroke-linecap="square" stroke-width=".2" d="M132.5 105.3v-.5l-.2-.2-.1-.3-.1-.2-.2-.3-.2-.2-.1-.1-.2-.3-.2-.1-.3-.2h-.2l-.2-.2h-.3l-.3-.2H128l-.3.1-.2.1-.3.1-.2.2-.2.1-.2.3-.2.1-.2.2-.1.3-.1.2-.2.3v.2l-.1.3v.2l-.1.3V107l.2.2.2.2v.3l.2.2.2.2.2.2.2.2.2.2.2.1.3.2h.2l.3.2h.5l.3.1h1.3l.3-.2h.2l.2-.3h.3l.2-.3.2-.2v-.2l.3-.2.2-.2v-.3l.2-.2v-.5l.2-.3v-.8z"/><path stroke-linecap="square" stroke-width=".3" d="M111.3 90.3v-2.8m.5-.6h-.4v.2l-.2.3m.5-.5h11.4m.7.6v-.2l-.1-.1v-.3h-.4m.5.6v1.8m1 20.7h-2.5m-11-1v2.8m0 0v.2l.1.1h.3m0 .1h11.4m0 0h.3l.1-.2h.2v-.3m0 0V110"/><path stroke-linecap="square" stroke-width=".2" d="M94.5 106.4v-.5l-.1-.3-.1-.2-.2-.3-.1-.2-.2-.2-.2-.2-.2-.2-.2-.2-.2-.1-.2-.2h-.3l-.2-.2h-.6l-.2-.1h-1.3l-.3.1-.2.1-.3.2-.2.1-.2.2-.2.2-.2.2-.2.2-.2.2-.2.3v.2l-.2.3v2.1l.1.3.1.2.2.2.1.3.2.2.2.2.2.2.2.1.2.2h.3l.2.2.3.1h.2l.3.1h1.8l.3-.3h.2l.2-.3h.2l.2-.2.2-.3.2-.2.1-.3.2-.2v-.2l.2-.3v-.3l.1-.2v-.8zm6.5 8.5v-.3l-.2-.1v-.1l-.1-.1h-.2l-.1-.1m.7.7v30m-.7.7h.3v-.2h.1l.1-.2v-.3m-.6.7H82.8m-.8-.8v.3l.1.2h.1l.2.1h.1l.2.1m-.7-.7v-30m.7-.7h-.3l-.2.2v.2l-.1.2m.7-.6h17.6M80 164.4h-2v-13.8h32.5v13.8H109"/><path stroke-linecap="square" stroke-width=".3" d="M109 177H80v-25.4h29z"/><path stroke-linecap="square" stroke-width=".2" d="M88.5 161.8h-6.7v-7.9h6.7zm9.5 0h-6.7v-7.9h6.8zm9.5 0h-6.7v-7.9h6.7zm-27.5-9h-.8V163h.8m29-10.2h.8V163h-.7m10.6 1.3h-2v-13.8h32.5v13.8H149"/><path stroke-linecap="square" stroke-width=".3" d="M149 177h-29.2v-25.4H149z"/><path stroke-linecap="square" stroke-width=".2" d="M128.4 161.8h-6.7v-7.9h6.7zm9.5 0h-6.7v-7.9h6.7zm9.5 0h-6.7v-7.9h6.7zm-27.6-9h-.7V163h.7m29.2-10.2h.7V163h-.7m-99.2 1.3h-2v-13.8H71v13.7h-1.4"/><path stroke-linecap="square" stroke-width=".3" d="M69.6 177H49.8v-25.4h19.9z"/><path stroke-linecap="square" stroke-width=".2" d="M58.3 161.8h-6.8v-7.9h6.8zm9.5 0H61v-7.9h6.8zm-18-9h-.9V163h.8m20-10.2h.7V163h-.8m133.6-3.8v-.3l-.1-.3-.2-.3-.2-.3-.2-.2-.2-.2-.2-.2-.2-.2-.3-.1-.3-.2-.3-.1-.2-.2h-.3l-.3-.1-.3-.1h-.3l-.4-.1H198l-.3.2h-.7l-.3.3h-.3l-.2.3-.3.2-.2.1-.3.2-.2.2-.2.2-.2.3v.3l-.3.3v.2l-.1.3-.1.3v.4l-.1.3V162.3l.2.3v.3l.2.3.2.3v.2l.2.3.2.2.2.3.3.2.2.2.3.2h.2l.3.3h.3l.3.2h.7l.3.2h1.5l.3-.2h.3l.3-.1.2-.1.3-.2.3-.1.3-.2.2-.2.2-.2.2-.3.2-.2.2-.3.2-.2v-.3l.2-.3.1-.3v-.3l.1-.3v-.6l.1-.3v-1.3l-.2-.4z"/><path stroke-linecap="square" stroke-width=".2" d="M196.5 161.6v.2h.2m-.2 0v-1.4m.3-.3h-.1l-.1.1v.1m.2-.2h1m0 0h.2v-.2m0 0v-1m.3-.3h-.3v.2m.3-.2h1.2m.3.3v-.2h-.2m.2.2v1m0 0v.2h.1m.1 0h1m.2.2v-.2m0 .3v1.3m-.1.3v-.2h.2m-.3.1h-1m0 0h-.3v.1m0 .1v1m-.1.3l.2-.2m-.3.3h-1.2m-.3-.4v.2h.2m-.1 0V162m0 0l-.1-.2h-.1m-.1 0h-1M5.4 132.5V61.2m5.5-5.6h62.7M5.4 132.4v1.3l.2.5.2.3v.3l.2.3.2.3.2.3.2.2.2.3.2.3.3.2.2.2.3.2.3.2h.3l.3.3H9l.3.2h.7l.3.1h64.6l.3-.2h.3l.3-.1.3-.2.3-.1.2-.2.3-.2.2-.2.3-.2.2-.3.2-.3.2-.2.2-.3.2-.3.1-.3.2-.3v-.3l.1-.4.1-.4v-.3l.2-.3V60.4l-.1-.3V60l-.1-.4-.1-.3-.2-.3-.1-.3-.2-.3-.2-.2-.2-.3-.3-.3-.1-.2-.3-.3-.2-.2h-.3l-.3-.3-.3-.2h-.3l-.3-.3h-.3l-.3-.2H9.7l-.3.1-.3.1-.3.2-.3.1-.3.2-.3.2-.3.1-.2.2-.3.3-.2.2-.2.3-.2.3-.2.2-.2.3-.1.3-.1.3-.2.3v.4l-.1.3v.3l-.1.4v.3m68 76.7H11"/><path stroke-linecap="square" stroke-width=".3" d="M65.8 76v-.6l-.2-.4-.1-.3v-.3l-.3-.3V74l-.3-.4-.2-.3-.2-.3-.2-.3-.2-.1-.3-.3-.1-.2-.4-.1-.3-.3-.3-.1-.3-.1-.3-.2-.3-.2h-1.4l-.3-.1H23.3l-.4.2h-.3l-.3.2H22l-.3.2-.3.2-.3.2-.3.2-.2.2-.3.2-.2.2-.2.3-.2.3-.2.3-.2.3v.3l-.2.3v.3l-.3.3v43.5l.2.4v.3l.2.3.1.3.2.3.2.2.2.3.2.3.2.2.3.3.2.2h.3l.3.3.3.1.3.1.3.2h.3l.3.2h.4l.3.1h37.9l.3-.2h.3l.3-.2.3-.1.3-.1.3-.3.3-.1.2-.2.3-.3.2-.2.2-.3.2-.3.2-.2.2-.3.1-.3.1-.3.1-.3.2-.4v-.6l.1-.4V76.4zm38.3 1.5l-.1-.4-.1-.5-.1-.5-.2-.5-.1-.4-.2-.5-.2-.4-.2-.4-.2-.4-.3-.5-.3-.4-.2-.3-.4-.4-.3-.4-.3-.3-.3-.4-.4-.3-.5-.3-.4-.3-.3-.3-.5-.1-.4-.3-.3-.3h-.5l-.5-.3-.5-.1h-.5l-.3-.3h-1l-.5-.3h-2.4l-.5.1h-.5l-.5.2-.4.1-.5.2-.4.2-.5.1-.4.3-.4.2-.5.2-.3.3-.4.3-.4.3-.4.3-.3.4-.3.3-.4.4-.3.4-.3.3-.2.4-.3.5-.2.4-.2.5-.2.4-.2.5v.4l-.3.5v.5l-.2.5v3.8l.1.5.1.4.2.5v.4l.3.5.2.5.2.4.2.4.3.4.2.4.3.4.3.4.4.4.3.3.3.3.4.3.4.4.4.2.3.3.5.3.4.2.4.2.6.2.4.2h.5l.4.3h.5l.5.2H95l.5-.1.4-.1.5-.2.5-.1.4-.2.5-.2.4-.2.4-.2.4-.3.4-.3.4-.2.4-.4.4-.3.3-.3.3-.3.3-.4.4-.4.2-.4.3-.4.3-.4.2-.4.2-.4.2-.5.2-.5v-.4l.3-.5v-.4l.2-.5v-3z"/><path stroke-linecap="square" stroke-width=".2" d="M95 78.4v-.5h-.2v-.3l-.3-.1-.3-.3H94l-.2-.2H92.3l-.3.2-.3.2-.2.2-.2.3-.1.3-.1.1V80l.2.2v.2h.2l.2.2v.3h.3v.1h.4l.2.1v.1H94l.2-.3h.2l.1-.3.2-.2h.1l.1-.3V80l.2-.2v-1.1zm1 6.5l-.2-.2v-.2l-.2-.1-.1-.4-.2-.1v-.2l-.3-.2-.2-.1-.2-.2h-.1l-.3-.2h-.5l-.2-.2H92l-.2.2h-.2l-.2.2-.2.1-.2.2-.2.2-.2.1v.3l-.2.2v.2l-.2.2v2l.2.2v.3l.2.2v.2l.3.2h.2l.2.3h.2l.2.2.2.2H92.5l.3.1h1.3l.2-.1.2-.2h.2l.2-.2.2-.2.2-.2v-.2l.2-.2.2-.3.2-.2v-1.5zm-3-2v5.8m3-3h-6m-3.2-24.5v-1h.7v1h.3m0 .6l.1-.1v-.4m0 .6h-.4v1h-.7v-1h-.2m0-.6v.5m0-.4h.2m2.3-.1v-1h.7v1h.3m0 .6v-.2l.1-.2v-.1H90m0 .5h-.2v1h-.7v-1m-.1-.6l-.1.2v.4m.1-.5h.1m2.4-.1v-1h.6v1h.3m0 .6v-.1l.1-.1v-.4m0 .6H92v1h-.6v-1h-.3m.2-.6l-.1.2v.4m0-.5h.3m2.3-.1v-1h.6v1h.3m0 .6l.1-.1v-.4m0 .5h-.3v1h-.6v-1h-.3m0-.6v.2h-.1v.4m0-.5h.4m2.1-.1v-1h.8v1h.3m0 .6v-.5m0 .5h-.3v1H96v-1h-.3m.1-.6V61.9m0-.5h.3m2.3-.1v-1h.7v1h.2m0 .6h.1v-.5m0 .5H99v1h-.6v-1H98m.1-.6V61.9m0-.5h.3m2.3-.1v-1h.7v1h.2m0 .6h.1v-.5m0 .5h-.3v1h-.7v-1h-.3m0-.6V61.9m0-.5h.3m2.3-.1v-1h.7v1h.3m0 .6v-.1l.1-.1v-.4m0 .6h-.3v1h-.8v-1h-.2m0-.6v.5m0-.4h.2m2.3-.1v-1h.7v1h.3m0 .6v-.1l.1-.1v-.4m0 .6h-.4v1h-.7v-1h-.2m0-.6v.5m0-.4h.2"/><path stroke-linecap="square" stroke-width=".2" d="M107.6 63.9l-1.4 1.4H86.6l-1.4-1.4v-5.5h22.4z"/><path stroke-linecap="square" stroke-width=".2" d="M106.8 63.5l-1 1H87l-1-1v-4.2h20.7zM41.7 33H22.4v-6.6h19.2zm0-7.6H22.4v1h19.2zm-8 0v1m-3.3-1v1M40.5 45V44l-.3-.4v-.5L40 43v-.3l-.3-.4-.2-.4-.2-.3-.3-.3-.2-.4-.1-.2-.4-.4-.3-.3-.3-.2-.3-.3-.4-.2-.3-.3-.3-.1-.4-.2-.4-.3h-.4l-.4-.2h-.3l-.4-.2h-.5l-.3-.1h-2.5l-.3.2H30l-.4.3h-.4l-.3.3-.4.2-.4.2-.3.2-.3.3-.4.2-.2.3-.3.3-.3.3-.3.3-.2.3-.2.3-.3.4-.1.4-.2.3-.1.3-.2.4v.4l-.2.4v.4l-.2.5v2l.1.5.1.4.1.3.3.3v.5l.2.4.2.4.3.3.2.3.2.3.2.3.4.3.3.3.2.3.4.2.2.3.4.2.4.2.3.2.4.2.3.1.4.1.4.1.4.2H32l.4.1h1.7l.4-.2h.3l.4-.3h.4l.4-.3.4-.2.3-.2.3-.2.4-.3.3-.2.3-.3.3-.3.3-.3.2-.3.2-.3.3-.4.2-.3.2-.4.2-.3.1-.4.1-.4.1-.3.2-.4v-2.1zm-20 0V44l-.2-.4v-.5l-.2-.4-.2-.3-.2-.3v-.5l-.4-.4-.2-.2-.2-.4-.3-.3-.2-.2-.4-.4-.2-.2-.4-.3-.3-.2-.3-.3-.4-.1-.3-.3-.4-.1-.4-.1-.4-.3h-.4l-.4-.1h-.4l-.4-.1H11l-.4.1-.4.2-.4.2h-.4l-.4.3-.3.2-.4.2-.3.2-.3.3-.4.2-.3.3-.3.3-.2.3-.3.3-.2.3-.3.3-.2.4-.2.4v.2l-.3.4v.4l-.2.4v.4l-.2.4v3l.2.3v.3l.2.4.2.4.1.4.2.4.2.3.3.4.2.3.3.3.2.3.3.3.3.3.4.2.3.3.3.2.4.2.3.2.4.2.4.1.4.1.4.1.4.2H12l.4.1H14.1l.4-.3h.4l.4-.2h.4l.5-.3.2-.2.5-.2.2-.2.3-.3.5-.2.1-.3.4-.3.2-.3.3-.3.2-.3.2-.4.3-.3.1-.4.2-.4.2-.4V48l.2-.3.1-.4v-.5l.1-.3v-1.3zm29.8 1.7h-5V34.5h5zm-1.8-12.1H47v-4.8"/><path stroke-linecap="square" stroke-width=".2" d="M48.5 29.6V29.3l-.3-.3H47.4l-.2.2v.5m1.4 0v4.7m0 12.1H47v4.8m0 0v.2h.1v.2h.1l.1.2h.2l.2.2h.5V52l.2-.1v-.5m.2 0v-4.7m0-14h1.3m0 0h.1l.2-.1h.2l.2-.2.2-.2v-.4h.2v-.4m0 0V28m0 0v-.5l-.2-.2V27h-.1v-.2h-.5l-.2-.2h-.2m0 .1h-4m0 0h-.5v.1l-.3.1v.1l-.2.1v.4l-.2.2v.2m0 0v3.6m0 0v.4l.1.2.1.1.1.1.1.1.2.2h.6m0 .2H47"/><path stroke-linecap="square" stroke-width=".3" d="M31.4 146.8l-.3-.8-.5-.6-.4-.6-.5-.6-.5-.5-.6-.5-.8-.5-.5-.4-.8-.4-.6-.3-.8-.3-.8-.2-.7-.1h-.9l-.6-.2h-.9l-.7.1-.8.2-.7.1-.8.3-.6.3-.8.4-.6.5-.6.5-.6.5-.6.5-.5.6-.4.5-.4.7-.4.7-.3.7-.3.7-.2.8-.1.7v.8l-.1.8v1.5l.2.8.2.8.3.7.3.7.4.7.4.7.4.6.5.6.6.5.6.6.6.4.7.4.7.4.6.3.8.3.7.2.8.1h.7l.9.1h1.5l.7-.2.8-.2.7-.3.8-.3.6-.4.7-.4.7-.4.5-.6.6-.5.5-.6.5-.6.4-.7.2-.7.5-.7.1-.7.3-.8.1-.8v-3l-.1-.8-.3-.8-.1-.7z"/><path stroke-linecap="square" stroke-width=".3" d="M32 146.8l-.5-.8-.3-.6-.4-.6-.5-.6-.5-.6-.6-.5-.6-.5-.7-.4-.6-.5-.8-.3-.6-.3-.8-.3-.8-.2-.7-.1h-3.2l-.6.2h-.9l-.6.4-.9.3-.5.3-.8.5-.6.4-.7.5-.5.5-.6.6-.3.6-.6.6-.4.7-.3.7-.3.6-.3.7-.2.8v1.5l-.2.8v1.6l.2.7.2.9.3.7.3.7.3.6.4.7.5.6.4.6.7.6.4.5.7.5.6.5.7.4.6.3.9.3.6.2.9.3h.6l.9.2h2.3l.7-.2.8-.3.7-.2.8-.3.6-.3.8-.4.5-.5.7-.5.6-.5.5-.6.5-.6.4-.6.4-.7.3-.7.4-.6.2-.7.2-.8v-.8l.2-.8v-2.3l-.2-.7-.2-.8-.2-.7z"/><path stroke-linecap="square" stroke-width=".2" d="M33 146.4l-.4-.7-.4-.7-.4-.7-.4-.7-.6-.5-.7-.6-.6-.5-.6-.5-.7-.5-.7-.4-.7-.3-.8-.4-.8-.3-.8-.2h-1.6l-.8-.2h-1l-.8.2h-.8l-.8.2-.8.3-.7.3-.7.4-.8.4-.7.5-.6.5-.6.5-.6.6-.5.6-.5.7-.5.5-.4.8-.4.8-.2.7-.3.8-.2.8v.8l-.2.9v2.4l.2.8.2.8.3.8.2.8.4.7.4.7.5.7.5.7.5.6.6.6.6.5.6.5.7.5.8.4.7.3.7.3.8.3h.8l.8.3H23.6l.8-.2.9-.1.7-.3.9-.3.7-.3.6-.4.8-.5.5-.5.7-.5.6-.6.6-.6.5-.7.4-.7.4-.7.4-.7.3-.8.2-.8.2-.8.2-.8v-3.2l-.2-.8-.2-1-.2-.6z"/><path stroke-linecap="square" stroke-width=".2" d="M21.6 157.3l-1.8-.4 2.8-11.8 1.6.4z"/><path stroke-linecap="square" stroke-width=".3" d="M39.8 13v-.6l-.3-.5v-.4l-.2-.4v-.5l-.3-.3v-.5l-.3-.4-.2-.5-.2-.3-.3-.3-.2-.5-.3-.4-.3-.3-.3-.3-.3-.4-.4-.3L36 6l-.4-.2-.3-.3-.4-.2-.4-.3-.4-.2-.5-.2-.4-.2h-.4l-.4-.2H32l-.4-.2H31l-.4-.2h-1.9l-.4.1h-.5l-.4.2H27l-.5.2-.4.1-.4.2-.5.2-.4.2-.3.3-.4.2-.4.3-.4.2-.3.3-.4.3-.3.4-.3.3-.3.3-.2.4-.3.4-.3.4-.2.3-.2.5-.2.4v.4l-.3.4v.6l-.2.3v.5l-.2.5v3l.2.5v.4l.2.5.2.3.1.5.2.4.2.4.2.4.3.4.3.3.2.4.3.3.3.4.3.3.4.3.3.3.4.3.4.2.4.3.3.2.4.2.5.2.4.2.4.1.5.2h.4l.4.2h1l.4.1h2.2l.4-.2h.5l.4-.3h.4l.4-.3.5-.2.4-.2.4-.2.4-.3.3-.2.4-.3.3-.3.4-.3.3-.3.3-.4.3-.3.3-.4.2-.3.3-.4.2-.4.2-.4.2-.4.1-.5.2-.4.1-.4.2-.5v-.4l.1-.5v-.9l.1-.4v-.5z"/><path stroke-linecap="square" stroke-width=".3" d="M36.1 13v-.7L36 12v-.3l-.1-.3-.3-.4-.2-.3v-.3l-.4-.4-.1-.3-.3-.2-.3-.3-.2-.3-.3-.2-.3-.2-.3-.2-.3-.2-.4-.2h-.3l-.4-.3h-.3l-.4-.2h-2.9l-.4.1-.3.1-.4.2-.3.1-.3.2-.4.3-.3.1-.3.2-.3.3-.2.2-.3.3-.2.2-.3.3-.2.3v.5l-.3.3-.2.3v.4l-.2.3v.7l-.2.3v2.3l.2.3.1.4.1.3.3.3.1.4.1.3.3.3.2.3.3.4.2.1.3.4.2.2.4.3.2.1.5.3h.2l.4.3h.3l.4.2h.3l.4.2H31l.4-.2h.3l.4-.2.3-.2.4-.1.3-.2.3-.2.3-.2.3-.3.2-.3.3-.2.2-.3.2-.3.3-.3.1-.3.2-.4.2-.3.1-.3.1-.4.1-.3v-.5l.1-.4v-1z"/><path stroke-linecap="square" stroke-width=".2" d="M29.8 13.8v-10m-.4 10v-10m0 10l-8.6 5m8.8-4.9l-8.8 5m9-5.1l8.6 5m-8.8-4.9l8.8 5"/><path stroke-linecap="square" stroke-width=".3" d="M51.3 6.7v-.5L51 6v-.3l-.2-.2V5l-.1-.3-.3-.3-.1-.3L50 4l-.2-.3-.1-.3-.4-.2L49 3l-.2-.3-.3-.1-.3-.1-.3-.3h-.3l-.3-.1H47l-.3-.3h-2l-.4.2H44l-.3.2h-.3l-.3.3h-.3l-.3.3-.3.2-.2.2-.3.3-.2.2-.2.3-.1.3-.3.3-.1.2-.1.4-.2.3-.2.3v.9L40 7v1.4l.1.2.1.4.2.3v.3l.3.4.2.2.2.3.2.3.2.3.2.2.3.2.2.3.3.2h.3l.3.3.3.2h.3l.3.2h.3l.4.2h2l.2-.2h.4l.3-.1.3-.1.3-.2.3-.2.3-.1.2-.2.3-.3.3-.2.2-.2.2-.3.2-.3.2-.3.2-.2v-.5l.2-.3.1-.3.1-.3.1-.3V7z"/><path stroke-linecap="square" stroke-width=".3" d="M49.3 6.8v-.3l-.1-.3-.2-.3v-.2l-.2-.3-.1-.2-.3-.2v-.3H48l-.2-.3-.1-.2h-.4l-.1-.2-.4-.1h-.1l-.4-.1H46l-.3-.1h-.8l-.3.1h-.2l-.3.3h-.2l-.3.2-.2.2-.1.2h-.3l-.1.3-.1.3-.3.2v.3l-.1.2-.1.3v.2l-.2.3v1.6l.2.2V9l.2.2.3.3v.1l.3.2.2.2.2.2.2.2.3.1.2.1.3.1.2.1.3.1h.5l.3.1h.8l.3-.2h.2l.3-.2h.2l.3-.2.2-.2.2-.2.2-.2v-.2l.3-.2.2-.2v-.3l.1-.2v-.3l.1-.2.1-.3V7zM21.6 23.6v-.5l-.2-.4v-.4l-.2-.5-.2-.4V21l-.3-.4-.2-.5-.2-.4-.2-.4-.3-.4-.2-.3-.3-.4-.3-.4-.3-.3-.3-.3-.4-.4-.3-.2-.4-.3-.3-.3-.4-.2-.4-.3-.4-.2h-.4L15 15l-.4-.2h-.4l-.5-.2h-.9l-.4-.2H9.6l-.4.2h-.4l-.5.3-.4.1-.4.3h-.4l-.5.2-.3.3-.4.3-.4.2-.4.3-.3.2-.3.4-.4.4-.3.2-.3.4-.3.4-.2.3-.2.4-.3.4-.2.4-.2.4-.2.4v.6l-.2.3v.4l-.2.6v.3l-.2.5v1.8l.1.5v.4l.2.5v.4l.2.4.1.5.2.4.2.4.2.4.3.4.2.4.3.4.2.3.3.4.3.3.4.3.3.3.3.3.4.3.4.3.4.2.3.2.5.2.4.2.4.2.4.1.5.2h.4l.5.2h.5l.5.1h2.7l.4-.2h.5l.4-.3h.4l.5-.3.4-.2.4-.2.4-.2.3-.2.3-.3.5-.3.2-.3.4-.3.3-.3.3-.3.3-.4.4-.3.1-.4.4-.4.1-.4.3-.4.1-.4.2-.4.1-.5.2-.4v-.4l.2-.5v-.9l.1-.5V24z"/><path stroke-linecap="square" stroke-width=".3" d="M18 23.8v-1.1l-.3-.4V22l-.3-.4v-.3l-.2-.3-.3-.3-.2-.3-.3-.3-.2-.3-.2-.2-.3-.3-.3-.2-.3-.2-.3-.1-.4-.3H14l-.3-.3h-.4L13 18h-3l-.3.2h-.3l-.4.2-.3.1-.3.3-.4.1-.3.3-.3.1-.2.4-.3.1-.3.4-.2.2-.2.3-.2.3-.2.4-.3.3-.1.3v.4l-.2.3v.3l-.2.4V26l.2.3v.4l.1.3.2.4.2.3.2.3.2.3.2.3.2.3.4.3.3.2.2.3.3.2.3.2.4.2.3.2.3.1.4.2h.3l.4.1.3.1h.4l.4.2h1l.5-.2h.7l.4-.2.3-.2h.3l.4-.3.3-.2.3-.2.3-.2.3-.3.2-.2.3-.3.2-.3.3-.3.2-.3.2-.3v-.3l.3-.4v-.3l.2-.4v-.6l.2-.5v-1z"/><path stroke-linecap="square" stroke-width=".2" d="M11.4 24.4v-10m.3 10v-10m-.1 10.3l-8.7 5m8.5-5.2l-8.7 5m8.9-4.8l8.7 5m-8.6-5.2l8.7 5"/><path stroke-width=".3" d="M133.4 40.3h-.1l-.1-.2-.2-.2h-.9l-.1.1-.1.1-.1.1v.8l.2.2.3.1v.2h.5l.1-.1.2-.1V41l.2-.1v-.5zm-2-10.6l1.4-1-.6-.8h-6l-.8.8.9 1zm.8 5l.5-.4.9-4.7-.6-.8-1.3 1.2-.7 3.7 1 1zm-8.1-.3h-.5l-.3-.1 1-4.7.8-.8.8 1-.7 3.8zm7.4.4l-1.2.9H125l-.7-1 1.2-.9h5.2zm-7.5 0h-.4l-.4.3-1 4.5.6.7 1.3-1 .7-3.4zm7.9.2h.3l.3.2-1 4.5-.7.7-1-1 .8-3.5zm-8.8 5.7l1.3-1.1h5.2l.9 1-1 .7h-6zm24.5-.4l-.2-.2-.1-.1-.2-.1h-.8v.2h-.2v.2l-.1.2v.5l.2.3h.3v.2h.6l.2-.1v-.1l.1-.2V41l.1-.2v-.3zm-2-10.6l1.4-1-.5-.7h-6l-1 .7 1 1zm.9 5l.4-.3.9-4.8-.6-.7-1.3 1-.7 3.8 1 1zm-8.3-.2h-.4l-.4-.2 1-4.7.8-.8 1 1-.7 3.8zm7.5.3l-1.2.9h-5.2l-.8-1 1.2-.9h5.2zm-7.6 0h-.3l-.5.3-1 4.5.6.7 1.4-1 .6-3.4zm8 .2h.4l.2.2-.8 4.5-1 .7-.9-1 .7-3.5zm-8.8 5.7l1.2-1.1h5.3l.8 1-.8.7h-6zm24.4-.4l-.1-.2-.1-.1-.1-.1h-1v.2h-.1v.2l-.1.2v.5l.2.3h.3l.2.2h.4v-.1l.2-.1.1-.2.1-.1v-.5zM160 29.7l1.2-1-.5-.7h-6l-.8.7.8 1zm.7 5l.5-.3 1-4.8-.6-.7-1.4 1-.8 3.8 1 1zm-8.2-.2h-.5l-.2-.2 1-4.7.8-.8.9 1-.7 3.8zm7.5.3l-1.3.9h-5.2l-.7-1 1.3-.9h5zm-7.6 0h-.4l-.4.3-1 4.5.7.7 1.3-1 .6-3.4zm8 .2h.3l.3.2-1 4.5-.8.7-.9-1 .7-3.5zm-8.9 5.7l1.3-1.1h5.3l1 1-1 .7h-6zm24.5-.4l-.2-.2V40l-.2-.1h-.7l-.2.2-.2.2v.7h.2v.3h.2l.3.2h.4l.2-.1v-.1l.2-.2v-.6zM174 29.7l1.3-1-.5-.7h-6l-.9.7 1 1zm.8 5l.4-.3 1-4.8-.5-.7-1.4 1-.8 3.8 1 1zm-8.3-.2h-.3l-.3-.2 1-4.7.7-.8 1 1-.8 3.8zm7.6.3l-1.3.9h-5.2l-.7-1 1.2-.9h5.2zm-7.6 0h-.3l-.5.3-.9 4.5.6.7 1.3-1 .7-3.4zm8 .2h.3l.3.2-1 4.5-.7.7-1-1 .7-3.5zm-8.9 5.7l1.3-1.1h5.3l.9 1-.8.7h-6z"/><path stroke-linecap="square" stroke-width=".2" d="M200.5 2l-.3-.2h-1l-.2.1h-.4l-.2.2-.4.1h-.2l-.3.2-.3.3-.2.2-.3.2-.2.2-.2.2-.2.3-.2.2-.2.3-.1.3-.1.3-.1.2-.2.4V6l-.1.3v1.5l.3.4v.2l.1.2.1.4.2.2.2.3.2.2.2.3.2.2.3.2.2.1.3.1.3.2.2.1.4.1.2.1h.4l.2.2H201l.3-.3h.3l.3-.2.3-.2h.3l.2-.3.3-.2.2-.1.3-.3.1-.2.2-.3.1-.2.2-.3v-.3l.2-.2v-.4l.2-.3V5l-.3-.2v-.3l-.2-.3-.1-.3-.3-.2-.1-.3-.3-.2-.2-.2-.3-.2-.2-.2-.3-.2-.2-.1-.3-.1-.3-.2h-.6z"/><path stroke-linecap="square" stroke-width=".2" d="M197.5 7.3v.2h.2m-.2-.1V5.9m.2-.2h-.1l-.1.1V6m.2-.1h1m0-.1h.2v-.3m.2.2V4.5m0-.3v.1l-.1.1m.2-.2h1.3m.3.2h-.2v-.2m0 .3v1m.2 0v.2h.2m0 .1h1m.3.2l-.2-.1m.2 0v1.5m-.3.1h.2v-.3m-.1.3h-1m-.1 0h-.2v.1m-.1.1v1m-.2.4l.2-.1v-.1m-.2 0h-1.3m-.2 0V9h.2m-.1-.2V7.8m-.1 0v-.1l-.2-.1m0 0h-1M11.5 5.2l-.1-.3-.2-.3-.2-.2-.2-.3-.2-.2-.2-.2-.3-.2-.3-.2-.2-.2-.3-.1-.3-.2h-.3l-.3-.1-.3-.1h-.3l-.3-.1H6l-.3.2h-.3L5 3h-.3l-.3.3-.2.2-.2.2-.3.2-.2.2-.2.3-.2.2L3 5l-.2.3-.1.3-.1.2-.1.4-.1.2V7l-.1.3v1.2l.3.3V9l.2.3.2.3v.2l.3.3.2.2.2.3.3.2.2.2.2.2h.3l.3.3h.3l.3.2h.6l.3.2h1.8l.3-.2H9l.3-.2.3-.2.2-.1.3-.2.3-.2.2-.2.2-.3.2-.2.2-.3.2-.2v-.3l.2-.3.2-.3V8L12 8V6.7l-.1-.4V6l-.1-.4-.2-.2z"/><path stroke-linecap="square" stroke-width=".2" d="M4.8 8h.3m-.3 0V6.7m.3-.3h-.3v.2m.3-.1h1m0-.1l.2-.1v-.1m0 0v-1m.3-.3h-.4v.2m.3-.2h1.3m.3.2V5H8v-.1h-.1m.2.3v1m0 0v.2m.2 0h1m.3.2l-.1-.2h-.1m.2.3V8m-.2.2l.2-.1V8m-.2.2h-1m-.1 0H8m0 .2v1m-.1.3V9.3m0 .3H6.6m-.3-.3v.3h.3m-.3-.2V8.4m0 0V8H6m0 0H5m5.4 150.4l-.2-.2-.3-.2-.3-.2-.2-.1-.3-.2-.3-.1-.4-.1h-.3L8 157H6.2l-.3.2h-.3l-.3.1-.3.1-.3.2-.3.1-.2.2-.3.2-.2.2-.2.3-.2.2-.2.3-.1.2-.2.3-.1.3-.1.3-.1.3-.1.3v.6l-.1.3v1l.2.3v.4l.2.3v.3l.3.2v.3l.3.3.2.2.2.2.2.2.3.2.2.2.3.1.3.1.3.1.3.2h.3l.3.1.3.1h1.8l.2-.2.4-.2h.3l.3-.2.2-.2.3-.2.3-.1.2-.2.2-.2.2-.2.2-.3.2-.3v-.2l.1-.3.1-.3.1-.3v-.3l.2-.4v-1.8l-.3-.3v-.4l-.1-.3-.1-.3-.2-.2-.2-.3-.2-.2z"/><path stroke-linecap="square" stroke-width=".2" d="M4.6 162.5v.1h.2v.1m-.2-.2v-1.3m.3-.3h-.2v.2m.1-.2h1.3m-.1 0h.2v-.2m0 .2v-1.2m.3-.2H6v.1m.2 0h1.4m.2 0h-.1m.3.1v1m-.1 0v.3m.2 0h1m.3.2l-.1-.2h-.2m.3.2v1.3m-.3.2h.3v-.2m-.3.3h-1m-.1 0H8v.1m0 0v1m-.2.3v-.1m0 .3H6.4m-.3-.5v.2l.2.1h.2m-.3-.3v-1m0 0H6m0 0H4.9"/><path stroke-linecap="square" stroke-width=".3" d="M94 106.4v-.2l-.2-.3v-.4l-.3-.2v-.2l-.3-.1v-.2l-.3-.2-.2-.1-.2-.1-.2-.2h-.2l-.3-.1h-.4l-.3-.1H90.2l-.2.2-.3.2-.3.2-.2.2-.2.2-.3.3v.2l-.2.2v.2l-.2.3v1.4l.1.2.1.3.1.2h.1l.2.4h.1l.2.3.2.2h.2l.1.2h.3l.2.2h1.9l.2-.1.2-.1.2-.1.2-.1.2-.2.1-.2.2-.1.1-.3.2-.1v-.2l.1-.3.1-.2v-.5l.1-.2v-.3z"/></g><text style="line-height:1.25;-inkscape-font-specification:'sans-serif, Normal';font-variant-ligatures:normal;font-variant-caps:normal;font-variant-numeric:normal;font-feature-settings:normal;text-align:center" x="221.3" y="43.7" fill="#969696" font-family="sans-serif" font-size="6.7" font-weight="400" letter-spacing="0" text-anchor="middle" word-spacing="0"><tspan x="221.3" y="43.7" stroke-width=".2" style="-inkscape-font-specification:'sans-serif, Normal';font-variant-ligatures:normal;font-variant-caps:normal;font-variant-numeric:normal;font-feature-settings:normal;text-align:center">2</tspan></text><text x="221.2" y="60.3" fill="#969696" font-family="sans-serif" font-size="6.7" font-weight="400" letter-spacing="0" text-anchor="middle" word-spacing="0" style="line-height:1.25;-inkscape-font-specification:'sans-serif, Normal';font-variant-ligatures:normal;font-variant-caps:normal;font-variant-numeric:normal;font-feature-settings:normal;text-align:center"><tspan x="221.2" y="60.3" stroke-width=".2" style="-inkscape-font-specification:'sans-serif, Normal';font-variant-ligatures:normal;font-variant-caps:normal;font-variant-numeric:normal;font-feature-settings:normal;text-align:center">3</tspan></text><text x="221.2" y="76.6" fill="#969696" font-family="sans-serif" font-size="6.7" font-weight="400" letter-spacing="0" text-anchor="middle" word-spacing="0" style="line-height:1.25;-inkscape-font-specification:'sans-serif, Normal';font-variant-ligatures:normal;font-variant-caps:normal;font-variant-numeric:normal;font-feature-settings:normal;text-align:center"><tspan x="221.2" y="76.6" stroke-width=".2" style="-inkscape-font-specification:'sans-serif, Normal';font-variant-ligatures:normal;font-variant-caps:normal;font-variant-numeric:normal;font-feature-settings:normal;text-align:center">4</tspan></text><text x="221.2" y="85.5" fill="#969696" font-family="sans-serif" font-size="6.7" font-weight="400" letter-spacing="0" text-anchor="middle" word-spacing="0" style="line-height:1.25;-inkscape-font-specification:'sans-serif, Normal';font-variant-ligatures:normal;font-variant-caps:normal;font-variant-numeric:normal;font-feature-settings:normal;text-align:center"><tspan x="221.2" y="85.5" stroke-width=".2" style="-inkscape-font-specification:'sans-serif, Normal';font-variant-ligatures:normal;font-variant-caps:normal;font-variant-numeric:normal;font-feature-settings:normal;text-align:center">5</tspan></text><text style="line-height:1.25;-inkscape-font-specification:'sans-serif, Normal';font-variant-ligatures:normal;font-variant-caps:normal;font-variant-numeric:normal;font-feature-settings:normal;text-align:center" x="221.1" y="13" fill="#969696" font-family="sans-serif" font-size="6.7" font-weight="400" letter-spacing="0" text-anchor="middle" word-spacing="0"><tspan x="221.1" y="13" stroke-width=".2" style="-inkscape-font-specification:'sans-serif, Normal';font-variant-ligatures:normal;font-variant-caps:normal;font-variant-numeric:normal;font-feature-settings:normal;text-align:center">1</tspan></text><path fill="none" stroke="#646464" stroke-width=".3" d="M190 68.2l21.3 9.4h12.2M169.2 68.4l41.6 18h12.6M176.8 28.7l34.2-15h12.5"/><text x="201.1" y="37.7" font-family="sans-serif" font-size="8" font-weight="400" letter-spacing="0" word-spacing="0" style="line-height:2.06999993"><tspan style="line-height:2.06999993;-inkscape-font-specification:esint10;text-align:center" x="201.1" y="37.7" font-family="esint10" text-anchor="middle">C</tspan><tspan style="line-height:2.06999993;-inkscape-font-specification:esint10;text-align:center" x="201.1" y="54.3" font-family="esint10" text-anchor="middle">↑</tspan><tspan style="line-height:2.06999993;-inkscape-font-specification:esint10;text-align:center" x="201.1" y="70.9" font-family="esint10" text-anchor="middle">↓</tspan></text><path fill="none" stroke="#646464" stroke-width=".3" d="M190 35l21.3 9.5h12.2M190 51.9l21.3 9.4h12.2"/></svg>