<svg xmlns="http://www.w3.org/2000/svg" width="206.7" height="177.2"><g fill="none" stroke="#222831" stroke-miterlimit="10"><path stroke-linecap="square" stroke-width=".2" d="M119.7 168.6h-10.6M94.7 29.7V29l-.2-.6v-.6l-.1-.6-.2-.6-.1-.6-.2-.6-.2-.5-.2-.6-.2-.6-.3-.5-.2-.6-.3-.5-.3-.5-.3-.6-.4-.4-.3-.5-.4-.5-.4-.5-.4-.5-.4-.4-.4-.4-.5-.5-.4-.3-.5-.4-.5-.4-.5-.3-.5-.4-.5-.3-.5-.3-.5-.3-.6-.3-.5-.2-.6-.2-.6-.2-.6-.2-.5-.2-.6-.2h-.6l-.6-.2H79l-.6-.1h-.6l-.6-.1h-2.4l-.6.1-.6.1-.6.1-.6.1-.6.2-.6.2-.6.2-.6.2-.5.2-.6.2-.5.3-.6.3-.5.3-.5.3-.5.4-.5.3-.5.4-.5.4-.4.3-.4.5-.5.4-.4.4-.4.5-.4.5-.3.5-.4.5-.3.4-.3.6-.4.5-.2.5-.3.6-.2.5-.2.6-.3.6-.2.5-.1.6-.2.6v.6l-.2.6-.1.6v.6l-.1.6v3l.1.6v.6l.2.6.1.6.2.6.1.6.2.6.3.6.2.5.2.5.3.6.2.5.4.6.3.5.3.5.4.5.3.4.4.5.4.5.4.4.5.4.4.5.4.4.5.3.5.4.5.4.5.3.5.3.5.3.6.3.5.3.6.2.5.3.6.1.6.3.6.1.6.2.6.1.6.1h.6l.6.2h3.6l.6-.1h.6l.6-.2.6-.1.6-.2.5-.1.6-.3.6-.1.6-.3.5-.2.6-.3.5-.3.5-.3.5-.3.5-.3.5-.4.5-.4.5-.3.4-.4.5-.5.4-.4.4-.4.4-.5.4-.5.4-.4.3-.5.4-.5.3-.5.3-.6.3-.5.2-.6.3-.5.2-.5.2-.6.2-.6.2-.6.1-.6.2-.6V34l.1-.6.1-.6v-.6l.1-.6v-1.2z"/><path stroke-linecap="square" stroke-width=".2" d="M71 12.3l-.6.2-.6.2-.6.3-.6.2-.6.3-.5.3-.6.3-.5.3-.6.3-.5.4-.5.4-.5.4-.5.4-.5.4-.4.5-.5.4-.4.5-.4.5-.4.5-.4.5-.3.5-.4.5-.3.6-.3.5-.3.6-.3.6-.2.5-.3.6-.2.6-.2.6-.2.6-.1.7-.2.6v.6l-.2.6V29.6l-.1.7v2.5l.1.6.1.6.1.7.2.6.1.6.2.6.2.6.2.6.2.6.3.6.3.6.2.5.4.6.3.6.3.5.4.5.4.5.4.5.4.5.4.5.4.4.5.5.5.4.4.4.5.4.6.4.5.4.5.3.6.3.5.3.6.3.6.3.6.3.5.2.6.2.6.2.7.2.6.1.6.1.6.2h.6l.7.1.6.1h3.2l.6-.1.6-.1.7-.2h.6l.6-.2.6-.2.6-.2.6-.2.6-.2.6-.3.6-.3.5-.3.6-.3.5-.3.6-.3.5-.4.5-.4.5-.4.5-.4.4-.4.5-.5.5-.4.4-.5.4-.5.4-.5.3-.5.4-.5.4-.5.3-.6.3-.6.3-.5.3-.6.2-.6.2-.6.3-.6.1-.6.2-.6.2-.6.1-.6.1-.7.1-.6v-.6l.1-.6V28.3l-.2-.6-.1-.6-.1-.6-.2-.7-.2-.6-.2-.6-.2-.6-.2-.6-.3-.5-.2-.6-.3-.6-.3-.5-.4-.6-.3-.5-.4-.5-.3-.5-.5-.5-.4-.5-.4-.5-.4-.4-.5-.5-.5-.4-.4-.4-.5-.4-.6-.4-.5-.4-.5-.3-.6-.3-.5-.3-.6-.3-.6-.3-.6-.2-.6-.3-.6-.2-.6-.2"/><path stroke-linecap="square" stroke-width=".2" d="M69.7 10.5l-.6.3-.6.2-.7.3-.6.2-.6.3-.5.3-.6.4-.5.3-.6.4-.5.4-.6.4-.5.4-.5.4-.5.5-.4.4-.5.5-.5.5-.4.5-.4.5-.4.6-.4.5-.3.5-.4.6-.3.6-.3.6-.3.5-.3.6-.3.7-.2.6-.2.6-.2.6-.2.7-.2.6-.1.7-.1.6-.1.7v.6l-.2.7v3.3l.1.7v.6l.2.7.1.6.2.7.1.6.2.6.2.7.2.6.3.6.2.6.3.6.3.6.3.6.3.6.4.5.3.6.4.5.4.6.4.5.5.5.4.5.5.4.5.5.4.5.6.4.5.4.5.4.6.4.5.3.6.4.5.3.6.3.6.3.6.3.6.3.6.2.7.2.6.2.6.2.7.2.6.1.7.1.6.1.7.1H75.6l.7.1h1.9l.7-.1h.7l.6-.2.7-.1.6-.1.6-.2.7-.2.6-.2.7-.2.6-.3.6-.2.6-.3.6-.3.6-.3.5-.4.6-.3.5-.4.6-.3.5-.4.5-.5.5-.4.5-.4.5-.5.4-.5.5-.5.4-.4.4-.6.4-.5.4-.5.4-.6.3-.6.3-.5.4-.6.2-.6.3-.6.3-.6.2-.6.3-.7.1-.6.2-.6.2-.7.1-.6.1-.7.2-.6v-1.4l.1-.6v-3.3l-.1-.7-.2-.6v-.7l-.2-.6-.2-.7-.2-.6-.2-.6-.2-.7-.2-.6-.3-.6-.3-.6-.2-.6-.4-.6-.3-.5-.3-.6-.4-.6-.4-.5-.4-.5-.4-.5-.4-.5-.5-.5-.4-.5-.5-.4-.5-.5-.5-.4-.5-.5-.5-.3-.6-.4-.5-.4-.6-.3-.5-.4-.6-.3-.6-.3-.6-.3-.6-.2-.7-.3-.6-.2M112 12H93.3V2H112z"/><path stroke-linecap="square" stroke-width=".2" d="M101.3 6.9v-.6l-.2-.2v-.3l-.2-.2-.2-.3v-.2l-.3-.2-.2-.2-.2-.1-.2-.2-.2-.2h-.3l-.2-.2h-.3l-.2-.1h-.3l-.3-.1h-1l-.3.1-.3.1-.2.1-.2.1-.3.2-.2.2-.2.1-.2.2-.1.2-.2.2-.2.3v.2l-.2.3v.2l-.1.3v.3l-.1.2v1.1l.1.2v.3l.2.2.1.3.2.2.2.2.1.3.2.1.2.2.2.2.3.1.2.1.2.1.3.1.3.1h1.8l.3-.2h.2l.3-.2.2-.1.2-.2.2-.2.2-.1.2-.3.1-.2.2-.2.1-.3.1-.2.1-.3v-.2l.1-.3v-.8zM111 6.9v-.6l-.2-.2-.1-.3-.1-.2-.2-.3-.1-.2-.2-.2-.2-.2-.2-.1-.2-.2-.2-.2h-.3l-.2-.2h-.3l-.2-.1h-.3l-.3-.1h-1.1l-.2.1-.3.1-.2.1-.2.1-.3.2-.2.2-.2.1-.2.2-.2.2-.1.2-.2.3v.2l-.2.3-.1.2v.3l-.1.3v1.5l.2.3.1.2.1.3.2.2.1.2.2.3.2.1.2.2.2.2.3.1.2.1.2.1.3.1.2.1h1.9l.3-.2h.2l.3-.2.2-.1.2-.2.2-.2.2-.1.2-.3.1-.2.2-.2.1-.3.1-.2.1-.3v-.2l.1-.3v-.8z"/><path stroke-linecap="square" stroke-width=".3" d="M118.7 9.6h75.7v1.7h-75.7z"/><path stroke-linecap="square" stroke-width=".2" d="M142.2 11.4v2M142.2 13.4H160M143 13.4v4.8M160 11.4v2M159.4 13.4v4.8M159.4 18.2H143M134.6 44.4h-14V25h14zM149 44.4h-14V25h14zM163.4 44.4h-14.1V25h14zM177.8 44.4h-14.1V25h14z"/><path stroke-linecap="square" stroke-width=".3" d="M199.4 29.7v-.4h-.2V29h-.2l-.2-.1h-.1M199.4 29.7v10M198.7 40.3H199l.2-.2.1-.1V39.7l.1-.1M198.7 40.4h-9.8M188.2 39.6V39.9l.1.2h.1l.1.1h.1l.2.1M188.1 39.7v-10M188.9 29h-.4l-.1.1v.1l-.1.1-.1.1V29.7M189 29h9.7M197 34.1v-.5l-.2-.2-.1-.3-.1-.2-.2-.2-.1-.2-.2-.2-.2-.1-.2-.2-.2-.2h-.3l-.2-.2h-.2l-.3-.1h-.2l-.3-.1h-1l-.2.1-.3.1-.2.1-.2.1-.2.2-.3.2-.1.1-.2.2-.2.2-.1.2-.1.2-.1.3-.1.2-.1.3v1.8l.2.2v.2l.2.3.1.2.2.2.2.2.1.1.3.2.2.1.2.2h.2l.3.1.2.1h.3l.2.1h1l.3-.2h.2l.2-.1.3-.2.2-.1.2-.2.2-.1.2-.2.1-.2.2-.2V36l.2-.2.1-.2v-.3l.1-.2v-.8zM190.7 30.3V30h-.1l-.1-.1-.1-.1h-.2v-.1H189.3l-.2.2-.1.1v.2h-.1v.7l.1.1v.1l.1.1.2.1.2.1h.8v-.2h.2V31l.1-.2v-.1l.1-.2zM198.6 30.3v-.1l-.1-.2h-.1l-.1-.1-.1-.1h-.1l-.1-.1h-.8l-.1.2-.2.1v.2h-.1v.7l.1.1.1.1v.1l.2.1h.1l.1.1h.8v-.2h.2V31h.1v-.2l.1-.1v-.2zM190.7 38.5v-.2l-.1-.2h-.1l-.1-.2H189.4l-.2.2-.1.1v.1l-.1.2v.6l.1.1v.1l.1.1.2.1.2.1h.6l.2-.1.2-.2V39h.1v-.2l.1-.2zM198.6 38.5v-.2h-.1l-.1-.2h-.1l-.1-.2h-1l-.1.2-.2.1v.1l-.1.2v.6l.1.1.1.1v.1l.2.1h.1l.1.1H198l.2-.1.2-.2.1-.2.1-.2v-.2zM199.4 46.3V46l-.2-.1-.1-.2h-.4M199.4 46.4v9.9M198.7 57H199v-.1h.2v-.1l.1-.1v-.2l.1-.2M198.7 57h-9.8M188.2 56.3v.4h.1l.1.1.1.1H188.8v.1M188.1 56.3v-10M188.9 45.6h-.2v.1h-.2l-.1.1-.1.2-.1.1v.2M189 45.7h9.7M197 50.8v-.5l-.2-.2-.1-.3-.1-.2-.2-.2-.1-.2-.2-.2-.2-.2-.2-.1-.2-.2-.3-.1-.2-.1h-.2l-.3-.2H193l-.2.1h-.3l-.2.2-.2.1-.2.2-.3.1-.1.2-.2.2-.2.2-.1.2-.1.2-.1.3-.1.2-.1.2v1.8l.2.3v.2l.2.2.1.2.2.2.2.3h.1l.3.3.2.1.2.2h.2l.3.1.2.1h.5l.3.1h.5l.2-.1h.3l.2-.1.2-.1.3-.2.2-.1.2-.2.2-.1.2-.3.1-.2.2-.2v-.2l.2-.2.1-.3v-.2l.1-.3v-.7zM190.7 47v-.2l-.1-.2h-.1l-.1-.1-.2-.1H189.3l-.2.1v.1l-.1.1v.1l-.1.2V47.7l.1.1v.1l.1.1.2.1.2.1h.8v-.2h.2v-.2l.1-.2v-.1l.1-.2v-.1zM198.6 47v-.2h-.1l-.1-.2h-.1l-.1-.1-.1-.1H197.2l-.1.1v.1l-.2.1v.1l-.1.2V47.7l.1.1.1.1v.1l.2.1h.1l.1.1h.8v-.2h.2v-.2h.1v-.2l.1-.1V47zM190.7 55.2V55l-.1-.2h-.1l-.1-.2h-.2l-.2-.1h-.5l-.1.1-.2.1v.1l-.1.1v.1l-.1.2V55.9l.1.1v.1l.1.1.2.1.2.1h.6l.2-.1.2-.2v-.2l.1-.1v-.1l.1-.2v-.1z"/><path stroke-linecap="square" stroke-width=".2" d="M45.4 7.3V1.8M45.7 7.3V1.8M45.6 7.6l-4.8 2.7M45.4 7.3L40.7 10M45.6 7.6l4.8 2.7M45.7 7.3l4.8 2.8M71 6h11.1M82.1 6v6.4M81.8 11.2H71.3M71 12.4V6M69.7 10.6V4.8M69.7 4.8h13.7M83.4 4.8v5.8M81.6 11.8h-10M71.3 11.2V12.9l.1.3.2.3M81.6 13.5l.1-.3v-.3l.1-.4v-1.3M71.5 11.7V12.6l.1.3.1.2v.3M81.4 13.4v-.3l.1-.2v-.3l.1-.3v-.6M137.6 11.4v1h-2.5v-1zM131 11.3h2.5v.6h-2.6zM125.3 11.3h3.3v1h-3.3zM119.9 11.3h4.5v.7H120zM138.5 11.3h2.9v1h-2.9zM174.9 11.4v1h-2.3v-1zM186.1 11.3h2.6v.6h-2.6zM180.5 11.3h3.3v1h-3.3zM176 11.3h2.9v1H176zM161.6 11.3h3.3v1h-3.3zM168.5 12.4H166v-1h2.5zM168.5 11.5v-.2h3v1h-2.7M56.6 21.5h-4.2v-16h4.2z"/><path stroke-linecap="square" stroke-width=".2" d="M56.6 4.5h-.4l-.2.2-.1.1-.2.1-.1.2-.1.1-.1.2v.2M56.6 4.5V4h-.1M56.5 4.1h-.2l-.2.1-.2.1-.2.2h-.1l-.2.2-.1.2-.1.1-.1.2-.1.2v.2M53.7 5.6v-.2l-.1-.2-.2-.1v-.2l-.2-.1-.2-.1-.2-.1h-.1l-.2-.1M52.6 4.1h-.2V4.5M54.1 5.6v-.2l-.2-.2V5l-.2-.1-.1-.2-.2-.1v-.1l-.3-.2H53l-.3-.1-.1-.1"/><path stroke-linecap="square" stroke-width=".2" d="M53.3 5.6l.2-.1.1-.2M55.4 5.3l.2.2h.1M54.1 21.5v1.3M54.2 22.8V23.1H54.9V22.8M55 22.8v-1.3"/><path stroke-linecap="square" stroke-width=".2" d="M53.7 21.5h-.1l-.2.2v.1l-.2.2v.1l-.1.1v.4l-.1.1V23.3l.1.1.1.1.1.2.1.1.2.1v.1l.3.1h.1l.2.2h.7l.1-.1h.2l.1-.2h.2l.1-.2.1-.1.1-.2v-.1l.2-.1v-1.1l-.1-.1V22l-.2-.2-.1-.1-.1-.1-.2-.1M53.8 5L54 5v-.2l.1-.2v-.8l-.2-.1v-.2l-.1-.1-.2-.2h-.1l-.2-.1-.1-.1h-.2l-.1-.1H52.2l-.3.1h-.1l-.2.2h-.1l-.1.2-.1.1-.1.2v.1L51 4V4.7l.1.2V5l.2.2.1.1.1.1.1.1.2.1h.1l.2.2H52.4M56.6 5.8H56.9l.2-.1h.2l.1-.2h.1l.1-.2.2-.1V5L58 5v-.2l.1-.1V3.7l-.1-.1-.1-.2-.2-.1v-.1l-.2-.1-.1-.1-.2-.1h-.2l-.1-.1H56L56 3h-.2l-.2.1-.1.1-.1.2h-.1l-.1.3v.1L55 4V4l-.1.2v.5l.1.2V5M20.2 43.2V43l.2-.3v-.4l.1-.2v-1.2l-.2-.2v-.2l-.2-.2V40l-.2-.2-.2-.2-.2-.1-.2-.2-.1-.1-.2-.1-.3-.1h-.2l-.2-.2h-1.4M8 39l-.2-.1H6.7l-.2.1h-.2l-.3.2h-.2l-.2.2-.2.2-.1.1-.2.2-.1.2-.2.2v.2l-.2.2v.5l-.1.2V42.5l.1.2.1.3.1.2M17 52.5h1.5l.2-.1.3-.1.2-.1.1-.1.2-.2.2-.2.2-.1.1-.2.1-.2.2-.2v-.2l.1-.3v-.2l.1-.2v-1.2l-.1-.2-.1-.2-.1-.2M4.8 48.3v.2l-.2.2v.2l-.1.3V50.5l.1.3.1.2.1.2.2.2.1.2.2.1.1.2.2.2h.2l.2.2h.3l.2.2H8M40.1 43.2l.1-.2v-.3l.2-.2V41l-.1-.2-.1-.2-.1-.2-.2-.2-.1-.2-.2-.2-.1-.1-.2-.2-.2-.1-.2-.1-.2-.1h-.3l-.2-.2H37M28 39l-.2-.1h-1.2l-.2.1h-.2l-.3.2h-.2l-.1.2-.2.2-.2.1-.2.2-.1.2-.1.2-.1.2-.1.2-.1.2v.3l-.1.2V42.3l.1.2v.2l.1.3.1.2M36.9 52.5h1.5l.3-.1.2-.1.2-.1.2-.1.2-.2.1-.2.2-.1.1-.2.2-.2V51l.2-.2v-.3l.1-.2V49l-.1-.2v-.2l-.2-.2M24.7 48.3v.2l-.1.2-.1.2v.3l-.1.2V50.3l.1.2v.3l.2.2v.2l.2.2.1.2.2.1.2.2.2.2h.1l.2.2h.3l.2.2H28M48.5 48.5h1.3M51 49.6V49.3l-.1-.1-.1-.2V49l-.2-.1v-.1h-.2l-.2-.2h-.4M51 49.6v3.7M49.8 54.4h.4l.2-.1.1-.1h.1l.1-.2.1-.1v-.2l.1-.1V53.3M49.8 54.5h-4.1M44.6 53.3v.4l.1.2h.1l.1.2h.1l.2.2.3.1H45.8M44.6 53.3v-3.7M45.8 48.4H45.5l-.2.1-.1.1H45v.2h-.2v.2l-.1.2v.1l-.1.2M45.7 48.5h1.4M80 168.6H69.6"/><path stroke-linecap="square" stroke-width=".5" d="M49.7 168.6H.2V.3h206.3v168.3h-57.6"/><path stroke-linecap="square" stroke-width=".2" d="M94.2 7h7.2M94.2 7.7h7.2M107 11l1.5-7M106.4 10.9l1.5-7M157 53v22.4l1.4 1.4h9V51.6h-9z"/><path stroke-linecap="square" stroke-width=".3" d="M167.4 47.2V56l.8.8v15l-.8.7v8.7l3.5-1.9v-30z"/><path stroke-linecap="square" stroke-width=".2" d="M94 29.7v-.6l-.1-.6-.1-.5-.1-.6-.2-.6-.1-.6-.2-.6-.2-.5-.2-.6-.2-.6-.3-.5-.2-.5-.3-.6-.3-.4-.3-.6-.4-.5-.3-.4-.4-.5-.4-.5-.4-.4-.4-.4-.4-.5-.5-.3-.4-.4-.5-.4-.5-.4-.5-.3-.5-.3-.5-.3-.5-.3-.5-.3-.6-.2-.5-.2-.6-.3-.5-.1-.6-.2-.6-.2-.6-.1-.6-.1-.5-.1h-.6l-.6-.1h-3.6l-.6.2-.6.1-.6.1-.5.2-.6.2-.6.1-.5.3-.6.2-.5.2-.5.3-.6.3-.5.3-.5.3-.5.3-.5.4-.4.4-.5.4-.4.3-.5.5-.4.4-.4.4-.4.5-.3.5-.4.4-.3.5-.3.6-.3.4-.3.6-.3.5-.3.5-.2.6-.2.6-.2.5-.1.6-.2.6-.1.6-.1.6-.1.5-.1.6v4.2l.2.6v.6l.2.6.2.5.1.6.2.5.2.6.2.6.3.5.3.5.3.6.3.5.3.5.3.5.4.5.3.4.4.5.4.5.4.4.5.4.4.4.5.4.4.3.5.4.5.3.5.4.5.2.6.3.5.3.5.2.6.3.5.2.6.1.6.2.5.2.6.1.6.1.6.1h.6l.6.1H79l.5-.2h.6l.6-.2.6-.2.6-.2.5-.1.6-.2.5-.3.6-.2.5-.3.5-.3.5-.2.5-.4.5-.3.5-.4.5-.3.4-.4.5-.4.4-.4.4-.4.4-.5.4-.5.4-.4.3-.5.4-.5.3-.5.3-.5.3-.6.2-.5.3-.5.2-.6.2-.6.2-.5.2-.6.1-.5.2-.6v-.6l.2-.6v-.6l.1-.6V30.3z"/><path stroke-linecap="square" stroke-width=".3" d="M94 106.5l-.1-.3v-.2l-.1-.2-.1-.2-.2-.2-.1-.2-.2-.2-.1-.2-.2-.1-.2-.2h-.2l-.2-.2-.3-.1h-.2l-.2-.1h-1.2l-.2.1-.3.1-.2.1-.2.1-.2.2-.1.1-.2.2-.1.2-.2.2-.1.2-.1.2-.1.2v.2l-.1.3v1.4l.2.2v.2l.2.2.2.2v.2l.3.1.1.2.2.2h.2l.2.2h.3l.2.1h.3l.2.1H91.8l.2-.2h.3l.2-.1.2-.1.2-.2.2-.2.1-.1.2-.2.1-.2.2-.2v-.2l.1-.2.1-.3V106.7zM198.6 55.2V55h-.1l-.1-.2h-.1l-.1-.2h-.2l-.2-.1h-.4l-.2.1-.1.1v.1l-.2.1v.1l-.1.2V55.9l.1.1.1.1v.1l.2.1h.1l.1.1H198l.2-.1.2-.2.1-.2v-.1l.1-.1V55.3zM199.4 62.7v-.4l-.2-.1-.1-.1-.1-.1H198.7M199.4 62.7v9.9M198.7 73.3H199l.2-.2.1-.2v-.2l.1-.1M198.7 73.3h-9.8M188.2 72.6V72.9l.1.1.1.1.1.1H188.8M188.1 72.6v-10M188.9 62h-.4l-.1.1v.1l-.1.1-.1.1V62.7M189 62h9.7M197 67.1v-.5l-.2-.2-.1-.3-.1-.2-.2-.2-.1-.2-.2-.2-.2-.2-.2-.1-.2-.2-.3-.1-.2-.1h-.2l-.3-.1-.2-.1H193l-.2.1h-.3l-.2.2-.2.1-.2.2-.3.1-.1.2-.2.2-.2.2-.1.2-.1.2-.1.3-.1.2-.1.3v1.7l.2.3v.2l.2.2.1.2.2.2.2.2.1.2.3.2.2.1.2.1.2.1.3.1.2.1h1.8l.2-.2h.2l.3-.2.2-.1.2-.2.2-.2.2-.2.1-.2.2-.2v-.2l.2-.2.1-.3v-.2l.1-.3v-.8zM190.7 63.3V63l-.1-.2h-.1l-.1-.1-.2-.1H189.3l-.2.1v.1l-.1.1v.1l-.1.2v.6l.1.1v.1l.1.1.2.1.2.1h.8v-.2h.2V64l.1-.2v-.2h.1v-.2zM198.6 63.3V63h-.1l-.1-.2h-.1l-.1-.1-.1-.1H197.2l-.1.1v.1l-.2.1v.1l-.1.2v.6l.1.1.1.1v.1l.2.1h.1l.1.1h.8v-.2h.2V64h.1v-.2l.1-.2v-.2zM190.7 71.4v-.2h-.1l-.1-.2h-.1l-.2-.1H189.3l-.2.1v.1l-.1.1v.1l-.1.1V72.1l.1.1v.1l.1.1.2.1.2.1h.6l.2-.1v-.1h.2v-.2l.1-.2v-.2h.1v-.2zM198.6 71.4l-.1-.2h-.1l-.1-.2h-.1l-.1-.1H197.2l-.1.1v.1l-.2.1v.1l-.1.1V72.1l.1.1.1.1v.1l.2.1h.1l.1.1H198l.2-.1v-.1h.2v-.2h.1V72l.1-.2v-.2z"/><path stroke-linecap="square" stroke-width=".2" d="M167.4 75.3h-4v.4h-2.6v-1.5h2.6v.5h4M167.4 72.6h-4v.4h-2.6v-1.5h2.6v.4h4M167.4 69.9h-4v.4h-2.6v-1.5h2.6v.5h4M167.4 67.2h-4v.4h-2.6v-1.5h2.6v.4h4M167.4 64.5h-4v.4h-2.6v-1.5h2.6v.5h4M167.4 61.8h-4v.4h-2.6v-1.5h2.6v.5h4M167.4 59h-4v.5h-2.6V58h2.6v.5h4M167.4 56.4h-4v.4h-2.6v-1.5h2.6v.5h4M167.4 53.7h-4v.4h-2.6v-1.5h2.6v.5h4M133.6 82h-10.9M122.7 75.4h-.7l-.3.1-.2.1-.3.1-.2.2-.2.1-.2.2-.2.1-.2.2-.1.2-.2.2v.3l-.2.2-.1.3v.2l-.1.2v1.3l.1.3v.2l.2.3.1.2.2.2.1.2.2.2.2.1.2.2.2.2h.2l.3.2h.2l.3.2h.7M122.7 75.4h11M133.6 82h.3l.2-.1h.3l.2-.1.2-.1.3-.1.2-.1.2-.2.2-.2.2-.1.2-.2.2-.2.1-.2.1-.2.1-.3.1-.2v-.3l.2-.2V78l-.1-.2v-.2l-.2-.3v-.2l-.2-.3-.1-.2-.2-.2-.2-.2-.2-.1-.2-.2-.2-.1-.2-.2h-.3l-.2-.2h-.5l-.2-.1h-.3M133.6 83h-10.9"/><path stroke-linecap="square" stroke-width=".2" d="M122.7 74.3h-.6l-.3.1h-.3l-.2.2h-.3l-.3.2-.3.2-.2.1-.2.2-.2.2-.2.2-.2.2-.2.3-.2.2-.1.3-.2.2v.3l-.2.3v.6l-.1.3V79.6l.1.2.1.3.2.3v.3l.2.2.2.2.2.3.2.2.2.2.2.2.2.2.2.1.3.2.3.1.3.1.2.1.3.1H122.7M122.7 74.4h11M133.6 83H134.5l.3-.2h.3l.2-.2h.3l.3-.3h.2l.2-.3.3-.2.2-.2.2-.2.1-.3.2-.2.2-.2v-.3l.2-.3v-.3l.1-.2v-.4l.1-.2v-1.2l-.1-.3-.1-.3-.1-.3-.1-.2-.2-.3-.2-.2-.1-.3-.2-.2-.2-.2-.3-.2-.2-.2-.2-.1-.3-.2-.3-.1-.2-.1-.3-.1h-.3l-.3-.1h-.6"/><path stroke-linecap="square" stroke-width=".3" d="M145.8 90.3h2.5V88h9.7v23.3h-9.7V109h-2.5"/><path stroke-linecap="square" stroke-width=".3" d="M145.8 90.3v-4.8h14.6v28.2h-14.6V109"/><path stroke-linecap="square" stroke-width=".2" d="M148.3 90.3V109M153.3 92.8h-1v-1.5h1zM152.3 91.4l1 1.5M153.3 91.4l-1 1.5M153.3 97.8h-1v-1.4h1zM152.3 96.4l1 1.5M153.3 96.4l-1 1.5M153.3 102.9h-1v-1.5h1zM152.3 101.4l1 1.5M153.3 101.4l-1 1.5M153.3 107.8h-1v-1.4h1zM152.3 106.4l1 1.5M153.3 106.4l-1 1.5"/><path stroke-linecap="square" stroke-width=".3" d="M160.4 89.3H158M167.5 105.4v-.2l-.1-.3v-.2l-.2-.2-.1-.2-.2-.2-.1-.1-.2-.2-.2-.2-.2-.1-.1-.1-.3-.2h-.2l-.2-.1h-.5l-.2-.1h-.5l-.2.1h-.3l-.2.1-.2.2h-.2l-.2.2-.2.2-.1.2-.2.1-.1.2-.2.2v.2l-.1.2-.1.3v.4l-.1.3v.7l.2.2v.3l.1.2.2.1.1.3.2.1.1.2.2.2h.2l.2.2.2.1.2.1h.3l.2.1h1.4l.2-.2.3-.1.1-.1.2-.1.2-.2.2-.2.1-.1.2-.3.1-.1.1-.2v-.3l.2-.2v-1z"/><path stroke-linecap="square" stroke-width=".2" d="M168 105.3v-.5l-.1-.2-.2-.3v-.2l-.2-.3-.2-.2-.2-.1-.2-.3-.2-.1-.2-.2h-.3l-.2-.2h-.3l-.2-.2h-1.6l-.3.1-.2.1-.3.1-.2.1-.2.2-.3.1-.2.3-.1.1-.2.2-.2.3-.1.2-.1.3-.1.2v.3l-.1.2V107l.2.2.1.2.1.3.2.2.2.2.1.2.2.2.3.2.2.1.2.2h.3l.2.2h.5l.3.1h1.1l.2-.1.3-.1.2-.1.3-.2.2-.1.2-.2.2-.2.2-.2.2-.2.1-.2.1-.3.2-.2v-.2l.1-.3v-.3l.1-.3v-.5z"/><path stroke-linecap="square" stroke-width=".3" d="M146.8 90.3v-2.8M147.4 86.9h-.2l-.1.1h-.1v.2h-.1v.2M147.4 86.9h11.4M159.3 87.5V87.2l-.1-.1h-.1l-.1-.1h-.1l-.1-.1M159.3 87.5v1.8M160.4 110H158M146.8 109v2.8M146.9 111.8V112.2l.2.1h.2M147.4 112.3h11.4M158.8 112.3H159.2v-.2h.1v-.1l.1-.1v-.1M159.3 111.8V110M181.5 90.3h2.4V88h9.7v23.3H184V109h-2.4"/><path stroke-linecap="square" stroke-width=".3" d="M181.5 90.3v-4.8H196v28.2h-14.6V109"/><path stroke-linecap="square" stroke-width=".2" d="M184 90.3V109M189 92.8h-1v-1.5h1zM188 91.4l1 1.5M189 91.4l-1 1.5M189 97.8h-1v-1.4h1zM188 96.4l1 1.5M189 96.4l-1 1.5M189 102.9h-1v-1.5h1zM188 101.4l1 1.5M189 101.4l-1 1.5M189 107.8h-1v-1.4h1zM188 106.4l1 1.5M189 106.4l-1 1.5"/><path stroke-linecap="square" stroke-width=".3" d="M196.1 89.3h-2.5M203.2 105.4v-.2l-.2-.3v-.2l-.2-.2v-.2l-.2-.2-.2-.1-.1-.2-.2-.2-.2-.1-.2-.1-.2-.2h-.3l-.2-.1h-.5l-.2-.1h-.5l-.2.1h-.2l-.2.1-.2.2h-.3l-.1.2-.2.2-.2.2-.2.1-.1.2-.1.2-.1.2v.2l-.2.3v1.4l.1.2v.3l.2.2v.1l.2.3.2.1.2.2.2.2h.1l.3.2.2.1.2.1h.2l.2.1h1.4l.3-.2.2-.1.2-.1.2-.1.2-.2.1-.2.2-.1.1-.3.1-.1.1-.2.1-.3.1-.2v-1z"/><path stroke-linecap="square" stroke-width=".2" d="M203.7 105.3v-.2l-.1-.3v-.2l-.2-.3-.1-.2-.2-.3-.2-.2-.1-.1-.2-.3-.3-.1-.2-.2h-.2l-.3-.2h-.2l-.3-.2h-1.6l-.3.1-.2.1-.3.1-.2.1-.2.2-.2.1-.2.3-.2.1-.2.2-.1.3-.1.2-.2.3v.2l-.1.3v.2l-.1.3v1.1l.1.3.1.2.2.2v.3l.2.2.2.2.2.2.2.2.2.2.2.1.2.2h.3l.2.2h.6l.2.1H201.1l.3-.1.2-.1.3-.1.2-.2.2-.1.3-.2.2-.2.1-.2.2-.2.2-.2.1-.3.1-.2v-.2l.2-.3v-1.1z"/><path stroke-linecap="square" stroke-width=".3" d="M182.5 90.3v-2.8M183 86.9h-.2v.1h-.2v.2h-.1v.2M183 86.9h11.4M195 87.5v-.2l-.1-.1V87h-.2V87h-.2v-.1M195 87.5v1.8M196.1 110h-2.5M182.5 109v2.8M182.5 111.8v.2l.1.1.1.1H183M183 112.3h11.4M194.4 112.3H194.7l.1-.2.1-.1v-.2M195 111.8V110M110.2 90.3h2.4V88h9.8v23.3h-9.8V109h-2.4"/><path stroke-linecap="square" stroke-width=".3" d="M110.2 90.3v-4.8h14.6v28.2h-14.6V109"/><path stroke-linecap="square" stroke-width=".2" d="M112.6 90.3V109M117.7 92.8h-1v-1.5h1zM116.6 91.4l1.1 1.5M117.7 91.4l-1 1.5M117.7 97.8h-1v-1.4h1zM116.6 96.4l1.1 1.5M117.7 96.4l-1 1.5M117.7 102.9h-1v-1.5h1zM116.6 101.4l1.1 1.5M117.7 101.4l-1 1.5M117.7 107.8h-1v-1.4h1zM116.6 106.4l1.1 1.5M117.7 106.4l-1 1.5"/><path stroke-linecap="square" stroke-width=".3" d="M124.8 89.3h-2.5M131.9 105.4v-.2l-.2-.3v-.2l-.1-.2-.2-.2-.1-.2-.2-.1-.1-.2-.2-.2-.2-.1-.2-.1-.2-.2h-.2l-.3-.1h-.4l-.3-.1h-.4l-.3.1h-.2l-.2.1-.3.2h-.1l-.2.2-.2.2-.2.2-.1.1-.2.2v.2l-.2.2v.2l-.2.3v1.4l.1.2.1.3.1.2.1.1.2.3.1.1.2.2.2.2h.2l.1.2.3.1.2.1h.2l.3.1h1.4l.2-.2.2-.1.2-.1.2-.1.2-.2.1-.2.2-.1.1-.3.2-.1v-.2l.1-.3.1-.2v-.5l.1-.2v-.3z"/><path stroke-linecap="square" stroke-width=".2" d="M132.4 105.3v-.5l-.2-.2-.1-.3-.1-.2-.2-.3-.2-.2-.1-.1-.2-.3-.2-.1-.3-.2h-.2l-.2-.2h-.3l-.3-.2h-1.6l-.2.1-.3.1-.2.1-.3.1-.2.2-.2.1-.2.3-.2.1-.2.2-.1.3-.1.2-.2.3v.2l-.1.3v.2l-.1.3v1.1l.1.3.1.2.2.2v.3l.2.2.2.2.2.2.2.2.2.2.2.1.3.2h.2l.3.2h.5l.3.1h1l.3-.1.3-.1.2-.1.2-.2.3-.1.2-.2.2-.2.1-.2.2-.2.2-.2v-.3l.2-.2.1-.2v-.3l.1-.3v-.8z"/><path stroke-linecap="square" stroke-width=".3" d="M111.2 90.3v-2.8M111.7 86.9h-.2v.1h-.2v.2l-.1.2M111.7 86.9h11.4M123.7 87.5v-.2l-.1-.1V87h-.2V87h-.2v-.1M123.7 87.5v1.8M124.8 110h-2.5M111.2 109v2.8M111.2 111.8v.2l.1.1.1.1H111.7M111.7 112.3h11.4M123.1 112.3H123.4l.1-.2.2-.1v-.2M123.7 111.8V110"/><path stroke-linecap="square" stroke-width=".2" d="M94.5 106.4v-.3l-.1-.2-.1-.3-.1-.2-.2-.3-.1-.2-.2-.2-.2-.2-.2-.2-.2-.2-.2-.1-.2-.2h-.3l-.2-.2h-.6l-.2-.1h-1.1l-.2.1-.3.1-.2.1-.3.2-.2.1-.2.2-.2.2-.2.2-.2.2-.1.2-.2.3v.2l-.2.3v.5l-.1.3v1l.1.3.1.3.1.2.2.2.1.3.2.2.2.2.2.2.2.1.2.2h.3l.2.2.3.1h.2l.3.1h1.3l.3-.1h.2l.3-.2.2-.1.2-.2.2-.1.2-.2.2-.2.2-.2.1-.3.2-.2v-.2l.2-.3v-.3l.1-.2v-.8zM101 114.9V114.6l-.2-.1-.1-.1-.1-.1h-.2l-.1-.1M101 114.9v30M100.3 145.6H100.6l.1-.2h.1l.1-.2V144.9M100.3 145.6H82.7M82 144.9V145.2l.1.1.1.1.2.1h.1l.2.1M82 144.9v-30M82.7 114.2H82.4l-.2.2-.1.2-.1.2M82.7 114.2h17.6M80 164.3h-2v-13.7h32.5v13.7H109"/><path stroke-linecap="square" stroke-width=".3" d="M109 177H80v-25.3h29z"/><path stroke-linecap="square" stroke-width=".2" d="M88.5 161.8h-6.7V154h6.7zM98 161.8h-6.7V154H98zM107.5 161.8h-6.7V154h6.7zM80 152.8h-.8v10.3h.8M109 152.8h.8v10.3h-.7M119.7 164.3h-2v-13.7h32.5v13.7h-1.3"/><path stroke-linecap="square" stroke-width=".3" d="M148.9 177h-29.2v-25.3h29.2z"/><path stroke-linecap="square" stroke-width=".2" d="M128.3 161.8h-6.7V154h6.7zM137.8 161.8h-6.7V154h6.7zM147.3 161.8h-6.7V154h6.7zM119.7 152.8h-.7v10.3h.7M148.9 152.8h.7v10.3h-.7M49.7 164.3h-2v-13.7H71v13.7h-1.4"/><path stroke-linecap="square" stroke-width=".3" d="M69.6 177H49.7v-25.3h19.9z"/><path stroke-linecap="square" stroke-width=".2" d="M58.3 161.8h-6.8V154h6.8zM67.8 161.8H61V154h6.8zM49.7 152.8h-.8v10.3h.8M69.6 152.8h.8v10.3h-.8M203.2 159.2v-.2l-.2-.3-.2-.3-.2-.3-.2-.2-.2-.2-.2-.2-.2-.2-.3-.2-.3-.2-.3-.1-.2-.2h-.3l-.3-.1-.3-.1h-.3l-.4-.1H198l-.3.2h-.3l-.3.1-.3.2-.3.1-.2.2-.3.2-.2.2-.3.2-.2.2-.2.2-.2.3-.1.3-.2.3v.2l-.2.3-.1.3v.3l-.1.3v1.6l.1.3.1.3.1.3.1.3.2.3.1.2.2.3.2.2.2.3.3.2.2.2.3.2.2.1.3.2h.3l.3.2.3.1h.3l.3.1H199.8l.3-.1.3-.1.3-.1.2-.1.3-.2.3-.1.3-.2.2-.2.2-.2.2-.3.2-.2.2-.3.2-.2.1-.3.1-.3.2-.3v-.3l.1-.3v-.6l.1-.3v-1l-.1-.3-.1-.3z"/><path stroke-linecap="square" stroke-width=".2" d="M196.4 161.7v.2h.2M196.4 161.8v-1.3M196.7 160.2h-.1l-.1.1v.1M196.7 160.2h1M197.7 160.2h.1l.1-.1v-.1M198 160v-1.1M198.2 158.7h-.2v.1M198.2 158.7h1.3M199.7 158.9v-.1h-.1v-.1h-.1M199.7 158.9v1M199.7 160l.1.2h.1M200 160.2h1M201.2 160.4v-.1l-.1-.1M201.2 160.5v1.3M201 162h.1v-.1l.1-.1M201 162h-1M200 162H199.6v.1M199.7 162.2v1M199.5 163.5h.1v-.1l.1-.1M199.5 163.5h-1.3M198 163.2v.2h.1M198 163.3v-1.1M198 162.2v-.1l-.1-.1h-.1M197.7 162h-1M5.3 132.6V61.3M10.8 55.7h62.7M5.3 132.5v.7l.1.3v.3l.1.4.2.3v.3l.2.3.2.3.2.3.2.2.2.3.2.3.3.2.2.2.3.2.3.2.3.1.3.2.3.1.3.1.3.1h.4l.3.1H74.8l.3-.2.3-.1.3-.1.3-.2.3-.1.3-.2.3-.2.2-.2.3-.2.2-.3.2-.3.2-.2.2-.3.2-.3.1-.3.2-.3v-.3l.1-.4.1-.3v-.3l.1-.3V60.5l-.1-.3V60l-.1-.4-.1-.3-.2-.3-.1-.3-.2-.3-.2-.2-.2-.3-.2-.3-.2-.2-.3-.3-.2-.2-.3-.1-.3-.2-.3-.2-.3-.1-.3-.2h-.3l-.3-.2h-.4l-.3-.1H10l-.4.1-.3.1-.3.1-.3.2-.3.1-.3.2-.3.2-.3.1-.2.2-.3.3-.2.2-.2.3-.2.3-.2.2-.2.3-.1.3-.1.3-.2.3v.4l-.1.3v.3l-.1.4v.3M73.5 138H10.8"/><path stroke-linecap="square" stroke-width=".3" d="M65.7 76.1v-.7l-.1-.3-.2-.3v-.3l-.2-.3-.1-.3-.2-.3-.2-.3-.2-.3-.2-.3-.2-.2-.3-.2-.2-.2-.3-.2-.3-.2-.3-.2-.3-.1-.3-.1-.3-.2h-.3L61 71h-.6l-.3-.1H23.2l-.4.2h-.3l-.3.2h-.3l-.3.2-.3.2-.3.2-.3.2-.2.2-.3.2-.2.2-.2.3-.2.3-.2.3-.2.3-.1.3-.1.3-.1.3-.2.3V118.6l.2.4v.3l.2.3.1.3.2.3.2.2.2.3.2.3.2.2.3.3.2.2.3.1.3.3.3.1.3.1.3.2h.3l.3.2h.4l.3.1H61l.4-.1.3-.1.3-.1.3-.2.3-.1.3-.1.3-.3.3-.1.2-.2.3-.3.2-.2.2-.3.2-.3.2-.2.2-.3.1-.3.1-.3.1-.3.2-.4v-.6l.1-.4V76.5zM104 77.6l-.1-.4-.1-.5-.1-.5-.2-.5-.1-.4-.2-.5-.2-.4-.2-.4-.2-.4-.3-.5-.3-.4-.2-.3-.4-.4-.3-.4-.3-.3-.3-.4-.4-.3-.4-.3-.4-.3-.4-.3-.4-.2-.4-.2-.4-.3-.5-.1-.4-.2-.5-.2h-.5l-.4-.2-.5-.1h-.5L94 68h-2.4l-.5.1h-.5l-.5.2-.4.1-.5.2-.4.2-.5.1-.4.3-.4.2-.5.2-.3.3-.4.3-.4.3-.4.3-.3.4-.3.3-.4.4-.3.4-.3.3-.2.4-.3.5-.2.4-.2.4-.2.4-.2.5-.1.4-.2.5-.1.5-.1.5v.4l-.1.5v2.4l.1.5.1.5.1.4.2.5v.4l.3.5.2.5.2.4.2.4.3.4.2.4.3.4.3.4.4.4.3.3.3.3.4.3.4.4.4.2.3.3.5.3.4.2.4.2.5.2.4.2.5.1.4.2h.5l.5.2h.9l.5.1h1.9l.5-.1.5-.1.4-.1.5-.2.5-.1.4-.2.5-.2.4-.2.4-.2.4-.3.4-.3.4-.2.4-.4.4-.3.3-.3.3-.3.3-.4.4-.4.2-.4.3-.4.3-.4.2-.4.2-.4.2-.5.2-.5.1-.4.2-.5v-.4l.2-.5v-.9l.1-.5V78z"/><path stroke-linecap="square" stroke-width=".2" d="M95 78.4V78l-.2-.1-.1-.2-.2-.2h-.1l-.2-.2-.2-.1-.2-.1-.2-.1H92.2l-.3.2h-.1l-.2.2-.1.1-.2.2-.1.2-.1.1-.1.3-.1.1V80l.2.2v.2l.2.1.2.2v.2l.3.1.1.1h.3l.2.1.1.1H93.6l.2-.1h.2l.2-.2.2-.1.1-.2.2-.2.1-.1.1-.2v-.2l.2-.2v-1.1zM95.9 85l-.1-.2-.1-.2-.1-.2-.2-.3-.1-.2-.1-.1-.2-.2-.2-.2-.2-.1-.2-.1-.2-.1-.2-.1h-.3l-.2-.2h-1l-.2.1H92l-.2.2h-.2l-.2.2-.2.1-.2.2-.2.2-.2.1-.1.3-.1.2-.1.2-.1.2v.2l-.1.3v1.4l.2.2v.3l.2.2.1.2.2.2.2.1.2.2.2.1.2.1.2.2h.2l.3.1h.2l.3.1H93.7l.3-.1.2-.1.2-.2h.2l.2-.2.2-.2.2-.1.1-.2.1-.2.2-.3V87l.2-.2v-.2l.1-.3V85.3zM93 82.9v5.8M96 85.8h-6M86.8 61.3v-1h.7v1h.3M87.8 61.9v-.1l.1-.1V61.4h-.1M87.8 61.9h-.3V63h-.7V62h-.2M86.6 61.3h-.1v.5M86.6 61.4h.2M89.1 61.3v-1h.7v1h.3M90 61.9h.1v-.2l.1-.1v-.2H90M90 61.9h-.2V63h-.7V62H89M88.9 61.3l-.1.2V61.9M89 61.4h.1M91.5 61.3v-1h.6v1h.3M92.4 61.9v-.1l.1-.1V61.4h-.1M92.4 61.9H92V63h-.6V62h-.3M91.2 61.3l-.1.2V61.9M91.2 61.4h.3M93.8 61.3v-1h.6v1h.3M94.7 61.9l.1-.1v-.4M94.7 61.9h-.3V63h-.6V62h-.3M93.5 61.3v.2h-.1V61.9h.1M93.5 61.4h.3M96 61.3v-1h.8v1h.2M97 61.9l.1-.1v-.4M97 61.9h-.2V63H96V62h-.3M95.8 61.3l-.1.2V61.9h.1M95.8 61.4h.3M98.4 61.3v-1h.7v1h.2M99.3 61.9h.1v-.5M99.3 61.9h-.2V63h-.7V62H98M98.1 61.3v.2H98V61.9h.1M98.1 61.4h.3M100.7 61.3v-1h.7v1h.2M101.6 61.9h.1v-.5M101.6 61.9h-.2V63h-.7V62h-.3M100.4 61.3v.2h-.1V61.9h.1M100.4 61.4h.3M103 61.3v-1h.7v1h.3M104 61.9v-.1l.1-.1V61.4h-.1M104 61.9h-.3V63h-.7V62h-.2M102.8 61.3h-.1v.5M102.8 61.4h.2M105.3 61.3v-1h.7v1h.3M106.3 61.9v-.1l.1-.1V61.4h-.1M106.3 61.9h-.3V63h-.7V62h-.2M105 61.3v.5M105.1 61.4h.2"/><path stroke-linecap="square" stroke-width=".2" d="M107.6 63.9l-1.4 1.4H86.6l-1.4-1.4v-5.5h22.4z"/><path stroke-linecap="square" stroke-width=".2" d="M106.7 63.5l-.9 1H87l-1-1v-4.2h20.7zM41.6 33H22.4v-6.6h19.2zM41.6 25.4H22.4v1h19.2zM33.7 25.5v1M30.3 25.5v1M40.5 44.9v-.4l-.1-.4-.2-.4v-.4L40 43l-.1-.4-.2-.3-.2-.4-.2-.4-.3-.3-.2-.3-.2-.3-.3-.3-.3-.3-.3-.3-.3-.2-.4-.3-.3-.2-.3-.2-.4-.2-.4-.2-.4-.1-.4-.2h-.3l-.4-.2h-.5l-.3-.1h-2.1l-.4.1-.4.1-.4.1-.4.2-.4.1-.3.2-.4.2-.4.2-.3.2-.3.3-.4.2-.2.3-.3.3-.3.3-.3.3-.2.3-.2.3-.3.4-.1.4-.2.3-.1.4-.2.4v.4l-.2.4v.4l-.1.4v2l.1.5.1.4.1.3.2.4v.4l.3.4.1.4.3.3.2.4.2.3.3.3.3.3.3.3.2.3.4.2.3.3.3.2.4.2.4.2.3.2.4.1.4.1.4.1.4.2H32l.4.1h1.2l.5-.1.4-.2h.3l.4-.2.4-.1.4-.2.4-.2.3-.2.3-.2.4-.3.3-.2.3-.3.3-.3.3-.3.2-.3.2-.3.3-.4.2-.3.2-.4.2-.4.1-.4.1-.4.1-.3.2-.4v-2.1zM20.5 44.9v-.8l-.2-.4-.1-.4-.1-.4-.2-.4-.2-.3-.1-.4-.3-.4-.2-.3-.2-.3-.3-.3-.2-.3-.4-.3-.2-.3-.4-.2-.3-.3-.3-.2-.4-.2-.3-.2-.4-.2-.4-.1-.4-.2h-.4l-.4-.2h-.4l-.4-.1h-2l-.4.1-.4.1-.4.1-.4.2-.4.1-.4.2-.3.2-.4.2-.3.2-.3.3-.4.2-.3.3-.3.3-.2.3-.3.3-.2.3-.3.3-.2.4-.2.4-.1.3-.2.4-.1.4-.1.4-.1.4-.1.4v2.9l.2.4v.3l.2.4.2.4.1.4.2.4.2.3.3.4.2.3.3.3.2.3.3.3.3.3.4.2.3.3.3.2.4.2.3.2.4.2.4.1.4.1.4.1.4.2H12l.4.1H13.7l.4-.1.4-.2h.4l.4-.2.4-.1.4-.2.3-.2.4-.2.3-.2.3-.3.4-.2.2-.3.4-.3.2-.3.3-.3.2-.3.2-.4.3-.3.1-.4.2-.4.2-.4v-.4l.2-.3.1-.4v-.5l.1-.3v-1.3zM50.3 46.6h-5V34.5h5zM48.5 34.5H47v-4.8"/><path stroke-linecap="square" stroke-width=".2" d="M48.5 29.7v-.2l-.1-.2-.2-.2H48V29H47.3v.1l-.2.1v.2l-.1.1v.2M48.5 29.7v4.8M48.5 46.6H47v4.8M47 51.4v.2h.1v.2h.1l.1.2h.1l.2.1h.5l.1-.1.1-.1.1-.1v-.4M48.5 51.5v-4.8M48.5 32.7h1.3M49.8 32.7h.2l.2-.1h.2l.1-.2h.1l.1-.2.1-.1v-.2h.1v-.4M51 31.5v-3.6M51 27.9v-.4l-.1-.1-.1-.1V27l-.2-.1v-.1h-.2l-.2-.1h-.1l-.1-.1h-.2M49.8 26.7h-4.1M45.8 26.7h-.5l-.1.1-.2.1v.1l-.2.1v.2h-.1v.2l-.1.2v.2M44.6 27.9v3.6M44.6 31.5v.4l.1.2.1.1.1.1.1.1.2.1.3.1H45.8M45.7 32.7h1.4"/><path stroke-linecap="square" stroke-width=".3" d="M31.3 146.8l-.3-.7-.4-.7-.5-.6-.5-.6-.5-.5-.6-.5-.7-.5-.6-.4-.7-.4-.7-.3-.8-.3-.7-.1-.8-.2h-.8l-.7-.1h-.8l-.8.1-.7.2-.8.1-.7.3-.7.3-.7.4-.7.4-.6.5-.6.5-.6.5-.5.6-.4.6-.4.7-.4.7-.3.7-.3.7-.2.8-.1.7v.8l-.1.8v1.5l.2.8.2.8.3.7.3.7.4.7.4.7.4.6.5.6.6.5.6.6.6.4.7.4.7.4.7.3.7.3.8.2.7.1h.8l.8.1h.7l.8-.1.8-.1.7-.2.8-.3.7-.3.7-.4.6-.4.7-.4.6-.6.5-.5.5-.6.5-.6.4-.7.3-.7.4-.7.2-.7.2-.8.2-.8V149.7l-.2-.7-.2-.8-.2-.7z"/><path stroke-linecap="square" stroke-width=".3" d="M31.9 146.8l-.4-.7-.4-.7-.4-.6-.5-.6-.5-.6-.6-.5-.6-.5-.6-.4-.7-.5-.7-.3-.7-.3-.8-.3-.7-.1-.8-.2H20.4l-.7.2-.8.1-.7.3-.8.3-.6.3-.7.5-.6.4-.7.5-.5.5-.6.6-.4.6-.5.6-.4.7-.3.7-.3.7-.3.7-.2.8-.1.7v.8l-.1.8v1.5l.2.8.2.8.3.7.3.7.3.7.4.7.5.6.4.6.6.6.5.5.7.5.6.5.7.4.6.3.8.3.7.2.8.3h.7l.8.2h1.5l.8-.1.8-.1.7-.3.8-.2.7-.3.7-.3.7-.4.6-.5.6-.5.6-.5.5-.6.5-.6.4-.6.4-.7.4-.7.3-.7.2-.7.2-.8.1-.8.1-.7V149.7l-.2-.7-.2-.8-.2-.7z"/><path stroke-linecap="square" stroke-width=".2" d="M33 146.5l-.4-.7-.4-.8-.4-.6-.5-.7-.6-.6-.6-.6-.6-.5-.6-.5-.7-.5-.7-.4-.7-.3-.8-.3-.8-.3-.8-.2-.8-.1h-.8l-.8-.1H21l-.8.1-.8.1-.8.2-.8.3-.7.3-.7.3-.8.4-.7.5-.6.5-.6.5-.6.6-.5.6-.5.7-.5.6-.4.8-.4.7-.2.8-.3.7-.2.9-.1.8-.1.8V152.9l.2.8.2.8.3.8.2.8.4.7.4.7.5.7.5.7.5.6.6.6.6.5.6.5.7.5.8.4.7.3.7.3.8.3.8.1.8.2.8.1H22.8l.8-.1.8-.2.8-.1.8-.3.8-.3.7-.3.7-.4.7-.5.6-.5.6-.5.6-.6.6-.6.5-.7.4-.7.4-.7.4-.7.3-.8.2-.8.2-.8.2-.8v-3.2l-.2-.8-.2-.9-.2-.7z"/><path stroke-linecap="square" stroke-width=".2" d="M21.5 157.4l-1.7-.4 2.7-11.8 1.7.4z"/><path stroke-linecap="square" stroke-width=".3" d="M39.7 13v-.5l-.2-.5v-.4l-.2-.4v-.5l-.3-.4-.1-.4-.2-.4-.2-.5-.2-.3-.3-.4-.2-.4-.3-.4-.3-.3-.3-.3-.3-.4-.4-.3L36 6l-.4-.2-.3-.3-.4-.2-.4-.3-.4-.2-.5-.2-.4-.2-.4-.1-.4-.1-.5-.1-.4-.1h-.5l-.4-.2h-1.9l-.4.1h-.5l-.4.2h-.4l-.5.2-.4.1-.4.2-.5.2-.4.2-.3.3-.4.2-.4.3-.4.2-.3.3-.4.3-.3.4-.3.3-.3.3-.2.4-.3.4-.3.4-.2.3-.2.5-.2.4-.1.4-.2.4-.1.5-.1.4-.1.4-.1.5V15.7l.2.4v.5l.2.4.2.4.1.5.2.4.2.4.2.4.3.4.3.3.2.4.3.3.3.4.3.3.4.3.3.3.4.3.4.2.4.3.3.2.4.2.5.2.4.2.4.1.5.2h.4l.4.2h.9l.5.1H30.9l.5-.1.4-.1.5-.1.4-.2.4-.1.4-.2.5-.2.4-.2.4-.2.4-.3.3-.2.4-.3.3-.3.4-.3.3-.3.3-.4.3-.3.3-.4.2-.3.3-.4.2-.4.2-.4.2-.4.1-.5.2-.4.1-.4.2-.5v-.4l.1-.5v-.9l.1-.4v-.5z"/><path stroke-linecap="square" stroke-width=".3" d="M36.1 13.1v-.7l-.2-.4-.1-.3-.1-.4-.2-.3-.2-.3-.1-.4-.3-.3-.2-.3-.2-.2-.3-.3-.2-.3-.3-.2-.3-.2-.3-.2-.3-.2-.4-.2-.3-.1-.4-.2h-.3l-.4-.2h-.3l-.4-.1h-1.8l-.4.1-.4.1-.3.1-.4.2-.3.1-.3.2-.4.2-.3.2-.3.2-.3.2-.2.3-.3.3-.2.2-.3.3-.2.3-.1.4-.2.3-.2.3-.1.4-.1.3-.1.4v.3l-.1.4v2.3l.2.3.1.4.1.3.2.3.2.4.1.3.2.3.3.3.2.3.3.2.2.3.3.3.3.2.3.2.4.2.3.1.3.2.4.1.3.1.4.1.4.1H31l.4-.2h.3l.4-.2.3-.2.4-.1.3-.2.3-.2.3-.2.3-.3.2-.3.3-.2.2-.3.2-.3.3-.3.1-.3.2-.4.2-.3.1-.3.1-.4.1-.3V15l.1-.4v-1.1z"/><path stroke-linecap="square" stroke-width=".2" d="M29.7 13.8v-10M29.4 13.8v-10M29.4 13.8l-8.7 5M29.5 14l-8.7 5M29.7 13.8l8.7 5M29.5 14l8.8 5"/><path stroke-linecap="square" stroke-width=".3" d="M51.2 6.7v-.4L51 6v-.3l-.2-.3-.1-.3-.1-.4-.2-.2-.2-.3-.2-.3-.2-.3-.2-.2-.3-.3L49 3l-.2-.2-.3-.2-.3-.1-.3-.2-.3-.1-.3-.1h-.4l-.3-.2h-2l-.4.1H44l-.3.2-.3.1-.3.2-.3.1-.3.2-.3.2-.2.2-.3.3-.2.2-.2.3-.2.3-.2.3-.2.2-.1.4-.1.3-.2.3V6l-.1.3v.4L40 7v1.4l.1.3.1.3.2.3v.3l.2.4.2.2.2.3.2.3.2.3.2.2.3.2.2.3.3.2.3.1.3.2.3.2.3.1.3.1h.3l.4.2h2l.3-.1h.4l.3-.2.3-.1.3-.2.3-.2.3-.1.2-.2.3-.3.3-.2.2-.2.2-.3.2-.3.2-.3.2-.2v-.4l.2-.3.1-.3.1-.3.1-.3V7z"/><path stroke-linecap="square" stroke-width=".3" d="M49.2 6.8v-.3l-.1-.3L49 6l-.1-.2-.1-.3-.2-.2-.2-.2-.1-.3-.2-.1-.2-.2-.2-.2-.3-.1-.2-.1-.3-.2h-.2l-.3-.1h-.5l-.3-.1h-.8l-.3.2h-.2l-.3.2h-.2l-.3.2-.2.2-.2.2-.2.1-.2.3-.1.2-.2.2-.1.3-.1.2-.1.3v.2l-.1.3v1.6l.2.3v.2l.2.3.2.2.1.2.2.2.2.2.2.2.2.2.3.1.2.1.3.1.2.1.3.1h.5l.3.1h.8l.3-.2h.2l.3-.2h.2l.3-.2.2-.2.2-.2.2-.2.1-.2.2-.2.2-.2v-.3l.2-.2v-.3l.1-.2.1-.3V7zM21.6 23.7v-.5l-.1-.4-.1-.5-.1-.4-.2-.4-.1-.5-.2-.4-.2-.4-.2-.4-.2-.4-.3-.4-.2-.4-.3-.3-.3-.4-.3-.3-.3-.3-.4-.4-.3-.2-.4-.3-.3-.3-.4-.2-.4-.3-.4-.2-.4-.1-.5-.2-.4-.2-.4-.1-.5-.1-.4-.1h-.5l-.4-.1H9.6l-.4.2h-.4l-.5.2-.4.2-.4.2-.4.1-.5.2-.3.3-.4.2-.4.3-.4.3-.3.2-.3.4-.4.3-.3.3-.3.4-.3.3-.2.4-.2.4-.3.4-.2.4-.2.4-.2.4-.1.5-.1.4-.1.4-.1.5v.4l-.2.5v1.8l.1.4v.5l.2.5v.4l.2.4.1.5.2.4.2.4.2.4.3.4.2.4.3.4.2.3.3.4.3.3.4.3.3.3.3.3.4.3.4.3.4.2.3.2.5.2.4.2.4.2.4.1.5.2h.4l.4.2h.5l.5.1h2.2l.5-.1.4-.1.5-.1.4-.2.4-.1.5-.2.4-.2.4-.2.4-.2.4-.2.3-.3.4-.3.3-.3.4-.3.3-.3.3-.3.3-.4.3-.3.2-.4.3-.4.2-.4.2-.4.2-.4.2-.4.1-.5.2-.4v-.4l.2-.5v-.9l.1-.5v-.9z"/><path stroke-linecap="square" stroke-width=".3" d="M18 23.9v-.4l-.1-.4v-.3l-.2-.4-.1-.3-.2-.4-.1-.3-.2-.3-.2-.3-.3-.3-.2-.3-.3-.3-.2-.2-.3-.3-.3-.2-.3-.2-.3-.2-.4-.2-.3-.1-.3-.2h-.4L13 18h-.3l-.4-.1h-1.9l-.3.1-.4.1-.3.1-.4.2-.3.1-.3.2-.4.2-.3.2-.3.2-.2.3-.3.2-.3.3-.2.3-.2.3-.2.3-.2.3-.2.3-.2.4v.3l-.2.4v.3l-.2.4v2.2l.1.4.1.3.1.4.1.3.2.4.2.3.2.3.2.3.2.3.2.3.3.3.3.2.2.3.3.2.3.2.4.2.3.2.3.1.4.2h.3l.4.1.3.1h.4l.4.1h1.1l.4-.1h.3l.4-.1.4-.1.3-.2.3-.1.4-.2.3-.2.3-.2.3-.2.3-.3.2-.2.3-.3.2-.3.3-.3.2-.3.2-.3.1-.3.2-.4.1-.3.1-.4.1-.3v-.4l.1-.4v-1.1z"/><path stroke-linecap="square" stroke-width=".2" d="M11.3 24.5v-10M11.6 24.5v-10M11.5 24.8l-8.7 5M11.3 24.5l-8.7 5M11.5 24.8l8.7 5M11.6 24.5l8.7 5"/><path stroke-width=".3" d="M133.3 40.3h-.1l-.1-.2-.2-.1-.1-.1h-.8l-.1.2-.1.1-.1.1V41.1l.2.2h.1l.2.1.1.1h.5l.1-.1.2-.1V41l.2-.1v-.5zM131.4 29.7l1.3-1-.6-.7h-6l-.8.7.9 1zM132.1 34.7l.5-.3.9-4.8-.6-.7-1.3 1.1-.7 3.7 1 1zM124 34.5h-.5l-.3-.2 1-4.7.8-.7.8 1-.7 3.7zM131.4 34.8l-1.2.9H125l-.8-1 1.2-.8h5.2zM123.9 34.8h-.4l-.4.3-1 4.6.6.7 1.3-1.1.7-3.4zM131.8 35h.3l.3.2-.9 4.5-.8.7-.9-1 .7-3.5zM123 40.7l1.3-1.1h5.2l.9 1-.9.7h-6zM147.5 40.3l-.2-.2-.1-.1-.2-.1h-.8v.2l-.2.1v.1l-.1.2v.5l.1.1.1.2h.1l.2.1.1.1h.5l.2-.1.1-.1.1-.2V41l.1-.2V40.5zM145.6 29.7l1.3-1-.5-.7h-6l-.9.7.9 1zM146.4 34.7l.4-.3.9-4.8-.6-.7-1.3 1.1-.7 3.7 1 1zM138.1 34.5h-.4l-.3-.2 1-4.7.8-.7.9 1-.7 3.7zM145.6 34.8l-1.2.9h-5.2l-.8-1 1.2-.8h5.2zM138 34.8h-.3l-.4.3-1 4.6.6.7 1.4-1.1.6-3.4zM146 35h.4l.2.2-.8 4.5-1 .7-.8-1 .7-3.5zM137.2 40.7l1.3-1.1h5.2l.9 1-.9.7h-6zM161.7 40.3h-.1l-.1-.2-.1-.1-.1-.1H160.4v.2l-.2.1v.1l-.1.2v.5l.1.1.1.2h.1l.2.1.2.1h.5v-.1l.2-.1.1-.2.1-.1v-.5zM159.8 29.7l1.3-1-.6-.7h-6l-.8.7.9 1zM160.6 34.7l.4-.3 1-4.8-.6-.7L160 30l-.8 3.7 1 1zM152.3 34.5h-.4l-.2-.2.9-4.7.8-.7.9 1-.7 3.7zM159.9 34.8l-1.3.9h-5.2l-.7-1 1.2-.8h5.1zM152.3 34.8h-.4l-.4.3-1 4.6.7.7 1.3-1.1.6-3.4zM160.2 35h.4l.2.2-.9 4.5-.8.7-.9-1 .7-3.5zM151.4 40.7l1.3-1.1h5.2l1 1-1 .7h-6zM175.9 40.3l-.2-.2-.1-.1-.2-.1H174.7l-.2.2v.1l-.2.1v.7l.2.1v.2h.2l.1.1.2.1h.4l.2-.1.1-.1.1-.2.1-.1v-.5zM174 29.7l1.3-1-.5-.7h-6l-.9.7 1 1zM174.8 34.7l.4-.3 1-4.8-.6-.7-1.4 1.1-.7 3.7 1 1zM166.5 34.5h-.3l-.3-.2.9-4.7.8-.7.9 1-.7 3.7zM174.1 34.8l-1.3.9h-5.2l-.7-1 1.2-.8h5.2zM166.5 34.8h-.3l-.5.3-.9 4.6.6.7 1.3-1.1.7-3.4zM174.4 35h.4l.3.2-1 4.5-.8.7-.9-1 .7-3.5zM165.6 40.7l1.3-1.1h5.3l.8 1-.8.7h-6z"/><path stroke-linecap="square" stroke-width=".2" d="M200.4 2l-.3-.1h-1l-.2.1h-.4l-.2.1-.4.2h-.2l-.3.2-.3.2-.2.2-.3.2-.2.2-.2.2-.2.3-.2.2-.2.3-.1.3-.1.3-.1.2-.2.4V6l-.1.3v1.2l.1.3.2.4v.2l.2.3.1.3.2.2.2.3.2.2.2.3.2.2.3.2.2.2.3.1.3.2.2.1.4.1.2.1h.4l.2.2h1.3l.3-.1h.3l.3-.2h.3l.3-.2.3-.2.2-.1.3-.2.2-.2.3-.2.2-.3.2-.2.2-.3.1-.2.2-.3v-.3l.2-.2v-.4l.2-.3V5.7l-.1-.2V5l-.2-.2-.1-.3-.2-.3-.1-.3-.2-.2-.2-.3-.2-.2-.3-.2-.2-.2-.3-.2-.2-.2-.3-.1-.3-.1-.3-.2h-.6z"/><path stroke-linecap="square" stroke-width=".2" d="M197.4 7.3v.2h.2M197.4 7.4V6M197.6 5.8h-.1l-.1.1V6M197.6 5.9h1.1M198.7 5.8h.1v-.2M199 5.7V4.6M199.1 4.3h-.1v.1l-.1.1M199.1 4.3h1.3M200.7 4.5v-.1h-.2v-.1M200.6 4.6v1M200.7 5.6v.2h.2M201 5.9h1M202.2 6l-.1-.1h-.1M202.2 6v1.4M202 7.6l.1-.1v-.2M202 7.6h-1M200.9 7.6h-.2v.1M200.6 7.8v1M200.4 9.1h.1l.1-.1v-.1M200.4 9h-1.3M198.9 8.9v.2h.2M199 8.9V7.8M198.9 7.8v-.1l-.2-.1M198.7 7.6h-1M11.4 5.2l-.1-.3-.2-.3-.2-.2-.2-.3-.2-.2-.2-.2-.3-.2-.3-.2-.2-.2-.3-.1-.3-.2h-.3l-.3-.1-.3-.1h-.3l-.3-.1H6.5l-.3.1h-.3l-.3.1-.3.1L5 3l-.3.1-.3.2-.2.2-.2.2-.3.2-.2.2-.2.3-.2.2L3 5l-.2.3-.1.3-.1.2-.1.4-.1.2V7l-.1.3v.6l.1.3v.3l.2.3v.3l.2.3.2.3.1.2.2.3.2.2.2.3.3.2.2.2.2.2.3.1.3.2.3.1.3.1.3.1h.3l.3.2h1.2L8 12h.3l.3-.2H9l.3-.2.3-.2.2-.1.3-.2.3-.2.2-.2.2-.3.2-.2.2-.3.2-.2.1-.3.1-.3.2-.3v-.6L12 8V6.7l-.1-.4v-.2l-.1-.4-.2-.2z"/><path stroke-linecap="square" stroke-width=".2" d="M4.7 8l.1.1H5M4.7 8V6.7M5 6.4h-.2v.1l-.1.1M5 6.5h1M6 6.4h.1l.1-.1v-.1M6.2 6.2v-1M6.5 4.9h-.1l-.2.1v.1M6.5 4.9h1.3M8 5.1V5h-.1v-.1h-.1M8 5.2v1M8 6.2v.1l.1.1M8.2 6.5h1.1M9.5 6.6l-.1-.2h-.1M9.5 6.7V8M9.3 8.2l.2-.1V8M9.3 8.2h-1M8.2 8.2H8l-.1.1M8 8.4v1M7.8 9.7l.1-.1v-.2M7.8 9.7H6.5M6.2 9.4v.1l.1.2h.2M6.2 9.5V8.4M6.2 8.4v-.2H6M6 8.2H5M10.4 158.5l-.2-.2-.3-.2-.3-.2-.2-.1-.3-.2-.3-.1-.3-.1h-.3l-.3-.2H6.1l-.3.1h-.3l-.3.2-.3.1-.3.2-.3.1-.2.2-.3.2-.2.2-.2.3-.2.2-.2.3-.1.2-.2.3-.1.3-.1.3-.1.3-.1.3v.6l-.1.3v1l.2.3v.3l.2.3v.3l.3.2.1.3.2.3.2.2.2.2.2.2.3.2.2.2.3.2.3.1.3.1.3.2h.3l.3.1.3.1h1.5l.3-.1.3-.1.3-.2h.3l.3-.2.2-.2.3-.2.3-.2.2-.2.2-.2.2-.2.2-.3.2-.3v-.2l.2-.3.1-.3.1-.3v-.3l.2-.3v-1.3l-.1-.3v-.3l-.2-.3-.1-.3-.1-.3-.1-.3-.2-.2-.2-.3-.2-.2z"/><path stroke-linecap="square" stroke-width=".2" d="M4.6 162.6v.1h.2v.1M4.6 162.6v-1.3M4.8 161h-.1v.2h-.1M4.8 161H6M5.9 161h.2v-.2M6.1 160.9v-1.1M6.4 159.5h-.1l-.2.1v.1M6.3 159.6h1.4M7.9 159.7l-.1-.1h-.1M8 159.8v1M7.9 160.8v.2H8M8.1 161h1.1M9.4 161.3v-.1l-.1-.1h-.1M9.4 161.3v1.3M9.2 162.8h.2v-.2M9.2 162.9h-1M8 162.8h-.1v.2M8 163v1M7.7 164.3h.1v-.2M7.7 164.4H6.3M6.1 164v.2l.1.1h.2M6.1 164v-1M6.1 163v-.1h-.2M6 162.9H4.7"/></g></svg>